<svg width="103" height="108" viewBox="0 0 103 108" fill="none" xmlns="http://www.w3.org/2000/svg">
<path d="M29.6024 21.7609L21.3617 38C21.3617 38 8.43826 37.3295 5.95848 24.0458C3.07366 8.60954 10.9821 -0.158971 13.2871 0.00218293C15.595 0.166215 16.9121 1.13889 18.7245 9.58221C20.5399 18.0284 29.6024 21.7609 29.6024 21.7609ZM72.0646 21.7609L80.3053 38C80.3053 38 93.2287 37.3295 95.7085 24.0458C98.5933 8.60954 90.6848 -0.158971 88.3799 0.00218293C86.072 0.166215 84.7549 1.13889 82.9424 9.58221C81.13 18.0284 72.0646 21.7609 72.0646 21.7609Z" fill="#58585B"/>
<mask id="mask0_2377_646" style="mask-type:luminance" maskUnits="userSpaceOnUse" x="0" y="5" width="103" height="103">
<path d="M0 5.06836H102.333V107.557H0V5.06836Z" fill="white"/>
</mask>
<g mask="url(#mask0_2377_646)">
<path d="M88.9335 105.842C81.3993 105.842 81.3819 97.3096 81.3819 97.3096C81.3819 97.3096 78.9429 106.499 71.736 106.665C64.5291 106.828 62.2349 97.8039 62.2349 97.8039C62.2349 97.8039 59.4599 107.485 50.9379 107.485C42.4159 107.485 39.6409 97.8039 39.6409 97.8039C39.6409 97.8039 37.3468 106.828 30.1399 106.665C22.9329 106.499 20.494 97.3096 20.494 97.3096C20.494 97.3096 20.4766 105.842 12.9423 105.842C5.4081 105.842 -2.45635 78.9306 1.14711 47.7532C4.75056 16.5757 32.9236 5.41748 50.9379 5.41748C68.9523 5.41748 97.1253 16.5757 100.729 47.7532C104.332 78.9306 96.4678 105.842 88.9335 105.842ZM88.9335 105.842C81.3993 105.842 81.3819 97.3096 81.3819 97.3096C81.3819 97.3096 78.9429 106.499 71.736 106.665C64.5291 106.828 62.2349 97.8039 62.2349 97.8039C62.2349 97.8039 59.4599 107.485 50.9379 107.485C42.4159 107.485 39.6409 97.8039 39.6409 97.8039C39.6409 97.8039 37.3468 106.828 30.1399 106.665C22.9329 106.499 20.494 97.3096 20.494 97.3096C20.494 97.3096 20.4766 105.842 12.9423 105.842C5.4081 105.842 -2.45635 78.9306 1.14711 47.7532C4.75056 16.5757 32.9236 5.41748 50.9379 5.41748C68.9523 5.41748 97.1253 16.5757 100.729 47.7532C104.332 78.9306 96.4678 105.842 88.9335 105.842Z" fill="#28282A"/>
</g>
<path d="M98.9621 40.0468C99.6219 42.4384 100.123 44.9715 100.435 47.6577C101.173 54.0178 101.428 59.8696 101.303 65.1525C101.028 65.1149 100.756 65.0745 100.496 65.0225C95.8105 64.0924 90.5058 61.1665 91.5708 51.1872C92.3146 44.2465 95.4227 41.1646 98.9621 40.0468ZM91.4348 66.6746C89.6637 62.3421 81.8789 64.9358 84.932 71.0187C87.9881 77.1045 94.0076 72.9741 91.4348 66.6746ZM22.8618 57.3885C28.9942 50.5922 20.9634 41.777 12.9528 49.434C4.94229 57.091 15.4417 65.6146 22.8618 57.3885ZM32.438 27.0059C31.5901 23.6092 25.5475 24.7097 27.1623 29.539C28.7772 34.3683 33.6767 31.945 32.438 27.0059ZM1.3335 44.9513C5.24616 45.4885 9.53794 44.544 14.0583 41.1791C24.2481 33.5914 21.1804 24.6952 16.5038 18C9.15594 24.2042 3.3506 32.9964 1.3335 44.9513Z" fill="#0E0F1A" fill-opacity="0.4"/>
<path d="M52.3975 21.8055C52.3975 20.7301 54.1029 20.7329 54.1029 21.8055C54.1029 25.4308 54.1029 29.0561 54.1029 32.6813C54.1029 33.7539 52.3975 33.7539 52.3975 32.6813C52.3975 29.0561 52.3975 25.4308 52.3975 21.8055ZM43.3631 26.1448C43.9591 28.2177 44.8472 30.2153 45.992 32.0569C46.231 32.4414 46.7562 32.5859 47.1575 32.3546C47.5528 32.132 47.7063 31.6001 47.4643 31.2156C46.3815 29.4781 45.5701 27.6568 45.0095 25.6996C44.8826 25.2689 44.4047 25 43.9591 25.1185C43.5166 25.2371 43.2392 25.7083 43.3631 26.1448ZM60.6264 25.9367C60.4465 28.3825 59.5702 30.7299 58.1539 32.7478C57.8913 33.1179 58.0831 33.6729 58.4578 33.8869C58.8798 34.1297 59.3636 33.9591 59.6262 33.5891C61.2165 31.3255 62.1312 28.6716 62.3318 25.9367C62.3643 25.4886 61.9158 25.1041 61.4791 25.1041C60.9894 25.1041 60.6589 25.4857 60.6264 25.9367Z" fill="#58585B"/>
<path d="M51.3162 57.9992C45.2325 58.0714 38.1549 53.4526 39.4997 42.5947C40.7743 32.3088 48.1213 29.426 54.1939 30.0904C61.0019 30.8356 66.5298 36.3007 65.1092 46.4076C63.7981 55.7259 56.6391 57.9356 51.3162 57.9992ZM51.3162 57.9992C45.2325 58.0714 38.1549 53.4526 39.4997 42.5947C40.7743 32.3088 48.1213 29.426 54.1939 30.0904C61.0019 30.8356 66.5298 36.3007 65.1092 46.4076C63.7981 55.7259 56.6391 57.9356 51.3162 57.9992Z" fill="white"/>
<path d="M51.5963 53.9455C51.2847 53.9114 50.9819 53.8689 50.6881 53.8122C46.886 53.0894 42.5793 50.8191 43.446 43.0697C44.3483 34.9915 49.5662 33.6423 53.8046 34.0703C58.5565 34.555 62.2131 39.0419 61.1476 46.2414C60.1681 52.8769 55.2916 54.3196 51.5963 53.9455Z" fill="#0E0F1A"/>
<path d="M88.0962 14.9443C87.8138 15.2523 87.1818 15.2901 86.9081 14.9443C86.614 14.581 86.2878 14.2439 85.9267 13.9474C85.9151 13.9416 85.8423 13.8835 85.8161 13.8632C85.7928 13.8457 85.7607 13.8225 85.7549 13.8196C85.6617 13.7527 85.5627 13.6859 85.4637 13.6219C85.2802 13.5028 85.088 13.3924 84.89 13.2935C84.7852 13.2383 84.6803 13.1918 84.5726 13.1424C84.558 13.1337 84.5464 13.1279 84.5377 13.125C84.5347 13.1221 84.5318 13.1221 84.5231 13.1192C84.4736 13.1017 84.427 13.0814 84.3775 13.0639C84.1591 12.9797 83.9348 12.9099 83.7077 12.8518C83.4951 12.7966 83.2767 12.753 83.0583 12.7181C83.0467 12.7152 83.0379 12.7152 83.0292 12.7123C83.0263 12.7123 83.0204 12.7123 83.0117 12.7123C82.9593 12.7094 82.9098 12.7007 82.8574 12.6978C82.7409 12.6861 82.6244 12.6803 82.505 12.6745C82.0332 12.6571 81.6867 12.3054 81.6634 11.8375C81.6459 11.3958 82.0653 10.9831 82.505 11.0005C84.6512 11.079 86.7538 12.0787 88.0962 13.7585C88.3904 14.1276 88.434 14.5781 88.0962 14.9443ZM55.7574 65.126C55.0585 66.5151 53.6228 67.4887 52.0386 67.4974C50.4573 67.5062 49.0071 66.5558 48.2937 65.1725C47.8481 64.3122 46.5464 65.0707 46.989 65.9281C47.9413 67.7706 49.9535 69.0087 52.0386 69C54.1237 68.9912 56.1272 67.7328 57.0591 65.8816C57.493 65.0213 56.1942 64.2599 55.7574 65.126ZM19.1639 11.0005C17.0206 11.079 14.9181 12.0787 13.5727 13.7585C13.2989 14.1015 13.2116 14.6159 13.5727 14.9443C13.8784 15.2233 14.4696 15.3105 14.7637 14.9443C15.0462 14.5897 15.3636 14.2642 15.716 13.9736C15.7568 13.9387 15.7975 13.9068 15.8412 13.8719C15.8499 13.8661 15.8645 13.8544 15.8849 13.8428C15.9781 13.776 16.0742 13.7062 16.1732 13.6452C16.3683 13.5173 16.5721 13.3982 16.7818 13.2935C16.8721 13.247 16.9682 13.2005 17.0614 13.1569C17.0934 13.1424 17.1429 13.1221 17.1516 13.1163C17.1866 13.1046 17.2215 13.0901 17.2565 13.0756C17.4749 12.9942 17.6991 12.9215 17.9263 12.8605C18.1388 12.8053 18.3543 12.7588 18.5728 12.7239C18.6048 12.7181 18.6426 12.7152 18.663 12.7123C18.7009 12.7065 18.7387 12.7036 18.7737 12.7007C18.9047 12.689 19.0358 12.6803 19.1639 12.6745C19.6036 12.66 20.0259 12.3025 20.0055 11.8375C19.9851 11.3987 19.6357 10.9831 19.1639 11.0005Z" fill="#0E0F1A"/>
</svg>
