<svg width="82" height="111" viewBox="0 0 82 111" fill="none" xmlns="http://www.w3.org/2000/svg">
<mask id="mask0_284_837" style="mask-type:luminance" maskUnits="userSpaceOnUse" x="0" y="0" width="82" height="111">
<path d="M0 0H81.6184V111H0V0Z" fill="white"/>
</mask>
<g mask="url(#mask0_284_837)">
<path d="M78.5039 64.5406C75.1207 45.9484 65.3295 35.5497 55.9624 30.3391C56.9031 28.5872 57.9544 26.6386 58.1652 26.2075C59.9148 26.8927 61.9595 27.2466 64.2913 27.2466C67.7878 27.2466 71.0288 25.9508 73.4212 23.5959C75.429 21.6248 77.7714 18.0041 77.5343 11.9636C77.3314 6.79043 74.8546 3.9621 72.8152 2.50184C70.5624 0.889565 67.5428 0.00244141 64.3071 0.00244141C63.8566 0.00244141 63.4007 0.0198852 62.9554 0.0547717C59.4405 0.331375 56.7582 1.3406 54.7478 3.14724C52.184 5.44977 50.885 8.98331 50.885 13.6482C50.885 18.652 52.437 22.3699 55.3749 24.6425C55.1614 25.0786 54.0601 27.117 53.1062 28.8962C48.4293 26.7731 44.0422 25.9059 40.8408 25.9059C37.6394 25.9059 33.2523 26.7731 28.5754 28.8962C27.6215 27.117 26.5202 25.0786 26.3067 24.6425C29.2446 22.3699 30.7966 18.652 30.7966 13.6482C30.7966 8.98331 29.4976 5.44977 26.9312 3.14724C24.9234 1.3406 22.2385 0.331375 18.7235 0.0547717C18.2782 0.0198852 17.825 0.00244141 17.3718 0.00244141C14.1388 0.00244141 11.1166 0.889565 8.86637 2.50184C6.82697 3.9621 4.35017 6.79043 4.14728 11.9636C3.91014 18.0041 6.25256 21.6248 8.25771 23.5959C10.6528 25.9508 13.8937 27.2466 17.3876 27.2466C19.7195 27.2466 21.7668 26.8927 23.5164 26.2075C23.7272 26.6386 24.7785 28.5872 25.7191 30.3391C16.3495 35.5497 6.56084 45.9484 3.17764 64.5406C-2.27132 94.476 1.26998 108.927 7.80715 109.186C14.3443 109.443 16.252 105.057 16.252 105.057C16.252 105.057 18.7024 110.992 24.9682 110.733C31.2313 110.477 33.139 105.829 33.139 105.829C33.139 105.829 33.2892 110.741 40.8408 110.741C48.3924 110.741 48.9352 105.829 48.9352 105.829C48.9352 105.829 50.4502 110.477 56.7134 110.733C62.9792 110.992 65.4296 105.057 65.4296 105.057C65.4296 105.057 67.3373 109.443 73.8744 109.186C80.4116 108.927 83.9529 94.476 78.5039 64.5406ZM17.3876 25.2007C11.2668 25.2007 5.9759 20.4561 6.30526 12.0409C6.6109 4.28106 12.6132 2.04831 17.3718 2.04831C17.7749 2.04831 18.1675 2.06575 18.547 2.09565C23.49 2.4819 28.636 4.61997 28.636 13.6482C28.636 23.0577 22.8471 25.2007 17.3876 25.2007ZM40.9251 48.2809C30.9046 48.2809 30.0957 40.2345 33.3788 38.9287C37.3364 37.3563 39.1123 40.1373 41.0885 40.1796C42.9856 40.2195 45.3675 37.8098 48.4688 38.9287C52.4923 40.3815 50.943 48.2809 40.9251 48.2809ZM53.0456 13.6482C53.0456 4.61997 58.1889 2.4819 63.1346 2.09565C63.514 2.06575 63.9066 2.04831 64.3071 2.04831C69.0684 2.04831 75.0707 4.28106 75.3763 12.0409C75.7057 20.4561 70.4122 25.2007 64.2913 25.2007C58.8345 25.2007 53.0456 23.0577 53.0456 13.6482Z" fill="#98DAF5"/>
</g>
</svg>
