<svg width="64" height="49" viewBox="0 0 64 49" fill="none" xmlns="http://www.w3.org/2000/svg">
<path d="M25.4658 53.3787C16.1783 61.9906 25.7902 69.7456 25.5185 72.729C25.3705 74.3783 13.1548 74.4115 13.0473 72.8929C12.9378 71.3742 14.9899 70.1813 19.4187 70.3971C12.6153 62.5881 19.6337 51.8497 19.6337 51.8497C19.6337 51.8497 33.129 46.273 25.4658 53.3787ZM37.7504 53.3787C47.0379 61.9906 37.428 69.7456 37.6977 72.729C37.8457 74.3783 50.0614 74.4115 50.1689 72.8929C50.2784 71.3742 48.2262 70.1813 43.7974 70.3971C50.6008 62.5881 43.5825 51.8497 43.5825 51.8497C43.5825 51.8497 30.0872 46.273 37.7504 53.3787ZM43.7609 18.9001C43.7609 18.9001 48.0377 16.9022 51.8155 9.41272C55.5934 1.9253 58.767 0.0684891 60.7035 0.887976C63.287 1.97717 62.1332 8.81729 56.8263 16.6076C51.5195 24.3958 47.5104 26.1489 47.5104 26.1489L43.7609 18.9001ZM15.7058 26.1489C15.7058 26.1489 11.6967 24.3958 6.38988 16.6076C1.08302 8.81729 -0.0708201 1.97717 2.51265 0.887976C4.44923 0.0684891 7.62281 1.9253 11.4027 9.41272C15.1806 16.9022 19.4552 18.9001 19.4552 18.9001L15.7058 26.1489Z" fill="#266753"/>
<mask id="mask0_307_1351" style="mask-type:luminance" maskUnits="userSpaceOnUse" x="0" y="0" width="64" height="59">
<path d="M0 0H63.3335V58.1815H0V0Z" fill="white"/>
</mask>
<g mask="url(#mask0_307_1351)">
<path d="M54.3523 48.9826C56.8628 56.775 47.4678 57.5218 45.7989 53.0219C46.4153 58.4347 38.1722 59.0301 37.0204 53.8725C36.414 57.1484 33.208 57.9783 31.675 57.9783C30.1439 57.9783 27.1792 57.2729 26.3296 53.8725C25.1778 59.0301 16.9346 58.4347 17.5511 53.0219C15.8821 57.5218 6.48716 56.775 8.99763 48.9826C1.42365 51.8414 -1.07262 40.8147 4.86692 37.9537C-2.39477 36.9869 0.168415 25.3502 6.32494 27.0099C0.938994 23.0287 5.96601 14.5019 11.5527 17.0309C6.73456 11.4749 15.7686 4.96676 19.0435 8.79035C16.9893 2.65975 26.5993 0.338217 27.7065 5.31116C27.0596 1.66392 29.5701 0.186768 31.675 0.186768C33.7819 0.186768 36.2924 1.66392 35.6434 5.31116C36.7506 0.338217 46.3626 2.65975 44.3064 8.79035C47.5813 4.96676 56.6154 11.4749 51.7972 17.0309C57.3859 14.5019 62.4109 23.0287 57.025 27.0099C63.1815 25.3502 65.7467 36.9869 58.483 37.9537C64.4226 40.8147 61.9263 51.8414 54.3523 48.9826ZM54.3523 48.9826C56.8628 56.775 47.4678 57.5218 45.7989 53.0219C46.4153 58.4347 38.1722 59.0301 37.0204 53.8725C36.414 57.1484 33.208 57.9783 31.675 57.9783C30.1439 57.9783 27.1792 57.2729 26.3296 53.8725C25.1778 59.0301 16.9346 58.4347 17.5511 53.0219C15.8821 57.5218 6.48716 56.775 8.99763 48.9826C1.42365 51.8414 -1.07262 40.8147 4.86692 37.9537C-2.39477 36.9869 0.168415 25.3502 6.32494 27.0099C0.938994 23.0287 5.96601 14.5019 11.5527 17.0309C6.73456 11.4749 15.7686 4.96676 19.0435 8.79035C16.9893 2.65975 26.5993 0.338217 27.7065 5.31116C27.0596 1.66392 29.5701 0.186768 31.675 0.186768C33.7819 0.186768 36.2924 1.66392 35.6434 5.31116C36.7506 0.338217 46.3626 2.65975 44.3064 8.79035C47.5813 4.96676 56.6154 11.4749 51.7972 17.0309C57.3859 14.5019 62.4109 23.0287 57.025 27.0099C63.1815 25.3502 65.7467 36.9869 58.483 37.9537C64.4226 40.8147 61.9263 51.8414 54.3523 48.9826Z" fill="#338168"/>
</g>
<path d="M35.4526 25.8668C35.4526 32.7215 38.91 34.3439 42.2316 34.6385C45.5086 34.9289 50.2294 33.4767 50.4525 27.0867C50.6756 20.6968 47.1187 17.0952 43.0083 17.0952C39.342 17.0952 35.4526 18.7217 35.4526 25.8668ZM12.7529 25.8668C12.7529 32.7215 16.3686 34.3439 19.8443 34.6385C23.2713 34.9289 28.2112 33.4767 28.4444 27.0867C28.6776 20.6968 24.9565 17.0952 20.6574 17.0952C16.8208 17.0952 12.7529 18.7217 12.7529 25.8668Z" fill="white"/>
<path d="M41.735 20.0908C44.1988 20.0908 46.3301 22.4642 46.1962 26.6758C46.0644 30.8873 43.2335 31.8458 41.2686 31.6529C39.2793 31.4599 37.2068 30.3894 37.2068 25.8729C37.2068 21.1634 39.5388 20.0908 41.735 20.0908ZM21.4809 31.9412C19.0171 31.9412 16.8858 29.5678 17.0197 25.3563C17.1535 21.1447 19.9823 20.1883 21.9473 20.3792C23.9366 20.5742 26.0091 21.6427 26.0091 26.1612C26.0091 30.8707 23.6771 31.9412 21.4809 31.9412Z" fill="#0E0F1A"/>
<path d="M17.1009 57.7146C18.634 58.1959 20.163 58.6959 21.698 59.1731C21.6007 59.5507 21.5277 59.9262 21.4811 60.2976C19.9277 59.8183 18.3825 59.31 16.8312 58.8246C16.9103 58.4449 17.0016 58.0756 17.1009 57.7146ZM21.4628 62.3992C19.7919 62.3888 18.1209 62.3784 16.45 62.3681C16.452 62.7477 16.4703 63.1274 16.5027 63.5112C18.2162 63.5216 19.9298 63.5319 21.6433 63.5402C21.5642 63.1668 21.5034 62.7851 21.4628 62.3992ZM22.7566 66.7228C20.9396 66.8908 19.1166 66.9032 17.2936 66.9219C17.4436 67.3037 17.616 67.6833 17.8127 68.0588C19.6438 68.0402 21.475 68.0132 23.3 67.8119C23.1155 67.4613 22.933 67.0983 22.7566 66.7228ZM46.1132 57.7001C44.5781 58.1814 43.0492 58.6814 41.5141 59.1586C41.6134 59.5382 41.6844 59.9137 41.7331 60.283C43.2864 59.8038 44.8316 59.2955 46.3829 58.81C46.3018 58.4304 46.2106 58.0611 46.1132 57.7001ZM46.7662 62.3681C45.0952 62.3784 43.4243 62.3888 41.7534 62.3971C41.7128 62.7851 41.652 63.1668 41.5729 63.5402C43.2864 63.5319 44.9999 63.5216 46.7135 63.5112C46.7459 63.1274 46.7642 62.7456 46.7662 62.3681ZM45.9226 66.9219C44.0975 66.9032 42.2745 66.8929 40.4576 66.729C40.2812 67.1024 40.0987 67.4655 39.9141 67.8161C41.7392 68.0153 43.5703 68.0402 45.4035 68.0588C45.6002 67.6833 45.7725 67.3037 45.9226 66.9219ZM25.3481 36.9059C25.6381 37.0801 25.7963 37.7108 25.8835 38.2751C26.4432 37.7212 27.3902 36.8789 27.6497 37.2503C27.9194 37.6403 27.6051 38.7316 27.4125 39.3042C27.8992 39.1838 28.5177 39.0946 28.8056 39.3187C29.2213 39.6423 27.9742 40.8809 27.4895 41.3373C27.4612 41.5199 27.4165 41.7025 27.3557 41.8788C27.0536 42.7502 25.7922 44.914 25.3583 45.7231C25.2407 45.941 24.9243 45.9762 24.7378 45.8476C24.5248 45.7003 24.5005 45.4285 24.6181 45.2128C24.8148 44.8435 25.7436 43.1319 25.9403 42.7626C26.1613 42.3477 26.4006 41.939 26.5425 41.4867C26.7818 40.7212 26.5831 39.8332 25.7699 39.5635C24.8939 39.2751 24.1355 39.8539 23.5677 40.4763C22.8478 41.2647 22.1928 42.1236 21.5135 42.9452C20.8139 43.7896 21.2174 43.2875 20.5178 44.1319C20.3617 44.3227 20.1143 44.4057 19.8973 44.2564C19.7128 44.1298 19.6215 43.8103 19.7777 43.6215C20.7024 42.5054 20.5239 42.7336 21.4486 41.6174C21.844 41.1382 22.2374 40.6568 22.6389 40.1817C23.0202 39.7315 23.4156 39.3042 23.9124 38.9888C23.9489 38.9639 23.9875 38.9432 24.024 38.9224C24.2511 38.2938 24.898 36.6362 25.3481 36.9059ZM39.1922 38.9224C39.2287 38.9432 39.2672 38.966 39.3037 38.9888C39.8006 39.3042 40.196 39.7315 40.5772 40.1817C40.9787 40.6568 41.3721 41.1382 41.7676 41.6174C42.6923 42.7336 42.5138 42.5054 43.4385 43.6215C43.5946 43.8103 43.5034 44.1298 43.3189 44.2564C43.1019 44.4078 42.8565 44.3227 42.6983 44.1319C42.0008 43.2875 42.4023 43.7896 41.7047 42.9452C41.0233 42.1236 40.3684 41.2647 39.6485 40.4763C39.0807 39.8539 38.3223 39.2751 37.4462 39.5635C36.6331 39.8332 36.4343 40.7212 36.6736 41.4867C36.8156 41.939 37.0549 42.3477 37.2759 42.7626C37.4726 43.1319 38.4013 44.8435 38.598 45.2128C38.7157 45.4285 38.6913 45.7003 38.4784 45.8476C38.2918 45.9762 37.9755 45.941 37.8599 45.7231C37.426 44.914 36.1626 42.7502 35.8605 41.8788C35.7996 41.7025 35.757 41.5199 35.7266 41.3373C35.242 40.8809 33.9949 39.6423 34.4106 39.3187C34.6985 39.0946 35.317 39.1838 35.8057 39.3042C35.611 38.7316 35.2967 37.6403 35.5685 37.2503C35.826 36.8789 36.773 37.7212 37.3327 38.2751C37.4199 37.7108 37.578 37.0801 37.868 36.9059C38.3182 36.6362 38.9651 38.2938 39.1922 38.9224ZM33.8184 33.1528C33.4027 33.9993 32.5551 34.5926 31.6182 34.5968C30.6814 34.6009 29.8236 34.0242 29.3998 33.1819C29.1382 32.6591 28.3676 33.1196 28.6292 33.6424C29.1929 34.7628 30.3833 35.5159 31.6182 35.5096C32.8512 35.5055 34.0374 34.7399 34.589 33.6134C34.8445 33.0906 34.076 32.6259 33.8184 33.1528ZM51.7973 17.0307C52.4381 16.7403 53.0728 16.5971 53.6852 16.5743C55.3541 13.9063 59.6085 6.79853 58.1931 5.78403C57.2177 5.08487 54.8248 8.70514 52.9065 12.0329C53.4439 13.5764 53.2573 15.3461 51.7973 17.0307ZM11.5527 17.0307C10.2448 15.5224 9.95887 13.9436 10.3016 12.5204C8.34065 9.07027 5.75718 5.05168 4.73312 5.78403C3.31972 6.79853 7.57615 13.9125 9.24507 16.5764C9.98523 16.5369 10.7639 16.6718 11.5527 17.0307Z" fill="#174441"/>
<path d="M9.94039 42.7958C10.9705 44.0447 10.7698 46.0696 8.77438 47.6795C6.77899 49.2894 5.15469 48.2355 4.42061 47.1629C3.67639 46.0779 3.30327 44.6007 5.38383 42.802C7.55159 40.9265 9.02178 41.6817 9.94039 42.7958ZM15.9245 50.4761C15.3669 51.2852 14.1664 51.6919 12.9416 50.7396C11.7147 49.7873 12.0777 48.4326 12.5806 47.8289C13.0896 47.2169 14.1989 46.6567 15.5474 47.6318C16.9527 48.6463 16.4214 49.7542 15.9245 50.4761ZM15.2939 42.3435C14.9958 42.775 14.355 42.9929 13.7 42.4846C13.045 41.9763 13.2397 41.2522 13.5074 40.9307C13.7791 40.6029 14.3712 40.3041 15.0911 40.8249C15.8414 41.3663 15.5595 41.9576 15.2939 42.3435ZM49.6536 13.3523C49.102 14.1531 47.9178 14.5535 46.7051 13.6117C45.4925 12.6718 45.8534 11.3337 46.3482 10.7362C46.8511 10.1325 47.9482 9.57853 49.2805 10.5412C50.6696 11.5453 50.1464 12.6386 49.6536 13.3523ZM40.9866 13.4353C40.6216 13.9643 39.8389 14.2278 39.0379 13.6075C38.2389 12.9851 38.4762 12.1013 38.8026 11.7071C39.1352 11.3088 39.8591 10.9416 40.7392 11.5785C41.6578 12.2403 41.3111 12.9644 40.9866 13.4353ZM55.3823 25.3521C55.0172 25.8791 54.2345 26.1446 53.4355 25.5243C52.6345 24.9019 52.8718 24.0181 53.1983 23.6239C53.5308 23.2235 54.2568 22.8584 55.1349 23.4953C56.0535 24.1571 55.7067 24.8812 55.3823 25.3521ZM30.8515 12.8669C29.8213 14.3606 27.609 15.1096 25.3459 13.3523C23.0828 11.5951 23.754 9.09721 24.6808 7.98313C25.6196 6.85452 27.6678 5.81927 30.1559 7.61799C32.7475 9.4914 31.7701 11.537 30.8515 12.8669Z" fill="#174441" fill-opacity="0.25"/>
<path d="M37.0141 32.0204C37.0141 32.0204 42.8705 26.6139 49.4305 31.1988C48.37 34.6718 40.6135 37.0203 37.0141 32.0204ZM26.8951 32.0204C26.8951 32.0204 21.059 26.8462 13.9839 31.4105C15.0444 34.8855 23.2957 37.0203 26.8951 32.0204Z" fill="#266753"/>
</svg>
