<svg width="75" height="53" viewBox="0 0 75 53" fill="none" xmlns="http://www.w3.org/2000/svg">
<path d="M59.8561 31.224C59.8561 31.224 62.3858 28.9561 64.0722 25.3818C65.7587 21.8076 68.2883 22.5921 67.8677 24.7705C69.5316 22.9172 71.049 23.6823 70.7128 25.8607C72.3561 24.1184 73.7045 25.5123 72.9045 27.0813C74.3374 25.7303 75.3722 27.9963 73.9393 31.6601C72.5045 35.3219 66.6019 41.5982 59.2664 42.0343C58.5077 34.1013 59.8561 31.224 59.8561 31.224ZM15.1671 31.224C15.1671 31.224 12.6374 28.9561 10.951 25.3818C9.26453 21.8076 6.73486 22.5921 7.15741 24.7705C6.09258 23.1586 4.28031 23.7251 4.61647 25.9055C3.72066 23.986 1.33935 25.5551 1.84453 27.2994C0.411617 26.254 -0.347097 27.9963 1.08582 31.6601C2.51874 35.3219 8.42131 41.5982 15.7568 42.0343C16.5174 34.1013 15.1671 31.224 15.1671 31.224Z" fill="#D86876"/>
<mask id="mask0_307_1328" style="mask-type:luminance" maskUnits="userSpaceOnUse" x="0" y="0" width="75" height="73">
<path d="M0 0H75V72.3333H0V0Z" fill="white"/>
</mask>
<g mask="url(#mask0_307_1328)">
<path d="M29.368 50.6663C22.0325 60.2559 30.8009 66.2733 31.3061 68.1033C31.8131 69.9352 24.0551 72.8125 23.5499 71.5919C23.0428 70.3712 24.7293 69.5867 27.0073 68.3661C17.6473 59.559 24.6448 49.9693 24.6448 49.9693C24.6448 49.9693 27.5125 49.9693 29.368 50.6663ZM45.9057 50.6663C53.2411 60.2559 44.4727 66.2733 43.9657 68.1033C43.4605 69.9352 51.2185 72.8125 51.7237 71.5919C52.2308 70.3712 50.5443 69.5867 48.2663 68.3661C57.6263 59.559 50.627 49.9693 50.627 49.9693C50.627 49.9693 47.7611 49.9693 45.9057 50.6663ZM44.422 4.71914C43.5788 4.71914 42.467 6.75738 41.6276 8.61263C40.743 6.31352 38.1758 0.0683594 36.433 0.0683594C34.2977 0.0683594 30.9098 9.53539 30.9098 9.53539C32.6451 12.329 38.9026 10.5029 41.1412 9.73785C40.7055 10.7833 40.4219 11.5756 40.4219 11.5756C41.96 14.0538 48.4128 11.5133 48.4128 11.5133C48.4128 11.5133 45.9695 4.71914 44.422 4.71914ZM7.15679 24.7706C6.09196 23.1587 4.27969 23.7252 4.61585 25.9056C3.72004 23.9861 1.33873 25.5552 1.84392 27.2995C0.641993 26.4215 -0.0866726 27.5097 0.559361 30.0463L10.5616 24.6558C8.90334 21.9342 6.76617 22.7538 7.15679 24.7706ZM72.9039 27.0814C73.7039 25.5123 72.3555 24.1185 70.7122 25.8608C71.0484 23.6824 69.531 22.9173 67.8671 24.7706C68.2558 22.7596 66.1318 21.9401 64.4772 24.6324L74.4382 30.0463C75.0373 27.3754 74.1114 25.9426 72.9039 27.0814Z" fill="#B74750"/>
</g>
<path d="M56.5564 52.015C51.7243 54.3881 23.7082 54.3881 18.8761 52.015C14.044 49.64 14.0928 14.9801 18.1925 11.3397C22.2922 7.69927 52.8304 7.69927 56.932 11.3397C61.0317 14.9801 61.3885 49.64 56.5564 52.015ZM56.5564 52.015C51.7243 54.3881 23.7082 54.3881 18.8761 52.015C14.044 49.64 14.0928 14.9801 18.1925 11.3397C22.2922 7.69927 52.8304 7.69927 56.932 11.3397C61.0317 14.9801 61.3885 49.64 56.5564 52.015Z" fill="#F4959A"/>
<path d="M37.8064 15.0444C37.8139 14.8011 37.998 14.5986 38.2384 14.5986C38.4656 14.5986 38.6759 14.803 38.6684 15.0444C38.6327 16.1774 38.5989 17.3105 38.5633 18.4435C38.5557 18.6849 38.3717 18.8893 38.1313 18.8893C37.9041 18.8893 37.6937 18.6829 37.7012 18.4435C37.7369 17.3105 37.7707 16.1774 37.8064 15.0444ZM33.5208 16.6933C33.7462 17.5655 33.9734 18.4357 34.2006 19.3078C34.2589 19.5317 34.5105 19.6913 34.7302 19.6173C34.9537 19.5434 35.0946 19.3117 35.0326 19.0703C34.8054 18.1982 34.5781 17.328 34.3509 16.4558C34.2927 16.232 34.041 16.0723 33.8213 16.1444C33.5978 16.2203 33.457 16.4519 33.5208 16.6933ZM41.523 16.4558C41.3746 17.3474 41.1511 18.2235 40.8563 19.0742C40.7812 19.2942 40.9427 19.5726 41.1568 19.6232C41.399 19.6796 41.6056 19.5473 41.6883 19.3117C41.9831 18.459 42.2047 17.5849 42.3549 16.6933C42.3925 16.4656 42.2948 16.2028 42.0545 16.1444C41.8441 16.0957 41.5643 16.2105 41.523 16.4558ZM39.2976 47.4422C39.8328 47.2826 40.0581 48.143 39.5267 48.3007C38.3247 48.657 37.0571 48.6901 35.8364 48.4136C35.6073 48.363 35.4758 48.0885 35.5359 47.8666C35.5998 47.6252 35.8383 47.5045 36.0655 47.5551C37.136 47.7965 38.2459 47.7537 39.2976 47.4422ZM39.2976 47.4422C39.8328 47.2826 40.0581 48.143 39.5267 48.3007C38.3247 48.657 37.0571 48.6901 35.8364 48.4136C35.6073 48.363 35.4758 48.0885 35.5359 47.8666C35.5998 47.6252 35.8383 47.5045 36.0655 47.5551C37.136 47.7965 38.2459 47.7537 39.2976 47.4422Z" fill="#D86876"/>
<path d="M37.3391 34.8408C33.7333 34.8836 29.5379 32.127 30.3341 25.6463C31.0891 19.5043 35.4461 17.7834 39.0443 18.1805C43.0802 18.6244 46.3573 21.8891 45.5159 27.9201C44.7384 33.4839 40.496 34.8038 37.3391 34.8408ZM37.3391 34.8408C33.7333 34.8836 29.5379 32.127 30.3341 25.6463C31.0891 19.5043 35.4461 17.7834 39.0443 18.1805C43.0802 18.6244 46.3573 21.8891 45.5159 27.9201C44.7384 33.4839 40.496 34.8038 37.3391 34.8408Z" fill="white"/>
<path d="M37.4795 32.5456C37.3048 32.5261 37.1358 32.4989 36.9724 32.4658C34.839 32.0258 32.4257 30.6436 32.9103 25.9286C33.4173 21.015 36.3414 20.1935 38.7189 20.4563C41.3838 20.7483 43.4327 23.4796 42.8355 27.8578C42.2853 31.8973 39.5528 32.7734 37.4795 32.5456ZM31.7853 38.38C29.3045 39.4546 29.9167 46.0852 37.4832 46.0852C45.0478 46.0852 46.2178 39.5753 43.1792 38.38C40.8373 37.4572 39.0382 39.441 37.6072 39.4098C36.1141 39.3748 34.7733 37.0835 31.7853 38.38Z" fill="#0E0F1A"/>
<path d="M33.2541 45.1803C33.2541 45.1803 31.7235 44.6372 31.147 43.1771C31.9639 41.3959 32.9874 40.4186 33.4043 40.5081C33.8757 40.6113 33.8832 43.4224 33.2541 45.1803ZM41.6901 45.2095C41.6901 45.2095 43.1681 44.6352 43.9756 43.3095C43.2301 41.8222 42.107 40.2901 41.538 40.5081C40.9727 40.7262 41.061 43.4497 41.6901 45.2095Z" fill="white"/>
<path d="M59.9631 26.5537C59.9199 26.5674 59.8767 26.581 59.8335 26.5946C56.4268 27.5738 52.7891 25.9094 51.6585 20.513C50.6144 15.5371 53.6586 12.9927 56.2052 11.9006C56.5113 11.7682 56.8324 11.6631 57.163 11.5833C58.6691 13.4151 59.6307 19.5708 59.9631 26.5537ZM52.5619 32.4602C53.9122 33.5815 55.7789 33.4764 56.4568 32.4426C57.0634 31.5199 56.6522 29.7737 55.2624 28.6601C53.7938 27.4862 52.406 27.5349 51.6604 28.7224C51.1477 29.5381 51.3149 31.4264 52.5619 32.4602ZM19.1841 42.1569C18.5756 39.6164 17.0356 38.5613 15.4243 38.6099C15.6478 41.9058 16.0272 44.9252 16.568 47.2749C16.6093 47.2574 16.6525 47.2418 16.692 47.2224C18.1474 46.5429 19.8677 45.0147 19.1841 42.1569ZM20.3146 36.0909C19.6573 35.3491 18.6226 35.2362 18.1662 35.7424C17.7606 36.196 17.8488 37.1947 18.5287 37.9364C19.2442 38.719 20.0123 38.8182 20.5175 38.2323C20.863 37.8293 20.9194 36.7742 20.3146 36.0909ZM24.4538 47.0141C25.3965 45.9609 25.2256 45.0576 24.6528 44.3859C24.1439 43.7863 23.3176 43.4963 22.3842 44.3879C21.3983 45.3282 21.4508 46.2918 22.1119 47.0374C22.5664 47.5514 23.6669 47.892 24.4538 47.0141ZM46.7194 15.4437C47.1889 16.4307 47.833 16.5163 48.4171 16.234C48.9392 15.9829 49.3317 15.4125 48.9655 14.4722C48.5786 13.4794 47.9251 13.2867 47.2678 13.6195C46.8189 13.8493 46.325 14.6202 46.7194 15.4437Z" fill="#B74750" fill-opacity="0.4"/>
</svg>
