<svg width="96" height="99" viewBox="0 0 96 99" fill="none" xmlns="http://www.w3.org/2000/svg">
<path d="M21.1358 36.8703C21.1358 44.8162 16.464 46.6969 11.9769 47.0393C7.54763 47.3766 1.16644 45.693 0.866144 38.2841C0.565853 30.8753 5.37052 26.6987 10.9259 26.6987C15.8807 26.6987 21.1358 28.5847 21.1358 36.8703ZM35.7259 27.0697C29.3274 27.0697 23.7951 31.8792 24.1416 40.4087C24.4881 48.9408 31.8366 49.7372 36.9358 49.3481C42.1042 48.9564 47.4806 47.9317 47.4806 38.7796C47.4806 29.241 41.4286 27.0697 35.7259 27.0697Z" fill="white"/>
<path d="M87.9389 89.8608C80.7752 89.1474 79.678 85.5675 77.9773 82.177C74.8676 75.9796 67.2246 81.3547 65.5326 75.8888C64.3776 72.1611 65.5326 57.4964 65.5326 47.6828C65.5326 37.8692 60.1966 16.0889 35.6536 16.0889C30.1213 16.0889 20.9884 18.6441 13.7467 26.1567C12.8025 25.9985 11.8468 25.9336 10.9257 25.9336C8.10183 25.9336 5.47428 26.9349 3.52239 28.7508C1.81015 30.3436 -0.187943 33.2958 0.0141764 38.3102C0.141223 41.405 1.27309 43.8227 3.3809 45.4986C3.5426 45.6283 3.70718 45.7476 3.87465 45.8643C3.62922 47.0784 2.99977 50.0305 2.84096 53.0034C1.24133 82.9215 3.9093 98.4785 36.9876 98.2373C70.0658 97.9986 91.9409 97.0414 93.809 97.0414C97.9438 97.0414 96.3557 90.6987 87.9389 89.8608ZM4.25579 44.1392C2.67349 42.7592 1.8217 40.7824 1.71775 38.2557C1.57338 34.7096 2.62151 31.7912 4.74954 29.8118C6.37516 28.2969 8.56959 27.4641 10.9257 27.4641C11.4714 27.4641 11.9912 27.4875 12.4878 27.5342C8.93341 31.6485 5.95071 37.0806 4.25579 44.1392ZM36.7854 48.9539C32.3561 49.2912 25.9778 47.6076 25.6775 40.1987C25.3772 32.7899 30.179 28.6133 35.7344 28.6133C40.6892 28.6133 45.9443 30.4993 45.9443 38.7849C45.9443 46.7308 41.2725 48.6141 36.7854 48.9539Z" fill="#634D9F"/>
<path d="M65.0242 66.4565C65.0242 66.4565 56.7171 65.0427 57.3466 56.2849C57.9761 47.5272 65.5324 47.6828 65.5324 47.6828C65.3274 57.1955 65.0242 66.4565 65.0242 66.4565ZM55.695 65.4241C53.4399 61.4395 45.1877 64.1763 47.4139 69.6655C49.6372 75.1547 59.3851 71.9457 55.695 65.4241ZM5.12767 83.2743C5.12767 83.2743 15.4473 80.7658 13.3539 72.0547C11.4367 64.0622 2.49146 65.2684 2.49146 65.2684C2.49146 77.8941 5.12767 83.2743 5.12767 83.2743ZM18.8747 77.4635C16.3337 77.4635 15.0286 79.3572 15.147 82.0732C15.3145 85.9852 22.8477 85.5572 23.1249 82.0732C23.3299 79.4817 22.2587 77.4635 18.8747 77.4635ZM68.8905 82.0914C66.6066 82.0914 65.4314 83.7957 65.5382 86.2368C65.6912 89.7545 72.4622 89.3679 72.7105 86.2368C72.8953 83.9073 71.9309 82.0914 68.8905 82.0914Z" fill="#2E2767" fill-opacity="0.35"/>
<path d="M22.5359 6.44123C22.7698 6.04174 22.8795 5.60852 22.8593 5.14676C22.8131 4.84844 22.7698 4.55011 22.7265 4.25178C22.5475 3.68107 22.2241 3.1856 21.7621 2.76794C21.508 2.59154 21.2539 2.41514 21.0027 2.24133C20.4165 1.93522 19.7871 1.78217 19.1085 1.78217C19.0739 1.78217 19.0364 1.78217 18.9988 1.78217C18.482 1.76401 18.0027 1.85999 17.5551 2.07012C17.0902 2.20761 16.6889 2.43849 16.3482 2.76794C15.9815 3.07145 15.7245 3.43204 15.5714 3.84969C15.3376 4.24919 15.2307 4.68241 15.2509 5.14676C15.2943 5.44249 15.3376 5.74082 15.3838 6.03914C15.5628 6.60985 15.8833 7.10533 16.3482 7.52558C16.6023 7.69939 16.8535 7.87579 17.1076 8.0496C17.6908 8.3557 18.3232 8.50876 18.9988 8.50876C19.0364 8.50876 19.0739 8.50876 19.1085 8.50876C19.6254 8.52692 20.1076 8.43093 20.5551 8.22081C20.5753 8.21303 20.5927 8.20524 20.6129 8.19746C23.5176 10.9109 25.6225 14.1951 26.7602 17.7672C27.4589 17.5363 28.2183 17.3236 29.0008 17.0642C27.7592 13.2275 25.5128 9.69428 22.3886 6.7655C22.4464 6.66174 22.4955 6.55538 22.5359 6.44123ZM18.9584 6.47236C18.0402 6.47236 17.2924 5.80308 17.2924 4.97814C17.2924 4.15321 18.0402 3.48392 18.9584 3.48392C19.8795 3.48392 20.6244 4.15321 20.6244 4.97814C20.6244 5.80308 19.8795 6.47236 18.9584 6.47236ZM40.5418 6.13513C43.0452 4.49304 42.3291 0 38.382 0C33.6005 0 33.5514 6.59948 38.2492 6.72399C39.1154 9.24549 39.615 11.8267 39.6496 14.4727C39.6872 17.0927 39.511 20.1538 38.1857 22.543C37.5043 23.7726 39.563 24.857 40.2473 23.6222C41.6852 21.0306 42.0144 17.8917 42.0375 15.0304C42.0635 12.0108 41.5351 9.01461 40.5418 6.13513ZM38.3994 4.97814C37.4667 4.97814 36.7102 4.29848 36.7102 3.46317C36.7102 2.62526 37.4667 1.9456 38.3994 1.9456C39.332 1.9456 40.0885 2.62526 40.0885 3.46317C40.0885 4.29848 39.332 4.97814 38.3994 4.97814Z" fill="#1A1448"/>
<path d="M40.695 41.5893C39.7941 46.6141 31.5361 47.3742 30.7854 41.5893C30.0346 35.8069 32.7373 33.3711 35.8903 33.3711C40.0944 33.3711 41.5959 36.567 40.695 41.5893ZM5.11334 41.0419C6.36648 37.0625 8.05273 33.6616 10.0104 30.7717C9.84004 30.7588 9.66391 30.751 9.482 30.751C6.32894 30.751 3.62632 33.1869 4.37705 38.9692C4.48388 39.7915 4.74664 40.4764 5.11334 41.0419Z" fill="#0E0F1A"/>
<path d="M52.9146 83.6582C52.8972 83.7127 52.877 83.7646 52.8539 83.8165C53.7057 84.0888 54.494 84.2289 54.4738 84.8437C54.4593 85.2873 53.6999 85.8736 52.7384 85.8347C52.2389 85.8139 51.6961 85.6739 51.2312 85.5156C51.6932 85.8918 52.0252 86.2264 51.8058 86.6493C51.5979 87.0539 50.6422 87.3263 49.7759 86.9528C49.2533 86.7271 48.7509 86.3328 48.3669 85.9852C45.7162 85.8088 43.2648 84.1018 41.7316 82.247C40.6777 80.9733 39.9298 79.518 39.2917 78.0445C38.6103 76.4673 38.0646 74.8433 37.6546 73.1909C36.8316 69.8704 36.5545 66.4461 36.8461 63.053C36.875 62.7054 37.1493 62.4097 37.5622 62.4097C37.9289 62.4097 38.3071 62.708 38.2782 63.053C37.9722 66.5966 38.2869 70.1687 39.2369 73.6215C39.6555 75.1469 40.1926 76.6463 40.8509 78.1016C41.4544 79.4427 42.2051 80.7787 43.2302 81.902C44.1801 82.9396 45.3871 83.8476 46.8019 84.3249C48.0117 84.7348 49.5161 84.9371 50.6855 84.3067C52.0021 83.5985 51.6528 82.1666 51.1099 81.116C50.7663 80.4467 50.339 79.8163 49.955 79.1652C49.5421 78.4648 49.1667 77.7488 48.8231 77.0198C47.466 74.1507 46.6546 71.1078 46.3977 68C46.3688 67.6524 46.747 67.3567 47.1137 67.3567C47.5209 67.3567 47.8009 67.655 47.8298 68C48.1301 71.6629 49.2793 75.2688 51.1908 78.5166C51.7567 79.4765 52.4699 80.4674 52.825 81.5336C52.9174 81.5492 52.9983 81.5596 53.0647 81.5622C54.1099 81.6011 55.0974 81.3702 55.3429 82.0291C55.4988 82.4493 55.0137 83.238 54.0955 83.4974C53.7288 83.6011 53.313 83.6452 52.9146 83.6582ZM14.6938 42.5879C14.4311 43.4102 13.6341 44.2066 12.6986 44.2404C12.4792 44.2481 12.2915 44.2144 12.1413 44.1522C11.8872 44.0432 11.7631 43.9498 11.5841 43.7553C11.3098 43.4647 11.1683 43.0548 11.1798 42.6631C11.2 42.0016 10.0537 42.0016 10.0335 42.6631C9.9931 43.955 11.1192 45.278 12.6322 45.2702C14.1654 45.2624 15.3983 44.1184 15.7997 42.8603C16.0047 42.2247 14.8988 41.9523 14.6938 42.5879Z" fill="#2E2767"/>
</svg>
