<svg width="112" height="92" viewBox="0 0 112 92" fill="none" xmlns="http://www.w3.org/2000/svg">
<path d="M83.4587 21.9216C83.4587 31.5646 89.0004 33.847 94.3278 34.2617C99.5837 34.6684 107.158 32.6242 107.512 23.6367C107.869 14.6464 102.167 9.58143 95.5718 9.58143C89.6939 9.57876 83.4587 11.8691 83.4587 21.9216ZM52.4736 13.3059C52.4736 22.949 58.2742 25.2313 63.8456 25.6461C69.3456 26.0528 77.2653 24.0086 77.6373 15.021C78.0093 6.03084 72.0451 0.96582 65.1522 0.96582C59.0004 0.96582 52.4736 3.25351 52.4736 13.3059ZM21.7087 21.5443C21.7087 31.19 27.5093 33.4697 33.0808 33.8844C38.5778 34.2938 46.5004 32.2496 46.8724 23.2621C47.2445 14.2692 41.2802 9.20417 34.3843 9.20417C28.2326 9.20417 21.7087 11.4945 21.7087 21.5443Z" fill="white"/>
<mask id="mask0_289_856" style="mask-type:luminance" maskUnits="userSpaceOnUse" x="0" y="0" width="112" height="92">
<path d="M0 0H112V91.9115H0V0Z" fill="white"/>
</mask>
<g mask="url(#mask0_289_856)">
<path d="M3.42554 91.898C9.60411 91.898 60.1904 91.898 80.6607 91.898C101.125 91.898 117.815 90.6886 109.622 64.3227C105.934 52.4455 97.8898 43.4874 88.8184 37.7026C89.4613 36.6859 90.0654 35.6451 90.6309 34.5855C91.7232 34.8718 92.9136 35.0671 94.2202 35.1634C94.6785 35.1982 95.1458 35.2143 95.6071 35.2143C98.9315 35.2143 102.039 34.35 104.351 32.7794C106.449 31.356 108.997 28.5974 109.205 23.5564C109.446 17.6727 107.039 14.1435 104.979 12.2197C102.518 9.92397 99.1874 8.66106 95.5952 8.66106C86.7053 8.66106 81.8124 13.3702 81.8124 21.9136C81.8124 26.4595 83.1517 29.9031 85.7827 32.1506C86.3333 32.6189 86.9345 33.0256 87.5892 33.3868C87.1041 34.2858 86.5863 35.1741 86.0386 36.041C79.6874 32.5119 73.0089 30.4917 67.0744 30.0663C67.0744 28.889 67.0744 27.7091 67.0744 26.5318C69.7976 26.3043 72.3035 25.4856 74.2499 24.1638C76.3452 22.7404 78.8928 19.9844 79.1011 14.9408C79.3452 9.05706 76.9345 5.52787 74.8749 3.60407C72.4077 1.31906 69.0744 0.0561523 65.4821 0.0561523C61.6279 0.0561523 58.3065 0.965875 55.8809 2.689C52.6577 4.97668 51.0178 8.55939 51.0178 13.3328C51.0178 17.8814 52.491 21.3383 55.4017 23.6126C57.4791 25.2368 60.2886 26.208 63.738 26.5157C63.738 27.6796 63.738 28.8435 63.738 30.0074C56.6249 30.1733 50.1875 31.9981 44.5029 34.8718C44.1339 34.1413 43.7619 33.4136 43.3869 32.6831C46.4077 30.4677 48.0029 26.8448 48.0029 21.9698C48.0029 17.4265 46.6636 13.9803 44.0297 11.7354C41.9672 9.97748 39.2083 8.99017 35.5952 8.7226C35.1369 8.68782 34.6666 8.67176 34.2053 8.67176C30.8839 8.67176 27.7767 9.536 25.4613 11.1066C23.366 12.5301 20.8184 15.2887 20.6101 20.3296C20.366 26.2134 22.7767 29.7426 24.8363 31.6664C27.2976 33.9621 30.6279 35.225 34.2202 35.225C36.619 35.225 38.7202 34.8798 40.5208 34.2136C40.9047 34.9547 41.2797 35.6932 41.6517 36.437C23.3452 47.2627 13.6964 68.7483 15.3988 77.1632C-0.2441 79.7613 -2.75303 91.898 3.42554 91.898ZM34.2202 33.2263C27.9285 33.2263 22.488 28.6027 22.8303 20.4018C23.1428 12.8378 29.3124 10.6651 34.2053 10.6651C34.619 10.6651 35.0208 10.6812 35.4107 10.7106C40.497 11.0879 45.7827 13.1695 45.7827 21.9698C45.7827 31.1366 39.8303 33.2263 34.2202 33.2263ZM90.9077 32.5814C90.0952 32.3005 89.6964 32.1239 88.8749 31.768C86.0892 30.2884 84.0267 27.4121 84.0267 21.9216C84.0267 12.7495 89.9761 10.6598 95.5892 10.6598C101.884 10.6598 107.321 15.286 106.982 23.4869C106.667 31.051 100.5 33.2236 95.6041 33.2236C95.1934 33.2236 94.7886 33.2075 94.3988 33.1781C93.2232 33.0952 92.0386 32.9132 90.9077 32.5814ZM65.497 24.6133C65.0863 24.6133 64.6815 24.5973 64.2916 24.5678C59.2083 24.1906 53.241 22.1303 53.241 13.3328C53.241 4.16061 59.869 2.05219 65.4821 2.05219C71.7767 2.05219 77.2142 6.67573 76.8749 14.8766C76.5595 22.438 70.3928 24.6133 65.497 24.6133Z" fill="#5DB046"/>
</g>
<path d="M93.7205 13.793C97.6699 13.793 101.087 17.1322 100.875 23.0588C100.664 28.9854 96.1253 30.3312 92.9705 30.0637C89.78 29.7907 86.4556 28.287 86.4556 21.9297C86.4616 15.3021 90.1967 13.793 93.7205 13.793ZM35.8931 30.0958C31.9407 30.0958 28.5241 26.7565 28.7354 20.8326C28.9497 14.9061 33.4884 13.5602 36.6401 13.8305C39.8306 14.1034 43.155 15.6071 43.155 21.9618C43.155 28.5867 39.4169 30.0958 35.8931 30.0958ZM65.3515 21.5149C65.0806 21.5149 64.8098 21.5069 64.5538 21.4828C61.1967 21.2099 57.2562 19.7142 57.2562 13.3328C57.2562 6.67575 61.6342 5.14795 65.3366 5.14795C69.4913 5.14795 73.0836 8.50055 72.8604 14.4539C72.658 19.939 68.5806 21.5149 65.3515 21.5149Z" fill="#0E0F1A"/>
<path d="M70.5983 34.4785C70.8453 34.2083 71.3572 34.2538 71.6131 34.4785C71.9048 34.7434 71.8542 35.118 71.6131 35.3883C70.1012 37.0498 67.6756 38.0345 65.2917 37.9087C62.8929 37.783 60.7024 36.6351 59.3393 34.8745C58.8155 34.1922 60.0536 33.5501 60.5745 34.2243C61.6637 35.6291 63.5149 36.5655 65.4227 36.6271C67.4286 36.6966 69.3364 35.8699 70.5983 34.4785ZM79.634 64.1596C79.4346 66.4446 79.3691 68.7457 79.5596 71.0307C79.7262 73.0695 79.9941 75.3813 81.1637 77.182C81.7798 78.1292 82.7143 78.9479 83.9137 79.2503C85.0625 79.5393 86.2143 79.2423 87.0864 78.5332C88.4316 77.4415 88.8185 75.6435 89.1548 74.1211C89.6012 72.1063 89.9137 70.0246 89.8989 67.967C89.8899 67.1403 88.4614 67.1376 88.4673 67.967C88.4792 69.5778 88.2739 71.1939 87.9762 72.7805C87.8274 73.5939 87.6429 74.4073 87.4108 75.2047C87.2501 75.7559 87.0715 76.3178 86.8066 76.7646C86.378 77.4897 85.6221 78.1666 84.6399 78.073C83.637 77.9794 82.878 77.2757 82.3959 76.5345C81.878 75.7398 81.6191 74.8221 81.4167 73.9284C81.2054 73.016 81.0745 72.0929 80.9971 71.1645C80.7917 68.834 80.8572 66.4847 81.0625 64.1596C81.1399 63.3328 79.7054 63.3355 79.634 64.1596ZM46.7649 64.1596C46.9435 66.2198 47.012 68.2881 46.8899 70.3511C46.7798 72.1866 46.5745 74.1425 45.8006 75.8629C45.4227 76.7084 44.7679 77.5753 43.7977 77.9312C42.8721 78.2737 41.9911 77.9606 41.387 77.2783C40.9286 76.7646 40.762 76.275 40.5536 75.6542C40.3125 74.9318 40.134 74.196 39.9822 73.4521C39.6012 71.6541 39.3483 69.8025 39.3572 67.967C39.3661 67.1403 37.9346 67.1376 37.9286 67.967C37.9167 69.8052 38.1756 71.6541 38.5328 73.4575C38.8304 74.9559 39.134 76.7164 40.1786 77.9606C40.8929 78.8115 41.9554 79.4296 43.1875 79.3546C44.375 79.2824 45.4227 78.6777 46.1489 77.8509C47.6131 76.1893 47.9643 73.8722 48.1965 71.8307C48.4852 69.2835 48.4197 66.7041 48.1995 64.1569C48.125 63.3408 46.6935 63.3328 46.7649 64.1596Z" fill="#1F7847"/>
<path d="M22.3245 55.5412C25.7858 50.0775 30.4584 44.6058 36.2203 40.1294C38.631 43.2867 39.3393 48.2366 35.5507 52.8816C31.7084 57.6014 26.0477 57.0824 22.3245 55.5412ZM32.3959 63.0705C32.3959 60.2584 30.256 58.9232 28.1995 58.7787C26.1697 58.6369 23.0566 59.9373 22.9197 63.0598C22.7828 66.1823 25.1727 67.3569 27.7173 67.3569C29.9882 67.3595 32.3959 66.2197 32.3959 63.0705ZM53.9911 47.5517C53.9911 46.1148 52.8959 45.4352 51.8483 45.3603C50.8096 45.2854 49.2233 45.9516 49.1518 47.549C49.0804 49.1464 50.3036 49.743 51.6012 49.743C52.762 49.743 53.9911 49.1624 53.9911 47.5517ZM107.756 77.7331C109.229 77.8829 110.542 77.816 111.702 77.5725C111.932 74.0754 111.298 69.7302 109.619 64.3254C108.821 61.7621 107.819 59.3326 106.649 57.0422C101.536 57.7887 98.7798 61.6336 98.1697 65.4786C97.4733 69.9121 100.119 76.9464 107.756 77.7331ZM94.8423 56.9967C94.2054 56.0041 93.1518 55.9184 92.387 56.2449C91.637 56.566 90.8334 57.5907 91.4911 58.7225C92.1489 59.8517 93.259 59.8303 94.1608 59.3647C94.9643 58.95 95.5536 58.1071 94.8423 56.9967Z" fill="#1F7847" fill-opacity="0.4"/>
</svg>
