<svg width="91" height="98" viewBox="0 0 91 98" fill="none" xmlns="http://www.w3.org/2000/svg">
<path d="M90.8844 63.3339C88.9961 93.2175 65.4615 97.2405 49.0168 97.2405C32.5693 97.2405 8.59962 93.5469 6.7309 63.3339C4.63069 29.3522 33.1634 16.6329 48.9164 16.5693C48.9359 16.5693 48.9555 16.5693 48.975 16.5693C48.9945 16.5693 49.0168 16.5693 49.0363 16.5693C64.7865 16.6329 93.032 29.3551 90.8844 63.3339ZM90.8844 63.3339C88.9961 93.2175 65.4615 97.2405 49.0168 97.2405C32.5693 97.2405 8.59962 93.5469 6.7309 63.3339C4.63069 29.3522 33.1634 16.6329 48.9164 16.5693C48.9359 16.5693 48.9555 16.5693 48.975 16.5693C48.9945 16.5693 49.0168 16.5693 49.0363 16.5693C64.7865 16.6329 93.032 29.3551 90.8844 63.3339Z" fill="#F89B38"/>
<path d="M83.6796 59.268C81.1889 56.5022 85.3865 52.1035 87.4449 56.2334C88.8785 59.1119 86.2958 62.1697 83.6796 59.268ZM18.8297 29.318C13.5136 34.5028 9.28529 41.4275 7.51978 50.3607C10.5237 51.4127 14.7269 51.5428 19.2871 47.592C26.3519 41.4708 22.6089 33.0346 18.8297 29.318ZM60.0362 90.2353C53.875 90.3047 51.3592 93.8884 51.5963 97.2062C56.3908 97.0733 61.6288 96.5357 66.6743 95.1138C66.3452 92.4752 64.0191 90.192 60.0362 90.2353ZM80.7371 72.6318C78.1934 78.4784 80.5781 83.5217 82.2627 86.0505C86.6779 81.2847 89.8436 74.5566 90.7417 65.0944C90.6887 65.0886 84.3769 64.2679 80.7371 72.6318ZM22.9018 49.4157C18.5759 54.8837 27.0325 58.3056 29.2582 53.037C31.5927 47.5053 25.914 45.6094 22.9018 49.4157ZM39.8848 24.4713C37.5893 26.8354 33.5702 24.6331 36.4988 21.8413C38.5376 19.8963 42.9193 21.3413 39.8848 24.4713ZM71.7645 34.5866C70.1161 32.7572 72.8941 29.8469 74.2551 32.5809C75.2035 34.4826 73.4937 36.5056 71.7645 34.5866ZM11.868 56.3721C10.0216 57.1178 8.88087 53.9618 11.2767 53.7335C12.9446 53.5716 13.812 55.5889 11.868 56.3721Z" fill="#BC5E28" fill-opacity="0.3"/>
<path d="M57.5875 60.652C51.7554 60.7214 44.9695 56.2504 46.258 45.7478C47.4797 35.7943 54.525 33.0054 60.3459 33.6499C66.8724 34.3695 72.169 39.6584 70.8079 49.4356C69.5528 58.4498 62.6888 60.5913 57.5875 60.652ZM57.5875 60.652C51.7554 60.7214 44.9695 56.2504 46.258 45.7478C47.4797 35.7943 54.525 33.0054 60.3459 33.6499C66.8724 34.3695 72.169 39.6584 70.8079 49.4356C69.5528 58.4498 62.6888 60.5913 57.5875 60.652Z" fill="white"/>
<path d="M54.6784 56.5914C51.1613 56.5885 47.1478 52.9758 47.792 46.1437C48.4921 38.7104 53.0021 37.1208 56.8623 37.3376C61.336 37.5861 64.563 42.2507 63.5227 49.3343C62.5605 55.8688 57.8413 56.5942 54.6784 56.5914Z" fill="#0E0F1A"/>
<path d="M63.7377 19.4913C63.6568 27.2281 58.4132 28.7945 53.5685 28.465C48.721 28.1356 42.8025 25.6241 44.2222 21.5837C45.8845 17.789 46.0184 15.1301 45.957 13.9163C45.4996 8.88755 43.1484 2.97153 44.8023 0.538073C46.5009 -1.95897 63.919 4.21427 63.7377 19.4913ZM31.8524 26.9506C29.8693 25.3235 27.9978 23.153 27.9978 23.153V23.1473C24.5505 19.1878 22.4754 11.6274 19.3432 10.8152C16.4843 10.0754 7.18818 26.5402 16.9613 37.9821C19.0754 41.0398 26.7399 45.3721 31.8524 37.3983C36.5465 30.0719 31.8524 26.9506 31.8524 26.9506ZM82.7707 33.6643C87.646 22.8207 80.1573 10.165 77.6415 10.8152C74.7073 11.5753 72.6991 18.2601 69.6227 22.3554C74.4619 25.0634 79.0751 28.7829 82.7707 33.6643ZM46.5427 44.0022H70.8555C70.8555 44.0022 70.1527 33.4042 58.8456 33.4042C47.6082 33.4042 46.5427 44.0022 46.5427 44.0022Z" fill="#D27628"/>
<path d="M41.8375 67.36C41.8263 66.5479 43.0452 66.5508 43.0563 67.36C43.0786 69.2097 43.2069 71.0535 43.2655 72.9003C43.3296 74.9031 43.3575 76.9146 43.2237 78.9175C43.1121 80.6053 42.9252 82.3711 42.2586 83.9347C42.0188 84.4925 41.6896 85.0329 41.2266 85.4202C40.362 86.1398 39.1962 86.345 38.1279 86.1022C36.9927 85.8479 36.0779 85.0416 35.6233 83.9405C35.1073 82.6977 35.1715 81.3278 34.9567 80.0157C34.9009 79.6776 35.0376 79.3365 35.3806 79.2383C35.6763 79.1545 36.0751 79.3423 36.1309 79.6805C36.3457 80.9897 36.2174 82.5214 36.8644 83.7092C37.3637 84.6341 38.4152 85.082 39.4137 84.9086C39.6396 84.8711 39.8628 84.8017 40.0664 84.6977C40.1724 84.6456 40.27 84.5792 40.3676 84.5156C40.5098 84.4289 40.3732 84.5271 40.4401 84.4665C40.5322 84.3797 40.6214 84.2902 40.7051 84.1919C40.7274 84.163 40.8194 84.0358 40.7553 84.1283C40.7915 84.0763 40.8278 84.0214 40.8641 83.9665C41.2015 83.426 41.3549 82.9492 41.5223 82.2989C41.9379 80.6775 42.0327 78.9753 42.0801 77.3077C42.1694 73.9841 41.8821 70.6807 41.8375 67.36ZM75.848 65.0942C75.8927 68.4207 76.1827 71.7356 76.0823 75.065C76.0349 76.7268 75.9317 78.4233 75.5078 80.0331C75.3376 80.6891 75.1759 81.1833 74.8216 81.7382C74.7854 81.796 74.7463 81.8509 74.7073 81.9058C74.7686 81.822 74.6906 81.9261 74.6682 81.9521C74.5762 82.059 74.4842 82.1659 74.3754 82.2555C74.1188 82.4694 73.7395 82.6283 73.3908 82.6804C72.3756 82.8335 71.3324 82.3278 70.8443 81.3914C70.2307 80.2065 70.3535 78.7065 70.1415 77.4146C70.0857 77.0765 69.6869 76.8886 69.3912 76.9724C69.0481 77.0707 68.9115 77.4117 68.9673 77.7499C69.1765 79.0331 69.1151 80.377 69.6032 81.5995C70.0467 82.7122 70.9308 83.533 72.0632 83.8364C73.1258 84.1168 74.2917 83.9318 75.1591 83.2122C75.6361 82.8162 75.9791 82.2642 76.2301 81.692C76.9107 80.1198 77.1087 78.3452 77.2259 76.643C77.3625 74.6546 77.3402 72.6575 77.2761 70.6634C77.2175 68.8079 77.0892 66.9525 77.0669 65.0942C77.0557 64.2849 75.8369 64.282 75.848 65.0942ZM6.873 65.0999L6.86742 65.0942C6.86742 65.0942 -2.822 69.5016 0.817809 80.8625C3.58462 89.4952 11.8404 89.4316 16.6991 87.4346C12.1779 83.1659 8.34844 74.6893 6.873 65.0999ZM29.1999 26.3669C29.2027 25.5519 30.4216 25.5519 30.416 26.3669C30.4104 27.9854 30.059 29.5663 29.3868 31.0287C28.3269 33.3378 26.4694 35.228 24.3441 36.4938C22.5618 37.5545 20.3779 38.3493 18.2945 38.1065C17.9681 38.0689 17.6864 37.8493 17.6864 37.4764C17.6864 37.1614 17.9681 36.8059 18.2945 36.8464C19.3153 36.962 20.2385 36.8175 21.2119 36.5256C25.5518 35.2222 29.1748 31.1847 29.1999 26.3669ZM25.2226 22.7717C24.6481 23.8872 23.697 24.8323 22.6343 25.5548C21.1449 26.5692 19.4129 27.0952 17.6279 26.9739C16.3365 26.8871 15.0898 26.4421 13.9518 25.8207C13.2601 25.4421 12.6437 26.5317 13.3382 26.9103C15.4691 28.075 17.8733 28.5836 20.2441 27.9998C22.0012 27.5692 23.6328 26.5721 24.9075 25.2514C25.4318 24.708 25.9227 24.0924 26.2741 23.4075C26.6423 22.6907 25.5908 22.0549 25.2226 22.7717ZM15.4077 16.3557C16.4257 17.4308 17.9151 18.0377 19.3711 17.8816C20.8381 17.7284 22.1295 16.9134 22.9746 15.6707C23.1643 15.3904 23.0248 14.9684 22.7571 14.8066C22.453 14.6216 22.1128 14.7545 21.9231 15.032C20.5983 16.9828 17.8594 17.1418 16.2696 15.4626C15.7201 14.8817 14.8583 15.7747 15.4077 16.3557ZM46.3837 20.2053C48.5174 21.8179 51.2117 22.63 53.8307 22.7717C56.0759 22.893 58.4495 22.4537 60.4437 21.3526C61.5091 20.763 62.4742 19.9249 63.0711 18.8238C63.456 18.1128 62.4045 17.477 62.0196 18.1851C61.0573 19.9625 59.0268 20.8093 57.1972 21.2283C55.0272 21.7254 52.7597 21.5838 50.6316 20.9365C49.3318 20.5405 48.0963 19.9452 46.9973 19.1157C46.7324 18.9163 46.3196 19.0695 46.1634 19.3411C45.9849 19.6619 46.116 20.003 46.3837 20.2053ZM46.8662 13.3875C49.2593 14.5551 51.9341 15.0233 54.5224 14.3095C56.2461 13.8355 57.9809 12.85 59.1077 11.3876C59.5121 10.8616 59.9389 10.1998 59.911 9.49458C59.8775 8.68535 58.6587 8.67957 58.6921 9.49458C58.6949 9.53793 58.6921 9.57839 58.6893 9.62174C58.6838 9.72579 58.7312 9.48013 58.6893 9.61018C58.6726 9.65931 58.6642 9.71134 58.6503 9.76047C58.6391 9.80671 58.5638 9.983 58.6308 9.82694C58.5248 10.0697 58.3881 10.2951 58.2375 10.5061C58.1789 10.587 58.2905 10.4396 58.2291 10.5177C58.2096 10.5408 58.1929 10.5639 58.1734 10.587C58.1204 10.6506 58.0702 10.7142 58.0144 10.7778C57.9 10.9078 57.7801 11.035 57.6574 11.1564C57.384 11.4223 57.1246 11.6361 56.829 11.8471C55.2782 12.9453 53.4151 13.4685 51.5408 13.3875C50.1323 13.3268 48.7517 12.9164 47.4799 12.2951C46.777 11.9512 46.1578 13.0407 46.8662 13.3875ZM45.9877 7.35302C47.0336 7.56978 48.1046 7.26921 49.0557 6.81546C50.0626 6.33282 51.0193 5.56694 51.591 4.56697C51.9174 3.99762 52.1014 3.34157 52.0819 2.67685C52.0568 1.86763 50.8407 1.86474 50.8631 2.67685C50.8659 2.76066 50.8659 2.84159 50.8631 2.9254C50.8603 2.96586 50.8575 3.00632 50.8519 3.04678C50.8631 2.98031 50.8631 2.9832 50.8519 3.06123C50.8268 3.19996 50.7933 3.33579 50.7515 3.47163C50.6818 3.67971 50.5786 3.88491 50.4084 4.14213C50.3861 4.17681 50.361 4.2086 50.3387 4.24328C50.3722 4.19993 50.3666 4.2086 50.3192 4.2664C50.2829 4.31842 50.2411 4.36467 50.1992 4.4138C50.0905 4.54385 49.9705 4.66812 49.8478 4.78373C49.6135 5.00626 49.4824 5.10742 49.2035 5.29238C48.6597 5.65365 48.2218 5.85884 47.6221 6.02358C47.3404 6.10161 47.1145 6.14207 46.9443 6.15652C46.8216 6.16519 46.6989 6.16808 46.579 6.16519C46.512 6.1623 46.4479 6.15652 46.3809 6.15074C46.5455 6.1623 46.3447 6.14207 46.3112 6.13629C45.9877 6.06982 45.653 6.23166 45.5609 6.57558C45.4801 6.88771 45.6613 7.28655 45.9877 7.35302ZM71.5137 21.8902C71.6114 21.8208 71.7173 21.7659 71.8233 21.711C71.9126 21.6619 71.7954 21.7226 71.7843 21.7254C71.8205 21.711 71.8568 21.6965 71.8931 21.6821C71.9656 21.6561 72.0381 21.633 72.1134 21.6098C72.2501 21.5694 72.3895 21.5405 72.529 21.5145C72.568 21.5058 72.6071 21.5 72.6461 21.4942C72.7437 21.4798 72.4927 21.5116 72.6545 21.4942C72.7465 21.4856 72.8386 21.4769 72.9306 21.4711C73.3127 21.4451 73.6948 21.4596 74.0742 21.5C74.116 21.5058 74.155 21.5087 74.1941 21.5145C74.3865 21.5405 74.1299 21.5029 74.2443 21.5231C74.3363 21.5376 74.4284 21.552 74.5204 21.5694C74.7547 21.6127 74.9862 21.6676 75.2177 21.7312C77.1868 22.2746 78.944 23.5375 80.2325 25.2109C81.2032 26.4681 81.8753 27.9507 82.3272 29.4853C82.5559 30.2599 83.7301 29.9275 83.5014 29.1472C82.6758 26.3409 81.1334 23.7976 78.7961 22.0925C77.1812 20.9191 75.1591 20.1503 73.1705 20.1966C72.4007 20.2168 71.55 20.3469 70.8973 20.8006C70.2503 21.2515 70.8583 22.3439 71.5137 21.8902ZM75.0671 15.3152C77.1701 14.0205 79.9564 15.6042 81.0191 17.6186C81.3956 18.3296 82.4499 17.6938 82.0706 16.9799C80.6872 14.3615 77.1227 12.5841 74.4535 14.2257C73.7785 14.6389 74.3921 15.7314 75.0671 15.3152Z" fill="#BC5E28"/>
</svg>
