<svg width="101" height="94" viewBox="0 0 101 94" fill="none" xmlns="http://www.w3.org/2000/svg">
<path d="M47.2228 12.4552C45.9889 8.92763 44.0244 5.52093 41.0648 3.03734C40.524 2.58403 39.8654 2.09775 39.1377 1.64993C39.0255 1.55378 38.9076 1.48235 38.781 1.43839C36.5951 0.174614 33.8828 -0.657829 31.7889 0.688366C28.8063 2.60601 32.2721 6.27645 34.6047 6.92482C36.7389 7.52099 38.968 6.53744 39.7043 4.91652C40.199 5.35334 40.665 5.82039 41.0935 6.30667C45.9831 11.8123 47.3953 20.373 46.9179 27.3458C46.8172 28.8046 49.2016 28.7964 49.3023 27.3458C49.6417 22.3648 48.8766 17.1916 47.2228 12.4552ZM50.5793 29.4337C50.68 30.8871 53.0615 30.8926 52.9637 29.4337C52.4863 22.461 53.8985 13.9003 58.7852 8.39464C59.2167 7.90836 59.6826 7.44132 60.1744 7.00449C60.9136 8.62542 63.1427 9.60897 65.2769 9.01279C67.6066 8.36442 71.0754 4.69398 68.0927 2.77634C65.9988 1.43015 63.2865 2.26534 61.1006 3.52636C60.974 3.57032 60.8532 3.64175 60.7439 3.73791C60.0163 4.18572 59.3576 4.672 58.8169 5.12531C55.8543 7.6089 53.8928 11.0156 52.6589 14.5432C51.005 19.2796 50.2399 24.4528 50.5793 29.4337Z" fill="#9F2A22"/>
<mask id="mask0_289_821" style="mask-type:luminance" maskUnits="userSpaceOnUse" x="32" y="78" width="36" height="16">
<path d="M32.6221 78.2539H67.9652V93.7736H32.6221V78.2539Z" fill="white"/>
</mask>
<g mask="url(#mask0_289_821)">
<path d="M41.5217 78.5615C41.5217 78.5615 41.3664 93.7763 36.7673 93.7763C32.1711 93.7763 33.3187 78.5615 33.3187 78.5615H41.5217ZM59.4809 78.5615C59.4809 78.5615 59.6333 93.7763 64.2324 93.7763C68.8287 93.7763 67.681 78.5615 67.681 78.5615H59.4809Z" fill="#C13E27"/>
</g>
<path d="M88.0276 51.3245C88.3383 52.102 88.6259 52.896 88.8905 53.7092C96.0868 75.773 83.5637 79.5754 73.7069 80.5891C63.8472 81.6029 50.5014 81.6029 50.5014 81.6029C50.5014 81.6029 37.1529 81.6029 27.296 80.5891C17.4363 79.5754 4.91605 75.773 12.1095 53.7092C12.3741 52.896 12.6617 52.102 12.9724 51.3245C0.975615 46.6128 -1.91787 39.4423 1.11655 37.7829C3.73967 36.3515 13.1622 42.3572 16.4727 44.5688C18.0489 42.1374 19.8351 39.9505 21.7593 37.9999C20.9654 37.4779 20.2464 36.8763 19.628 36.1977C17.9914 34.4119 16.1966 31.214 16.9358 26.1287C17.4938 22.2934 19.2886 19.2109 22.1274 17.2218C25.1187 15.1256 28.5098 14.686 30.828 14.686C31.3975 14.686 31.9728 14.7135 32.5394 14.7657C36.4942 15.1339 39.845 16.7795 41.9734 19.395C43.2447 20.9582 44.0414 22.8264 44.3521 24.9144C46.9004 24.2303 49.0432 23.9143 50.5014 23.9143C51.9597 23.9143 54.0996 24.2303 56.6508 24.9144C56.9586 22.8264 57.7553 20.9582 59.0266 19.395C61.155 16.7795 64.5058 15.1339 68.4606 14.7657C69.0272 14.7135 69.6025 14.686 70.172 14.686C72.4902 14.686 75.8813 15.1256 78.8726 17.2218C81.7114 19.2109 83.5091 22.2934 84.0671 26.1287C84.8034 31.214 83.0086 34.4119 81.372 36.1977C80.7536 36.8763 80.0346 37.4779 79.2407 37.9999C81.1649 39.9505 82.9511 42.1374 84.5273 44.5688C87.8407 42.3572 97.2603 36.3515 99.8835 37.7829C102.918 39.4423 100.024 46.6128 88.0276 51.3245ZM88.0276 51.3245C88.3383 52.102 88.6259 52.896 88.8905 53.7092C96.0868 75.773 83.5637 79.5754 73.7069 80.5891C63.8472 81.6029 50.5014 81.6029 50.5014 81.6029C50.5014 81.6029 37.1529 81.6029 27.296 80.5891C17.4363 79.5754 4.91605 75.773 12.1095 53.7092C12.3741 52.896 12.6617 52.102 12.9724 51.3245C0.975615 46.6128 -1.91787 39.4423 1.11655 37.7829C3.73967 36.3515 13.1622 42.3572 16.4727 44.5688C18.0489 42.1374 19.8351 39.9505 21.7593 37.9999C20.9654 37.4779 20.2464 36.8763 19.628 36.1977C17.9914 34.4119 16.1966 31.214 16.9358 26.1287C17.4938 22.2934 19.2886 19.2109 22.1274 17.2218C25.1187 15.1256 28.5098 14.686 30.828 14.686C31.3975 14.686 31.9728 14.7135 32.5394 14.7657C36.4942 15.1339 39.845 16.7795 41.9734 19.395C43.2447 20.9582 44.0414 22.8264 44.3521 24.9144C46.9004 24.2303 49.0432 23.9143 50.5014 23.9143C51.9597 23.9143 54.0996 24.2303 56.6508 24.9144C56.9586 22.8264 57.7553 20.9582 59.0266 19.395C61.155 16.7795 64.5058 15.1339 68.4606 14.7657C69.0272 14.7135 69.6025 14.686 70.172 14.686C72.4902 14.686 75.8813 15.1256 78.8726 17.2218C81.7114 19.2109 83.5091 22.2934 84.0671 26.1287C84.8034 31.214 83.0086 34.4119 81.372 36.1977C80.7536 36.8763 80.0346 37.4779 79.2407 37.9999C81.1649 39.9505 82.9511 42.1374 84.5273 44.5688C87.8407 42.3572 97.2603 36.3515 99.8835 37.7829C102.918 39.4423 100.024 46.6128 88.0276 51.3245Z" fill="#E25026"/>
<path d="M29.6804 38.6372C23.9884 38.6949 17.3615 35.0107 18.6213 26.3511C19.8121 18.1476 26.692 15.8481 32.3755 16.3783C38.7463 16.9717 43.9207 21.3318 42.5918 29.3924C41.3637 36.824 34.6649 38.5878 29.6804 38.6372ZM58.4082 29.3924C57.0794 21.3318 62.2538 16.9717 68.6246 16.3783C74.308 15.8481 81.188 18.1476 82.3788 26.3511C83.6385 35.0107 77.0117 38.6949 71.3196 38.6372C66.3351 38.5878 59.6364 36.824 58.4082 29.3924Z" fill="white"/>
<path d="M29.9044 35.5683C29.6283 35.5436 29.3608 35.5079 29.102 35.4612C25.7339 34.876 21.9229 33.0298 22.688 26.7301C23.4875 20.1668 28.1068 19.0678 31.8603 19.4195C36.0682 19.8096 39.3039 23.4581 38.3605 29.3071C37.4919 34.7029 33.1747 35.8733 29.9044 35.5683ZM62.6388 29.3071C61.6954 23.4581 64.9312 19.8096 69.1391 19.4195C72.8926 19.0678 77.5118 20.1668 78.3114 26.7301C79.0765 33.0298 75.2655 34.876 71.9003 35.4612C71.6414 35.5079 71.371 35.5436 71.0949 35.5683C67.8246 35.8733 63.5074 34.7029 62.6388 29.3071ZM44.0181 37.3486C41.2713 38.8212 41.9472 47.8874 50.3285 47.8874C58.7099 47.8874 60.1566 38.3349 56.639 37.3486C53.1214 36.365 52.0543 38.8019 50.4666 38.758C48.8128 38.7113 47.3286 35.5766 44.0181 37.3486Z" fill="#0E0F1A"/>
<path d="M14.8534 44.2528C15.2963 43.533 16.4727 44.1841 16.0298 44.9067C14.9052 46.7309 14.048 48.6788 13.4699 50.7201C13.2398 51.525 11.9283 51.1816 12.1555 50.3766C12.7624 48.231 13.6713 46.1677 14.8534 44.2528ZM84.3546 44.6787C85.6547 46.6018 86.7966 48.72 87.5242 50.9014C87.786 51.6954 89.1004 51.3574 88.8358 50.558C88.0765 48.2694 86.8915 46.0413 85.531 44.0248C85.0593 43.3242 83.8801 43.9753 84.3546 44.6787Z" fill="#9F2A22"/>
<path d="M82.655 65.0113C79.773 65.4042 78.0013 64.0827 77.8373 62.3629C77.6906 60.8271 78.263 58.937 81.4959 58.6018C84.5993 58.2804 85.4823 59.8381 85.747 61.2145C85.7671 61.3217 85.7844 61.4316 85.793 61.5442C85.9224 62.8822 85.3155 64.6487 82.655 65.0113ZM90.231 70.6159C88.0911 69.3439 85.3299 69.1516 82.8679 69.3851C77.7827 69.8659 73.7933 73.5913 74.7943 79.4348C74.8547 79.7865 74.9352 80.1189 75.0301 80.4376C81.1795 79.6464 87.9559 77.5557 90.231 70.6159ZM71.7656 70.4456C73.3619 69.3054 70.431 66.7696 68.8347 68.418C67.2355 70.0664 68.0351 73.1077 71.7656 70.4456ZM36.0773 42.3925C34.8779 40.8705 32.2145 43.6618 33.946 45.1838C35.6775 46.7031 38.8759 45.9421 36.0773 42.3925ZM16.1278 66.135C19.5102 62.4893 19.9445 53.2033 13.6628 52.0906C13.3148 52.0274 13.1796 51.6208 12.9467 51.39C12.6475 52.1456 12.3657 52.9176 12.1097 53.7088C10.0848 59.9178 9.62174 64.6817 10.22 68.3439C12.0867 68.5829 14.1374 68.2834 16.1278 66.135ZM24.2589 72.5143C21.6386 73.7286 19.5275 72.9869 18.8171 71.3961C18.1843 69.9785 18.121 68.0114 21.0922 66.7504C23.9425 65.5416 25.2828 66.7669 25.9789 68.0004C26.0335 68.0966 26.0824 68.1955 26.1313 68.2999C26.6807 69.5389 26.672 71.3961 24.2589 72.5143Z" fill="#9F2A22" fill-opacity="0.4"/>
</svg>
