<svg width="104" height="117" viewBox="0 0 104 117" fill="none" xmlns="http://www.w3.org/2000/svg">
<path d="M22.897 43.6261C22.897 53.0278 17.8358 55.2532 12.9749 55.6583C8.17645 56.0573 1.2635 54.0653 0.938181 45.299C0.612865 36.5326 5.81792 31.5908 11.8363 31.5908C17.204 31.5908 22.897 33.8223 22.897 43.6261ZM38.703 32.0298C31.7712 32.0298 25.7779 37.7205 26.1533 47.8128C26.5286 57.9082 34.4895 58.8505 40.0136 58.3901C45.6128 57.9266 51.4372 56.7142 51.4372 45.8852C51.4372 34.5989 44.8808 32.0298 38.703 32.0298Z" fill="white"/>
<path d="M95.2672 106.325C87.5065 105.481 86.3178 101.245 84.4754 97.2337C81.1065 89.9008 72.8266 96.2607 70.9936 89.7934C69.7424 85.3826 70.9936 68.0311 70.9936 56.4194C70.9936 44.8077 65.213 19.0366 38.6247 19.0366C32.6314 19.0366 22.7374 22.06 14.8923 30.9491C13.8694 30.7619 12.834 30.6852 11.8362 30.6852C8.77698 30.6852 5.93047 31.87 3.81592 34.0186C1.961 35.9032 -0.203605 39.3962 0.0153578 45.3295C0.152991 48.9913 1.37918 51.852 3.66265 53.8349C3.83782 53.9884 4.01612 54.1296 4.19754 54.2677C3.93166 55.7042 3.24975 59.1972 3.0777 62.7148C1.34477 98.1147 4.23508 116.522 40.0699 116.237C75.9046 115.954 99.6026 114.822 101.626 114.822C106.106 114.822 104.385 107.317 95.2672 106.325ZM4.61044 52.2265C2.89628 50.5936 1.97351 48.2546 1.8609 45.265C1.7045 41.0691 2.83997 37.616 5.14534 35.274C6.90642 33.4814 9.28373 32.4961 11.8362 32.4961C12.4274 32.4961 12.9904 32.5238 13.5285 32.579C9.67786 37.4471 6.4466 43.8745 4.61044 52.2265ZM39.8509 57.9234C35.0525 58.3224 28.1427 56.3303 27.8173 47.564C27.492 38.7977 32.6939 33.8559 38.7123 33.8559C44.08 33.8559 49.773 36.0874 49.773 45.8912C49.773 55.2929 44.7119 57.5213 39.8509 57.9234Z" fill="#634D9F"/>
<path d="M70.443 78.6327C70.443 78.6327 61.4436 76.9599 62.1255 66.5974C62.8074 56.235 70.9935 56.4192 70.9935 56.4192C70.7714 67.6748 70.443 78.6327 70.443 78.6327ZM60.3363 77.4111C57.8933 72.6964 48.9534 75.9347 51.3651 82.4296C53.7737 88.9246 64.3339 85.1277 60.3363 77.4111ZM5.55499 98.5319C5.55499 98.5319 16.7346 95.5638 14.4668 85.2566C12.3897 75.7996 2.6991 77.2269 2.6991 77.2269C2.6991 92.1659 5.55499 98.5319 5.55499 98.5319ZM20.4476 91.6564C17.6949 91.6564 16.281 93.8971 16.4093 97.1108C16.5907 101.739 24.7517 101.233 25.052 97.1108C25.2741 94.0444 24.1136 91.6564 20.4476 91.6564ZM74.6314 97.1322C72.1571 97.1322 70.884 99.1489 70.9997 102.037C71.1655 106.199 78.5008 105.742 78.7698 102.037C78.97 99.2809 77.9252 97.1322 74.6314 97.1322Z" fill="#2E2767" fill-opacity="0.35"/>
<path d="M24.4139 7.62143C24.6673 7.14873 24.7862 6.63613 24.7643 6.08977C24.7142 5.73679 24.6673 5.3838 24.6204 5.03082C24.4264 4.35554 24.0761 3.76928 23.5756 3.2751C23.3004 3.06637 23.0251 2.85765 22.7529 2.652C22.118 2.2898 21.436 2.10871 20.701 2.10871C20.6634 2.10871 20.6228 2.10871 20.5821 2.10871C20.0222 2.08722 19.5029 2.20079 19.0181 2.44941C18.5145 2.6121 18.0797 2.88528 17.7106 3.2751C17.3133 3.63422 17.0349 4.06087 16.8691 4.55505C16.6157 5.02775 16.5 5.54034 16.5219 6.08977C16.5688 6.43969 16.6157 6.79268 16.6658 7.14566C16.8597 7.82094 17.2069 8.4072 17.7106 8.90445C17.9858 9.11011 18.258 9.31883 18.5332 9.52448C19.1651 9.88667 19.8501 10.0678 20.5821 10.0678C20.6228 10.0678 20.6634 10.0678 20.701 10.0678C21.2609 10.0893 21.7833 9.97569 22.2681 9.72706C22.29 9.71785 22.3088 9.70865 22.3307 9.69944C25.4775 12.9101 27.7578 16.796 28.9902 21.0226C29.7472 20.7494 30.5699 20.4977 31.4176 20.1908C30.0725 15.6511 27.6389 11.4705 24.2544 8.00511C24.317 7.88233 24.3701 7.75648 24.4139 7.62143ZM20.5383 7.65826C19.5436 7.65826 18.7334 6.86634 18.7334 5.89026C18.7334 4.91418 19.5436 4.12226 20.5383 4.12226C21.5361 4.12226 22.3432 4.91418 22.3432 5.89026C22.3432 6.86634 21.5361 7.65826 20.5383 7.65826ZM43.9204 7.25923C46.6324 5.31627 45.8566 0 41.5806 0C36.4006 0 36.3474 7.80866 41.4367 7.956C42.3751 10.9395 42.9163 13.9936 42.9538 17.1244C42.9945 20.2246 42.8037 23.8465 41.3679 26.6735C40.6297 28.1284 42.86 29.4114 43.6013 27.9503C45.1591 24.884 45.5157 21.1699 45.5407 17.7843C45.5688 14.2115 44.9964 10.6663 43.9204 7.25923ZM41.5994 5.89026C40.589 5.89026 39.7695 5.08607 39.7695 4.09771C39.7695 3.10628 40.589 2.30208 41.5994 2.30208C42.6097 2.30208 43.4293 3.10628 43.4293 4.09771C43.4293 5.08607 42.6097 5.89026 41.5994 5.89026Z" fill="#1A1448"/>
<path d="M44.0861 49.2094C43.1102 55.1549 34.164 56.0542 33.3507 49.2094C32.5374 42.3676 35.4653 39.4854 38.8811 39.4854C43.4355 39.4854 45.0621 43.2669 44.0861 49.2094ZM5.53937 48.5617C6.89694 43.8532 8.72371 39.8292 10.8445 36.4098C10.66 36.3945 10.4692 36.3853 10.2721 36.3853C6.85627 36.3853 3.92843 39.2675 4.74172 46.1092C4.85746 47.0823 5.14211 47.8926 5.53937 48.5617Z" fill="#0E0F1A"/>
<path d="M57.3241 98.9865C57.3054 99.051 57.2835 99.1123 57.2584 99.1737C58.1812 99.496 59.0352 99.6618 59.0133 100.389C58.9976 100.914 58.175 101.608 57.1333 101.562C56.5922 101.537 56.0041 101.371 55.5005 101.184C56.001 101.629 56.3607 102.025 56.123 102.526C55.8977 103.004 54.8624 103.327 53.924 102.885C53.3578 102.618 52.8135 102.151 52.3975 101.74C49.5259 101.531 46.8702 99.5114 45.2092 97.3167C44.0675 95.8096 43.2574 94.0877 42.5661 92.3442C41.8278 90.478 41.2366 88.5565 40.7925 86.6013C39.901 82.6724 39.6007 78.6207 39.9166 74.6059C39.9479 74.1946 40.2451 73.8447 40.6924 73.8447C41.0896 73.8447 41.4994 74.1977 41.4681 74.6059C41.1365 78.7988 41.4775 83.0254 42.5066 87.1108C42.9602 88.9157 43.542 90.6898 44.2552 92.4118C44.909 93.9987 45.7222 95.5794 46.8327 96.9085C47.8618 98.1363 49.1693 99.2106 50.7021 99.7753C52.0127 100.26 53.6424 100.5 54.9093 99.7539C56.3357 98.9159 55.9572 97.2216 55.3691 95.9784C54.9969 95.1865 54.5339 94.4407 54.1179 93.6702C53.6706 92.8415 53.2639 91.9943 52.8917 91.1318C51.4215 87.737 50.5425 84.1365 50.2642 80.4593C50.2329 80.048 50.6426 79.6981 51.0399 79.6981C51.481 79.6981 51.7844 80.0511 51.8157 80.4593C52.141 84.7934 53.3859 89.0599 55.4567 92.9029C56.0698 94.0386 56.8424 95.2111 57.2272 96.4726C57.3273 96.491 57.4148 96.5033 57.4868 96.5064C58.6191 96.5524 59.6889 96.2793 59.9548 97.0589C60.1237 97.5561 59.5982 98.4893 58.6035 98.7962C58.2062 98.919 57.7558 98.9712 57.3241 98.9865ZM15.9183 50.3911C15.6337 51.3641 14.7703 52.3064 13.7568 52.3463C13.5191 52.3555 13.3158 52.3156 13.1531 52.242C12.8779 52.113 12.7434 52.0025 12.5494 51.7723C12.2523 51.4286 12.099 50.9436 12.1115 50.4801C12.1334 49.6974 10.8916 49.6974 10.8697 50.4801C10.8259 52.0087 12.0458 53.5741 13.6849 53.5649C15.3459 53.5557 16.6816 52.2021 17.1164 50.7134C17.3384 49.9614 16.1404 49.6391 15.9183 50.3911Z" fill="#2E2767"/>
</svg>
