<svg width="116" height="113" viewBox="0 0 116 113" fill="none" xmlns="http://www.w3.org/2000/svg">
<path d="M51.5802 92.2222C51.5802 92.2222 51.7566 100.183 51.5802 106.022C51.4473 110.443 36.4914 115.044 36.6678 112.036C36.8442 109.027 43.5108 105.844 43.5108 105.844V92.2222H51.5802ZM65.5186 92.2222C65.5186 92.2222 65.3422 100.183 65.5186 106.022C65.6515 110.443 80.6047 115.044 80.431 112.036C80.2546 109.027 73.588 105.844 73.588 105.844V92.2222H65.5186Z" fill="#8E2423"/>
<mask id="mask0_284_810" style="mask-type:luminance" maskUnits="userSpaceOnUse" x="0" y="0" width="116" height="96">
<path d="M0 0H116V95.0118H0V0Z" fill="white"/>
</mask>
<g mask="url(#mask0_284_810)">
<path d="M58.2496 94.3437C35.5146 94.3437 28.015 89.7284 29.5806 72.5919C31.2873 53.9087 40.9548 32.5811 56.8983 31.4314V28.5817C53.5392 28.3682 50.4379 26.8845 48.2944 24.429C46.5334 22.4142 44.588 18.7652 45.3341 12.8413C46.5226 3.40799 53.1458 0.0463867 58.9442 0.0463867C59.5031 0.0463867 60.0702 0.0764984 60.6292 0.136723C64.322 0.533655 67.5074 2.24731 69.5994 4.96287C71.922 7.97681 72.7957 12.0419 72.1255 16.723C71.515 20.9907 69.5967 24.1963 66.4221 26.2521C64.1619 27.7139 61.6711 28.3052 59.6035 28.5105V31.4341C75.3951 32.5921 85.2146 53.9142 86.9212 72.5919C88.4868 89.7284 80.9845 94.3437 58.2496 94.3437ZM58.2496 94.3437C35.5146 94.3437 28.015 89.7284 29.5806 72.5919C31.2873 53.9087 40.9548 32.5811 56.8983 31.4314V28.5817C53.5392 28.3682 50.4379 26.8845 48.2944 24.429C46.5334 22.4142 44.588 18.7652 45.3341 12.8413C46.5226 3.40799 53.1458 0.0463867 58.9442 0.0463867C59.5031 0.0463867 60.0702 0.0764984 60.6292 0.136723C64.322 0.533655 67.5074 2.24731 69.5994 4.96287C71.922 7.97681 72.7957 12.0419 72.1255 16.723C71.515 20.9907 69.5967 24.1963 66.4221 26.2521C64.1619 27.7139 61.6711 28.3052 59.6035 28.5105V31.4341C75.3951 32.5921 85.2146 53.9142 86.9212 72.5919C88.4868 89.7284 80.9845 94.3437 58.2496 94.3437ZM40.6672 47.0158C40.6672 47.0158 32.1067 45.6717 29.255 36.1124C27.7165 30.9551 26.3083 26.441 24.6125 23.5995H24.6152C24.6152 23.5995 25.7195 17.3992 24.9218 16.9885C23.4756 16.2494 20.8138 20.4514 20.8138 20.4514L20.8193 20.4596C20.8138 20.4569 20.8111 20.4569 20.8057 20.4569L20.8138 20.4514C20.8138 20.4514 17.2892 17.1555 16.4074 17.4238C15.5256 17.6921 16.676 22.6195 16.6787 22.625C16.676 22.625 16.676 22.625 16.676 22.625C16.6733 22.625 11.4692 22.5237 11.4122 23.72C11.3579 24.9135 14.9558 27.4894 14.9558 27.4894C14.7089 30.8127 15.7236 35.5212 19.3893 42.0144C27.9363 57.1581 44.7047 55.0283 44.7047 55.0283L40.6672 47.0158ZM70.4731 55.0283C70.4731 55.0283 87.2441 57.1581 95.7911 42.0144C99.4541 35.5212 100.472 30.8127 100.222 27.4894C100.222 27.4894 103.823 24.9135 103.766 23.72C103.709 22.5237 98.5071 22.625 98.5017 22.625C98.5017 22.6195 99.6549 17.6921 98.773 17.4238C97.8912 17.1583 94.3666 20.4514 94.3666 20.4514L94.3748 20.4569C94.3693 20.4569 94.3639 20.4569 94.3585 20.4596L94.3666 20.4514C94.3666 20.4514 91.7021 16.2494 90.2586 16.9885C89.4609 17.3992 90.5625 23.5995 90.5625 23.5995H90.5652C88.8721 26.441 87.4612 30.9551 85.9228 36.1124C83.0738 45.6717 74.5132 47.0158 74.5132 47.0158L70.4731 55.0283ZM45.5105 69.9776C45.5105 69.9776 33.2436 58.2503 17.4656 65.354C10.6986 68.4008 7.11699 71.5872 5.36418 74.415C5.36418 74.415 0.952318 74.3438 0.298407 75.3375C-0.358218 76.334 3.89356 79.3616 3.89627 79.3643C3.89356 79.3671 0.0732011 82.652 0.626719 83.3939C1.18024 84.1357 5.95569 83.5828 5.95569 83.5828L5.95026 83.5746C5.95569 83.5773 5.96111 83.58 5.96383 83.5828H5.95569C5.95569 83.5828 5.63551 88.5595 7.23366 88.825C8.11549 88.9728 10.8668 83.3145 10.8668 83.3145C13.9003 82.0361 17.6854 79.2384 21.9534 76C29.8601 69.9995 37.5496 74.0263 37.5496 74.0263L45.5105 69.9776ZM78.4313 74.0263C78.4313 74.0263 86.1208 69.9995 94.0302 76C98.2982 79.2384 102.083 82.0361 105.117 83.3145H105.114C105.114 83.3145 107.865 88.9728 108.75 88.825C110.348 88.5595 110.028 83.5828 110.028 83.5828H110.017C110.022 83.58 110.028 83.5773 110.031 83.5746L110.028 83.5828C110.028 83.5828 114.803 84.1357 115.357 83.3939C115.91 82.652 112.09 79.3671 112.085 79.3643C112.09 79.3616 116.342 76.334 115.685 75.3375C115.029 74.3438 110.617 74.415 110.617 74.415C108.864 71.5872 105.282 68.4008 98.518 65.354C82.7373 58.2503 70.4731 69.9776 70.4731 69.9776L78.4313 74.0263Z" fill="#A42B2B"/>
</g>
<path d="M57.8264 24.6403C57.5225 24.6074 57.224 24.5609 56.9391 24.5034C53.2192 23.7561 49.0081 21.4018 49.8546 13.3811C50.7392 5.02087 55.8402 3.62203 59.9862 4.06824C64.6368 4.56646 68.213 9.21467 67.1711 16.6633C66.2106 23.5343 61.4405 25.029 57.8264 24.6403Z" fill="#0E0F1A"/>
<path d="M60.415 2.15993C55.0101 1.57958 48.4709 4.10079 47.3368 13.0988C46.1402 22.5978 52.4405 26.6383 57.8536 26.5753C62.5911 26.5206 68.9647 24.5852 70.1287 16.4331C71.3931 7.59379 66.4739 2.81144 60.415 2.15993ZM66.1076 16.3427C65.2827 22.2584 61.1774 23.545 58.0653 23.211C57.8021 23.1809 57.547 23.1426 57.3028 23.0933C54.1011 22.45 50.4761 20.4243 51.206 13.5149C51.9657 6.31539 56.3559 5.11091 59.9239 5.49415C63.926 5.92394 67.0029 9.92611 66.1076 16.3427Z" fill="white"/>
<path d="M61.5817 35.9537C60.9576 37.2074 59.6769 38.0889 58.266 38.0971C56.8523 38.1053 55.5608 37.2458 54.9232 35.9947C54.527 35.2173 53.3657 35.9044 53.7619 36.6791C54.6111 38.3435 56.4046 39.4604 58.266 39.4521C60.1246 39.4439 61.9127 38.3079 62.743 36.638C63.1283 35.8606 61.9697 35.1708 61.5817 35.9537ZM73.4307 104.976C71.8516 105.042 70.2724 105.107 68.6933 105.173C68.3324 105.19 68.0204 105.474 68.0204 105.852C68.0204 106.208 68.3297 106.545 68.6933 106.531C70.2724 106.465 71.8516 106.397 73.4307 106.331C73.7943 106.317 74.1036 106.03 74.1036 105.655C74.1036 105.299 73.7943 104.96 73.4307 104.976ZM43.709 106.326C45.025 106.402 46.2649 106.616 47.5728 106.994C47.9119 107.092 48.3216 106.873 48.4003 106.52C48.4817 106.159 48.2918 105.789 47.9309 105.685C46.5553 105.288 45.1362 105.053 43.709 104.971C43.3563 104.949 43.0198 105.296 43.0361 105.649C43.0524 106.033 43.3318 106.304 43.709 106.326ZM44.3086 99.8734C46.3545 99.7009 48.4736 99.9336 50.4869 100.306C50.845 100.372 51.214 100.207 51.3144 99.8323C51.404 99.5038 51.2059 99.0631 50.845 98.9974C48.7151 98.606 46.4739 98.335 44.3086 98.5156C43.9451 98.5457 43.6357 98.8058 43.6357 99.1945C43.6357 99.5394 43.9451 99.9035 44.3086 99.8734ZM72.9342 98.658C70.6387 98.5102 68.3568 98.6525 66.0858 98.9974C65.7249 99.0522 65.5268 99.5093 65.6164 99.8323C65.7222 100.221 66.0831 100.361 66.4412 100.306C68.5929 99.9802 70.7635 99.8761 72.9342 100.013C73.2978 100.038 73.6071 99.6845 73.6071 99.3369C73.6071 98.9509 73.3005 98.6799 72.9342 98.658Z" fill="#5E1815"/>
<path d="M41.172 62.6331C40.2061 61.1002 38.4072 61.0345 36.5051 62.551C34.7035 63.9882 34.169 66.2411 34.9558 67.4319C35.8349 68.765 38.2525 68.9019 40.0053 67.4565C41.6197 66.1207 41.8368 63.6843 41.172 62.6331ZM77.3569 73.9306C78.0108 74.6862 79.0066 74.5575 79.9346 73.5474C80.8137 72.592 80.9304 71.3027 80.404 70.7169C79.8125 70.0626 78.4694 70.2104 77.6201 71.1658C76.8333 72.0473 76.9065 73.4105 77.3569 73.9306ZM75.8809 86.2355C76.7383 85.2719 76.8061 84.0291 75.5281 82.8164C74.318 81.664 73.249 82.039 72.5869 82.8137C71.8462 83.6815 71.6237 84.8476 72.8447 86.2054C73.8649 87.336 75.2921 86.898 75.8809 86.2355ZM50.7609 41.9188C49.9089 41.489 49.0624 41.7381 48.5604 43.0192C48.0856 44.2319 48.5957 44.9683 49.2713 45.294C50.0283 45.6554 50.8613 45.5459 51.4718 44.273C51.9819 43.2108 51.3443 42.2144 50.7609 41.9188ZM84.0154 87.6973C83.9639 87.6754 83.9096 87.6563 83.8608 87.6316C81.975 86.7556 79.7474 84.7819 80.6319 81.0946C81.4188 77.8233 85.0193 75.7593 87.1086 75.8113C87.2253 81.0289 86.2729 84.8914 84.0154 87.6973ZM37.5823 45.9811C38.5564 44.2894 39.6092 42.6907 40.7433 41.2207C43.1582 43.2492 45.0602 46.5615 43.5164 51.4807C41.4108 58.1875 36.6028 59.9011 32.3673 58.3107C32.8286 56.7859 33.3414 55.283 33.9031 53.813C34.4783 52.0802 36.6544 47.4156 37.5823 45.9811Z" fill="#5E1815" fill-opacity="0.3"/>
</svg>
