<svg width="68" height="53" viewBox="0 0 68 53" fill="none" xmlns="http://www.w3.org/2000/svg">
<path d="M67.9137 41.8708C66.5027 61.627 48.9164 64.2866 36.6281 64.2866C24.3376 64.2866 6.42621 61.8448 5.02981 41.8708C3.46042 19.4052 24.7816 10.9964 36.553 10.9543C36.5676 10.9543 36.5822 10.9543 36.5968 10.9543C36.6114 10.9543 36.628 10.9543 36.6426 10.9543C48.412 10.9964 69.5185 19.4071 67.9137 41.8708ZM67.9137 41.8708C66.5027 61.627 48.9164 64.2866 36.6281 64.2866C24.3376 64.2866 6.42621 61.8448 5.02981 41.8708C3.46042 19.4052 24.7816 10.9964 36.553 10.9543C36.5676 10.9543 36.5822 10.9543 36.5968 10.9543C36.6114 10.9543 36.628 10.9543 36.6426 10.9543C48.412 10.9964 69.5185 19.4071 67.9137 41.8708Z" fill="#F89B38"/>
<path d="M62.5302 39.1823C60.6691 37.3538 63.8057 34.4458 65.3439 37.1761C66.4151 39.0792 64.4852 41.1006 62.5302 39.1823ZM14.071 19.3822C10.0985 22.8099 6.93891 27.3878 5.61963 33.2937C7.86429 33.9892 11.0051 34.0751 14.4128 31.4633C19.692 27.4165 16.895 21.8393 14.071 19.3822ZM44.8626 59.6551C40.2587 59.7009 38.3788 62.0702 38.5559 64.2636C42.1386 64.1757 46.0527 63.8203 49.823 62.8803C49.5771 61.1358 47.8388 59.6264 44.8626 59.6551ZM60.3314 48.0172C58.4306 51.8825 60.2126 55.2166 61.4715 56.8884C64.7707 53.7378 67.1363 49.2897 67.8074 43.0342C67.7678 43.0304 63.0513 42.4878 60.3314 48.0172ZM17.1139 32.6689C13.8813 36.2839 20.2005 38.5461 21.8637 35.063C23.6082 31.4059 19.3648 30.1526 17.1139 32.6689ZM29.8044 16.178C28.0892 17.7409 25.0859 16.285 27.2743 14.4393C28.7978 13.1534 32.072 14.1087 29.8044 16.178ZM53.6266 22.8653C52.3949 21.6558 54.4707 19.7318 55.4878 21.5393C56.1964 22.7965 54.9188 24.134 53.6266 22.8653ZM8.86886 37.2679C7.48914 37.7608 6.63671 35.6744 8.42702 35.5234C9.67336 35.4164 10.3215 36.7501 8.86886 37.2679Z" fill="#BC5E28" fill-opacity="0.3"/>
<path d="M43.0326 40.0976C38.6746 40.1435 33.6038 37.1877 34.5667 30.2443C35.4796 23.664 40.7442 21.8202 45.0939 22.2463C49.9708 22.7221 53.9287 26.2186 52.9116 32.6824C51.9737 38.6417 46.8446 40.0575 43.0326 40.0976ZM43.0326 40.0976C38.6746 40.1435 33.6038 37.1877 34.5667 30.2443C35.4796 23.664 40.7442 21.8202 45.0939 22.2463C49.9708 22.7221 53.9287 26.2186 52.9116 32.6824C51.9737 38.6417 46.8446 40.0575 43.0326 40.0976Z" fill="white"/>
<path d="M40.8588 37.4131C38.2306 37.4112 35.2315 35.0228 35.7129 30.506C36.2361 25.5918 39.6062 24.5409 42.4907 24.6842C45.8337 24.8486 48.2451 27.9324 47.4677 32.6154C46.7486 36.9354 43.2222 37.415 40.8588 37.4131Z" fill="#0E0F1A"/>
<path d="M47.6279 12.8858C47.5675 18.0007 43.6492 19.0363 40.029 18.8184C36.4067 18.6006 31.9841 16.9403 33.0449 14.2692C34.2871 11.7605 34.3872 10.0027 34.3413 9.20018C33.9995 5.87563 32.2425 1.9645 33.4785 0.355724C34.7477 -1.29509 47.7634 2.78609 47.6279 12.8858ZM23.8016 17.8173C22.3198 16.7416 20.9213 15.3067 20.9213 15.3067V15.3028C18.3452 12.6852 16.7946 7.68693 14.4541 7.15004C12.3178 6.66091 5.37122 17.5459 12.6742 25.1103C14.254 27.1317 19.9813 29.9958 23.8016 24.7243C27.3093 19.8808 23.8016 17.8173 23.8016 17.8173ZM61.8504 22.2557C65.4935 15.0869 59.8975 6.72014 58.0176 7.15004C55.825 7.65254 54.3244 12.0719 52.0256 14.7793C55.6416 16.5696 59.0888 19.0286 61.8504 22.2557ZM34.779 29.0902H52.9468C52.9468 29.0902 52.4216 22.0838 43.9723 22.0838C35.5751 22.0838 34.779 29.0902 34.779 29.0902Z" fill="#D27628"/>
<path d="M31.2631 44.5321C31.2548 43.9953 32.1656 43.9972 32.1739 44.5321C32.1906 45.755 32.2865 46.974 32.3302 48.1949C32.3782 49.519 32.399 50.8488 32.299 52.1729C32.2156 53.2887 32.076 54.4561 31.5778 55.4898C31.3986 55.8585 31.1527 56.2158 30.8067 56.4719C30.1606 56.9476 29.2894 57.0833 28.4912 56.9228C27.6429 56.7546 26.9593 56.2216 26.6196 55.4936C26.234 54.672 26.2819 53.7664 26.1215 52.8989C26.0798 52.6754 26.1819 52.4499 26.4383 52.385C26.6592 52.3296 26.9572 52.4537 26.9989 52.6773C27.1594 53.5428 27.0635 54.5555 27.547 55.3408C27.9201 55.9522 28.7058 56.2483 29.452 56.1337C29.6208 56.1088 29.7875 56.063 29.9397 55.9942C30.0189 55.9598 30.0918 55.9159 30.1648 55.8738C30.2711 55.8165 30.1689 55.8815 30.219 55.8414C30.2877 55.784 30.3544 55.7248 30.417 55.6598C30.4336 55.6407 30.5024 55.5567 30.4545 55.6178C30.4816 55.5834 30.5087 55.5471 30.5358 55.5108C30.7879 55.1535 30.9026 54.8383 31.0276 54.4084C31.3382 53.3365 31.409 52.2111 31.4445 51.1086C31.5111 48.9114 31.2965 46.7275 31.2631 44.5321ZM56.6776 43.0342C56.711 45.2334 56.9277 47.4249 56.8527 49.626C56.8172 50.7246 56.7401 51.8462 56.4233 52.9104C56.2962 53.3441 56.1753 53.6708 55.9106 54.0377C55.8835 54.0759 55.8544 54.1122 55.8252 54.1485C55.871 54.0931 55.8127 54.1619 55.796 54.1791C55.7272 54.2498 55.6584 54.3205 55.5772 54.3797C55.3854 54.5211 55.102 54.6262 54.8414 54.6606C54.0828 54.7618 53.3033 54.4275 52.9386 53.8084C52.4801 53.025 52.5718 52.0334 52.4134 51.1793C52.3717 50.9558 52.0737 50.8316 51.8527 50.887C51.5964 50.952 51.4943 51.1774 51.5359 51.401C51.6923 52.2493 51.6464 53.1378 52.0111 53.946C52.3425 54.6816 53.0032 55.2242 53.8494 55.4248C54.6435 55.6102 55.5146 55.4879 56.1628 55.0121C56.5192 54.7504 56.7756 54.3854 56.9631 54.0071C57.4717 52.9677 57.6197 51.7946 57.7072 50.6692C57.8093 49.3547 57.7926 48.0344 57.7447 46.716C57.7009 45.4894 57.6051 44.2627 57.5884 43.0342C57.5801 42.4992 56.6693 42.4973 56.6776 43.0342ZM5.13586 43.038L5.13169 43.0342C5.13169 43.0342 -2.10874 45.9479 0.61111 53.4588C2.67862 59.1659 8.84779 59.1239 12.4784 57.8036C9.09997 54.9816 6.23839 49.3776 5.13586 43.038ZM21.8197 17.4313C21.8218 16.8925 22.7326 16.8925 22.7284 17.4313C22.7243 18.5013 22.4616 19.5464 21.9594 20.5132C21.1674 22.0398 19.7793 23.2894 18.1912 24.1263C16.8594 24.8275 15.2275 25.3529 13.6706 25.1924C13.4267 25.1676 13.2162 25.0224 13.2162 24.7759C13.2162 24.5676 13.4267 24.3326 13.6706 24.3594C14.4334 24.4358 15.1232 24.3403 15.8506 24.1473C19.0936 23.2856 21.801 20.6164 21.8197 17.4313ZM18.8477 15.0545C18.4183 15.792 17.7076 16.4168 16.9136 16.8944C15.8006 17.5651 14.5063 17.9128 13.1725 17.8326C12.2075 17.7752 11.2759 17.481 10.4255 17.0702C9.90863 16.8199 9.44803 17.5402 9.96699 17.7905C11.5593 18.5605 13.3559 18.8968 15.1274 18.5108C16.4405 18.2262 17.6597 17.567 18.6122 16.6938C19.004 16.3346 19.3708 15.9276 19.6334 15.4748C19.9085 15.001 19.1228 14.5806 18.8477 15.0545ZM11.5135 10.8128C12.2742 11.5236 13.3871 11.9248 14.4751 11.8216C15.5713 11.7204 16.5363 11.1815 17.1678 10.36C17.3096 10.1746 17.2053 9.89567 17.0053 9.78868C16.7781 9.6664 16.5238 9.75429 16.3821 9.93771C15.3921 11.2274 13.3454 11.3325 12.1575 10.2224C11.7469 9.83836 11.1029 10.4287 11.5135 10.8128ZM34.6603 13.3578C36.2547 14.4239 38.2681 14.9608 40.2251 15.0545C41.9029 15.1347 43.6765 14.8443 45.1667 14.1163C45.9628 13.7266 46.684 13.1725 47.13 12.4445C47.4176 11.9745 46.6319 11.5541 46.3442 12.0222C45.6252 13.1973 44.1079 13.7571 42.7407 14.0342C41.1192 14.3628 39.4248 14.2692 37.8345 13.8412C36.8633 13.5794 35.94 13.1858 35.1189 12.6375C34.9209 12.5056 34.6124 12.6069 34.4957 12.7865C34.3623 12.9986 34.4603 13.224 34.6603 13.3578ZM35.0209 8.85054C36.8091 9.62245 38.8079 9.93198 40.742 9.46004C42.03 9.1467 43.3264 8.49516 44.1684 7.52837C44.4706 7.18062 44.7895 6.74308 44.7686 6.27688C44.7436 5.7419 43.8328 5.73808 43.8578 6.27688C43.8599 6.30554 43.8578 6.33229 43.8557 6.36095C43.8516 6.42974 43.887 6.26733 43.8557 6.35331C43.8432 6.38579 43.837 6.42018 43.8266 6.45266C43.8182 6.48323 43.762 6.59978 43.812 6.49661C43.7328 6.6571 43.6306 6.80614 43.5181 6.94561C43.4743 6.99911 43.5577 6.90167 43.5119 6.95326C43.4973 6.96854 43.4848 6.98383 43.4702 6.99911C43.4306 7.04115 43.3931 7.08318 43.3514 7.12522C43.2659 7.2112 43.1763 7.29526 43.0846 7.37551C42.8803 7.55129 42.6865 7.69268 42.4656 7.83216C41.3068 8.55821 39.9146 8.90404 38.514 8.85054C37.4615 8.81042 36.4298 8.53911 35.4794 8.12831C34.9542 7.90094 34.4915 8.62126 35.0209 8.85054ZM34.3644 4.86108C35.146 5.00438 35.9463 4.80567 36.657 4.5057C37.4094 4.18662 38.1242 3.68029 38.5515 3.0192C38.7954 2.6428 38.9329 2.20908 38.9183 1.76963C38.8996 1.23465 37.9909 1.23274 38.0075 1.76963C38.0096 1.82504 38.0096 1.87854 38.0075 1.93395C38.0054 1.9607 38.0034 1.98745 37.9992 2.0142C38.0075 1.97025 38.0075 1.97216 37.9992 2.02375C37.9804 2.11546 37.9554 2.20526 37.9242 2.29506C37.8721 2.43263 37.7949 2.56829 37.6678 2.73834C37.6511 2.76127 37.6324 2.78228 37.6157 2.80521C37.6407 2.77655 37.6366 2.78228 37.6011 2.8205C37.574 2.85489 37.5428 2.88546 37.5115 2.91794C37.4302 3.00392 37.3406 3.08608 37.2489 3.1625C37.0738 3.30962 36.9759 3.3765 36.7674 3.49878C36.361 3.73761 36.0338 3.87327 35.5857 3.98218C35.3752 4.03377 35.2064 4.06051 35.0793 4.07007C34.9876 4.0758 34.8959 4.07771 34.8062 4.0758C34.7562 4.07389 34.7083 4.07007 34.6583 4.06625C34.7812 4.07389 34.6312 4.06051 34.6062 4.05669C34.3644 4.01275 34.1143 4.11975 34.0455 4.34711C33.9851 4.55347 34.1205 4.81714 34.3644 4.86108ZM53.4388 14.4717C53.5117 14.4259 53.5909 14.3896 53.6701 14.3532C53.7368 14.3208 53.6493 14.3609 53.641 14.3628C53.6681 14.3532 53.6951 14.3437 53.7222 14.3341C53.7764 14.3169 53.8306 14.3017 53.8869 14.2864C53.989 14.2596 54.0932 14.2405 54.1974 14.2233C54.2266 14.2176 54.2558 14.2138 54.285 14.2099C54.3579 14.2004 54.1703 14.2214 54.2912 14.2099C54.36 14.2042 54.4288 14.1985 54.4976 14.1947C54.7831 14.1775 55.0686 14.187 55.3521 14.2138C55.3833 14.2176 55.4125 14.2195 55.4417 14.2233C55.5855 14.2405 55.3938 14.2157 55.4792 14.2291C55.548 14.2386 55.6168 14.2482 55.6855 14.2596C55.8606 14.2883 56.0336 14.3246 56.2066 14.3666C57.678 14.7258 58.991 15.5608 59.9539 16.6671C60.6792 17.4982 61.1815 18.4784 61.5192 19.4929C61.6901 20.005 62.5675 19.7853 62.3966 19.2694C61.7797 17.4141 60.6271 15.7327 58.8806 14.6055C57.6738 13.8297 56.1628 13.3215 54.6768 13.3521C54.1016 13.3654 53.4659 13.4514 52.9782 13.7514C52.4947 14.0495 52.949 14.7717 53.4388 14.4717ZM56.094 10.125C57.6655 9.26898 59.7476 10.316 60.5417 11.6478C60.823 12.1178 61.6109 11.6974 61.3274 11.2255C60.2937 9.49444 57.6301 8.31938 55.6355 9.40463C55.1311 9.67786 55.5897 10.4001 56.094 10.125Z" fill="#BC5E28"/>
</svg>
