<svg width="21" height="23" viewBox="0 0 21 23" fill="none" xmlns="http://www.w3.org/2000/svg">
<path d="M10.252 21.152C15.3618 21.152 19.5041 16.6408 19.5041 11.076C19.5041 5.51118 15.3618 1 10.252 1C5.14227 1 1 5.51118 1 11.076C1 16.6408 5.14227 21.152 10.252 21.152Z" stroke="#2F4156" stroke-width="2" stroke-linecap="round" stroke-linejoin="round"/>
<path d="M10.1237 7.98978C10.7738 7.98978 11.3009 7.41581 11.3009 6.70778C11.3009 5.99975 10.7738 5.42578 10.1237 5.42578C9.47357 5.42578 8.94653 5.99975 8.94653 6.70778C8.94653 7.41581 9.47357 7.98978 10.1237 7.98978Z" fill="#2F4156"/>
<path d="M10.4136 16.0022L9.64322 16.3952C9.5709 16.4321 9.49081 16.4472 9.41131 16.439C9.33181 16.4308 9.25578 16.3996 9.19111 16.3486C9.12645 16.2975 9.07552 16.2286 9.0436 16.1489C9.01169 16.0691 8.99997 15.9815 9.00964 15.8952L10.5706 9.7152C10.5813 9.62756 10.5699 9.53838 10.5376 9.45727C10.5053 9.37615 10.4533 9.3062 10.3873 9.25481C10.3212 9.20342 10.2436 9.17255 10.1626 9.16558C10.0817 9.15861 10.0005 9.17576 9.92787 9.2152L9.06658 9.68419" fill="#2F4156"/>
<path d="M10.4136 16.0022L9.64322 16.3952C9.5709 16.4321 9.49081 16.4472 9.41131 16.439C9.33181 16.4308 9.25578 16.3996 9.19111 16.3486C9.12645 16.2975 9.07552 16.2286 9.0436 16.1489C9.01169 16.0691 8.99997 15.9815 9.00964 15.8952L10.5706 9.7152C10.5813 9.62756 10.5699 9.53838 10.5376 9.45727C10.5053 9.37615 10.4533 9.3062 10.3873 9.25481C10.3212 9.20342 10.2436 9.17255 10.1626 9.16558C10.0817 9.15861 10.0005 9.17576 9.92787 9.2152L9.06658 9.68419" stroke="#2F4156" stroke-width="2" stroke-linecap="round" stroke-linejoin="round"/>
</svg>
