<svg width="23" height="19" viewBox="0 0 23 19" fill="none" xmlns="http://www.w3.org/2000/svg">
<path d="M5.71806 19C4.14043 19 2.79322 18.463 1.67644 17.389C0.559666 16.315 0.000851852 15.019 0 13.501C0 12.0076 0.54263 10.7272 1.62789 9.65974C2.71315 8.59231 4.03224 8.0422 5.58517 8.00944C5.74872 8.00944 5.9127 8.02131 6.07711 8.04507C6.24067 8.06883 6.40422 8.09627 6.56778 8.1274L2.35878 0.00122873H8.45378L11.5 5.86146L14.5475 0H20.6412L16.4629 8.04261C16.6111 8.01066 16.7632 7.98691 16.9191 7.97134C17.0741 7.95496 17.2338 7.94677 17.3982 7.94677C18.9622 7.98527 20.2869 8.53824 21.3721 9.60567C22.4574 10.6731 23 11.9613 23 13.4703C23 15.008 22.4416 16.3142 21.3248 17.389C20.2081 18.4638 18.8498 19.0008 17.25 19C17.0089 19 16.7627 18.9869 16.5114 18.9607C16.2601 18.9353 16.0225 18.8861 15.7984 18.8132C16.8053 18.3913 17.5119 17.6741 17.9183 16.6615C18.3246 15.649 18.5278 14.5853 18.5278 13.4703C18.5278 11.5845 17.8467 9.9866 16.4846 8.67668C15.1225 7.36676 13.461 6.7118 11.5 6.7118C9.53904 6.7118 7.8775 7.36676 6.51539 8.67668C5.15328 9.9866 4.47222 11.5845 4.47222 13.4703C4.47222 14.5951 4.65963 15.6773 5.03444 16.7168C5.40926 17.7572 6.12907 18.456 7.19389 18.8132C6.95367 18.8861 6.71217 18.9353 6.46939 18.9607C6.22661 18.9861 5.97617 18.9992 5.71806 19ZM11.5 19C9.90278 19 8.54535 18.4626 7.42772 17.3878C6.31009 16.313 5.75085 15.0071 5.75 13.4703C5.74915 11.9335 6.30839 10.628 7.42772 9.55406C8.54706 8.48007 9.90448 7.94226 11.5 7.94062C13.0955 7.93898 14.4534 8.4768 15.5736 9.55406C16.6937 10.6313 17.2526 11.9367 17.25 13.4703C17.2474 15.0039 16.6886 16.3097 15.5736 17.3878C14.4585 18.4659 13.1006 19.0033 11.5 19ZM9.50539 16.2831L11.5 14.822L13.4959 16.2831L12.7484 13.9114L14.7443 12.5438H12.2782L11.5 10.0444L10.7206 12.5438H8.257L10.2529 13.9127L9.50539 16.2831Z" fill="#A9A9A9"/>
</svg>
