<svg width="21" height="22" viewBox="0 0 21 22" fill="none" xmlns="http://www.w3.org/2000/svg">
<path d="M0.917969 0.5C1.01442 0.5 1.11687 0.541229 1.19922 0.630859C1.2829 0.721996 1.33691 0.854277 1.33691 1V10.585L2.13379 9.99414L6.79785 6.53516C6.88343 6.47204 6.98134 6.45104 7.07227 6.46582C7.16406 6.48084 7.2576 6.53522 7.3291 6.63184H7.33008L9.5332 9.60645L9.82422 10L10.2236 9.7168L16.4453 5.31738L17.2861 4.72266L16.2979 4.42969L15.6758 4.24414C15.5828 4.21212 15.4917 4.13928 15.4326 4.02441C15.3714 3.90544 15.3546 3.75989 15.3887 3.62305C15.4227 3.48682 15.5011 3.38252 15.5938 3.32324C15.684 3.26558 15.7852 3.25046 15.8789 3.27539L18.4707 4.04297C18.5059 4.05465 18.541 4.07255 18.5742 4.09766L18.6172 4.12988C18.6487 4.15753 18.6781 4.19015 18.7031 4.22949C18.7064 4.2371 18.7089 4.24574 18.7129 4.25391L18.7178 4.26465L18.7236 4.27539C18.7462 4.3164 18.7626 4.3623 18.7734 4.41113L18.7783 4.47168V4.50684L18.7832 4.54199C18.7865 4.56546 18.7865 4.58941 18.7871 4.61328L18.5156 7.53223V7.5332C18.5032 7.66795 18.4458 7.7848 18.3652 7.86426C18.2867 7.94172 18.1929 7.9776 18.1035 7.97852C18.1018 7.97838 18.0995 7.97874 18.0967 7.97852C18.0903 7.978 18.0778 7.97746 18.0625 7.97656H18.0635C18.0147 7.97115 17.9657 7.95519 17.9189 7.92773C17.8719 7.90012 17.8268 7.86112 17.7891 7.81055C17.7514 7.75997 17.7215 7.6991 17.7031 7.63184C17.6848 7.56452 17.6787 7.49269 17.6855 7.42188L17.6865 7.41992L17.7666 6.5498L17.8672 5.46875L16.9805 6.0957L9.95215 11.0605C9.8673 11.1203 9.77211 11.1405 9.68262 11.125C9.59205 11.1093 9.49931 11.0552 9.42871 10.96L7.2334 8.00195L6.93555 7.60059L6.53418 7.89844L1.53516 11.5977L1.33301 11.748V20.4004H6.17773V13.5527C6.1778 13.4071 6.23083 13.2747 6.31445 13.1836C6.39678 13.094 6.49926 13.0527 6.5957 13.0527C6.69216 13.0528 6.79464 13.094 6.87695 13.1836C6.96058 13.2747 7.0136 13.4071 7.01367 13.5527V20.4004H11.417V15.2998C11.417 15.1542 11.4701 15.0218 11.5537 14.9307C11.6361 14.841 11.7385 14.7998 11.835 14.7998C11.9314 14.7998 12.0338 14.841 12.1162 14.9307C12.1999 15.0218 12.2529 15.1542 12.2529 15.2998V20.4004H16.6553V12.209C16.6553 12.0633 16.7084 11.931 16.792 11.8398C16.8743 11.7502 16.9768 11.709 17.0732 11.709C17.1697 11.709 17.2721 11.7502 17.3545 11.8398C17.4382 11.931 17.4912 12.0633 17.4912 12.209V20.4004H18.8506L18.8545 20.4121H19.2236C19.3201 20.4121 19.4225 20.4533 19.5049 20.543C19.5886 20.6341 19.6426 20.7664 19.6426 20.9121C19.6425 21.0578 19.5885 21.1901 19.5049 21.2812C19.4226 21.3708 19.3201 21.4121 19.2236 21.4121H0.917969C0.821678 21.412 0.719916 21.3706 0.637695 21.2812C0.55404 21.1901 0.50003 21.0578 0.5 20.9121V1C0.5 0.854277 0.554011 0.721996 0.637695 0.630859C0.719939 0.541469 0.821678 0.500073 0.917969 0.5Z" fill="#2F4156" stroke="#2F4156"/>
</svg>
