<svg width="57" height="52" viewBox="0 0 57 52" fill="none" xmlns="http://www.w3.org/2000/svg">
<path d="M45.0678 10.0943L41.8806 16.0011L40.0554 15.1125L42.7391 8.96056L45.0678 10.0943ZM39.4306 18.7945C39.053 18.6107 38.7956 18.3504 38.6585 18.0138C38.5338 17.6728 38.5511 17.3387 38.7105 17.0114C38.8739 16.6757 39.1283 16.4518 39.4735 16.3396C39.8272 16.2315 40.1928 16.2694 40.5705 16.4533C40.9397 16.633 41.1866 16.8934 41.3113 17.2344C41.4443 17.5794 41.4292 17.9198 41.2657 18.2554C41.1064 18.5827 40.8499 18.8004 40.4962 18.9085C40.155 19.0123 39.7998 18.9743 39.4306 18.7945ZM48.4865 11.7587L45.2993 17.6656L43.4742 16.777L46.1579 10.625L48.4865 11.7587ZM42.8494 20.459C42.4718 20.2751 42.2144 20.0149 42.0772 19.6782C41.9526 19.3373 41.9699 19.0031 42.1293 18.6759C42.2927 18.3402 42.547 18.1163 42.8923 18.0041C43.246 17.896 43.6116 17.9339 43.9892 18.1177C44.3585 18.2975 44.6054 18.5578 44.7301 18.8988C44.8631 19.2439 44.8479 19.5842 44.6845 19.9199C44.5252 20.2472 44.2687 20.4649 43.915 20.5729C43.5738 20.6767 43.2186 20.6388 42.8494 20.459Z" fill="white"/>
<path d="M5.99805 14.1681C6.73965 13.6114 7.47793 13.3606 8.21289 13.4157C8.95478 13.4656 9.59109 13.844 10.1218 14.551C10.6109 15.2025 10.7785 15.8732 10.6246 16.5631C10.4724 17.2409 10.0489 17.8461 9.35404 18.3785L9.88743 19.1973L8.32798 20.368L6.82428 18.4733L7.44806 18.005C7.98174 17.6044 8.33776 17.2341 8.51614 16.8943C8.70144 16.5493 8.66401 16.2035 8.40385 15.857C8.22173 15.6144 8.0128 15.4732 7.77704 15.4335C7.54129 15.3937 7.30559 15.4623 7.06994 15.6392C6.82043 15.8265 6.681 16.045 6.65165 16.2946C6.6171 16.5373 6.69088 16.7799 6.873 17.0225L5.19919 18.2791C4.86793 17.8667 4.66838 17.4205 4.60056 16.9404C4.53966 16.4551 4.6235 15.9749 4.85208 15.4999C5.08238 15.0127 5.46437 14.5688 5.99805 14.1681ZM11.1578 22.4701C10.8459 22.7042 10.5218 22.8066 10.1855 22.7773C9.85097 22.7359 9.58223 22.58 9.3793 22.3097C9.17117 22.0325 9.09389 21.7275 9.14747 21.3946C9.20797 21.0566 9.39417 20.7705 9.70606 20.5364C10.011 20.3074 10.3308 20.2137 10.6653 20.2551C11.0068 20.2914 11.2816 20.4481 11.4897 20.7253C11.6927 20.9956 11.7639 21.2998 11.7034 21.6378C11.6446 21.9637 11.4627 22.2411 11.1578 22.4701ZM11.0723 10.3587C11.8139 9.8019 12.5522 9.55108 13.2872 9.6062C14.0291 9.65612 14.6654 10.0346 15.1961 10.7415C15.6852 11.393 15.8528 12.0637 15.6989 12.7537C15.5467 13.4315 15.1231 14.0366 14.4283 14.5691L14.9617 15.3878L13.4023 16.5585L11.8986 14.6639L12.5224 14.1956C13.056 13.7949 13.4121 13.4247 13.5904 13.0849C13.7757 12.7398 13.7383 12.3941 13.4781 12.0475C13.296 11.8049 13.0871 11.6638 12.8513 11.624C12.6156 11.5843 12.3799 11.6528 12.1442 11.8297C11.8947 12.0171 11.7553 12.2355 11.7259 12.4851C11.6914 12.7278 11.7652 12.9705 11.9473 13.213L10.2735 14.4696C9.94222 14.0573 9.74268 13.611 9.67485 13.1309C9.61395 12.6456 9.69779 12.1654 9.92637 11.6904C10.1567 11.2032 10.5387 10.7593 11.0723 10.3587ZM16.2321 18.6606C15.9202 18.8948 15.5961 18.9972 15.2598 18.9679C14.9253 18.9264 14.6565 18.7706 14.4536 18.5003C14.2455 18.223 14.1682 17.918 14.2218 17.5852C14.2823 17.2471 14.4685 16.961 14.7804 16.7269C15.0853 16.498 15.4051 16.4042 15.7396 16.4456C16.0811 16.4819 16.3559 16.6386 16.564 16.9159C16.767 17.1862 16.8382 17.4903 16.7777 17.8284C16.7189 18.1542 16.537 18.4317 16.2321 18.6606Z" fill="white"/>
<mask id="mask0_2222_646" style="mask-type:luminance" maskUnits="userSpaceOnUse" x="19" y="35" width="17" height="17">
<path d="M19.6489 35.1807H35.1967V51.9999H19.6489V35.1807Z" fill="white"/>
</mask>
<g mask="url(#mask0_2222_646)">
<path d="M24.2586 36.4686C24.2586 36.4686 23.5329 38.6212 23.8026 42.8086C24.0733 47.0063 25.5052 48.5687 25.8017 49.3551C26.0981 50.1414 25.5793 51.8745 25.0451 51.7943C24.3379 51.6887 24.1783 50.3102 24.1783 50.3102C24.1783 50.3102 23.1541 51.998 22.5097 51.8679C21.8159 51.7274 22.2091 50.1377 22.2091 50.1377C22.2091 50.1377 20.6187 51.1239 20.3511 50.8392C20.0845 50.5544 21.2786 49.3013 21.2786 49.3013C17.719 42.6323 21.2786 35.3984 21.2786 35.3984L24.2586 36.4686ZM30.4668 36.4686C30.4668 36.4686 31.1926 38.6212 30.9218 42.8086C30.6511 47.0063 29.2203 48.5687 28.9238 49.3551C28.6263 50.1414 29.1461 51.8745 29.6794 51.7943C30.3876 51.6887 30.5471 50.3102 30.5471 50.3102C30.5471 50.3102 31.5703 51.998 32.2158 51.8679C32.9085 51.7274 32.5163 50.1377 32.5163 50.1377C32.5163 50.1377 34.1067 51.1239 34.3733 50.8392C34.641 50.5544 33.4469 49.3013 33.4469 49.3013C37.0065 42.6323 33.4469 35.3984 33.4469 35.3984L30.4668 36.4686Z" fill="#1D949A"/>
</g>
<mask id="mask1_2222_646" style="mask-type:luminance" maskUnits="userSpaceOnUse" x="7" y="10" width="35" height="37">
<path d="M7 10H42V46.5256H7V10Z" fill="white"/>
</mask>
<g mask="url(#mask1_2222_646)">
<path d="M41.7715 42.4995C41.7715 42.5004 41.7725 42.5013 41.7725 42.5023C41.4143 44.819 40.4899 46.057 40.1286 46.0824C39.8321 46.1022 39.9063 45.1311 39.9063 45.1311C39.9063 45.1311 39.1723 46.5907 38.8378 46.4888C38.5042 46.387 38.6123 44.8935 38.6123 44.8935C38.6123 44.8935 38.147 45.7534 37.726 45.6346C37.4368 45.5535 37.9226 41.9281 37.9226 41.9281C38.0163 40.5335 38.251 38.9599 37.9484 37.8143C37.4522 35.9388 35.9627 34.8611 35.6168 34.6329C33.2431 36.3264 29.8399 36.6696 27.3591 36.6696C24.9689 36.6696 21.7233 36.3518 19.366 34.814C18.4766 35.64 14.5505 37.5125 11.345 35.9983C9.41907 35.0884 8.27954 33.5458 7.81941 32.106C7.52398 31.3658 6.82605 28.4353 7.13693 28.4259C7.40663 28.4174 7.95734 28.9162 8.10146 29.052C8.11072 29.0416 8.11999 29.0322 8.12925 29.0228C8.09219 28.7418 7.96558 27.6169 8.3166 27.582C8.71703 27.5415 9.3398 28.623 9.3398 28.623C9.3398 28.623 9.5848 27.7037 9.87302 27.7037C10.1623 27.7037 11.2153 30.274 11.2205 30.2872C11.9153 31.3583 12.5834 32.6642 13.5994 33.2884C15.1908 34.2643 17.0725 33.6608 17.7601 33.3808C16.7441 32.1192 16.1584 30.389 16.3252 28.0242C16.7091 22.5602 20.8318 20.5292 24.1392 19.8202C23.7347 19.4638 23.1829 19.0432 22.5066 18.6746C20.9646 17.8335 20.0742 17.2376 20.4602 16.6408C20.8452 16.0449 23.3373 16.2617 25.532 19.1894C24.8495 16.9661 24.1083 15.8817 23.4856 15.0416C22.8628 14.2015 23.6636 13.0361 25.3539 14.1204C26.9638 15.1529 27.3097 18.4558 27.108 19.4713C27.1234 19.4704 27.1388 19.4704 27.1543 19.4704C27.984 18.023 28.2866 16.9274 28.1723 14.1204C28.0529 11.2248 28.9732 10 29.7741 10C30.6037 10 31.4561 11.8801 30.5368 15.8374C29.9727 17.9787 28.9433 19.1894 28.9433 19.1894C28.9433 19.1894 31.4942 16.8576 32.1766 14.9605C32.8581 13.0634 35.1124 13.4151 34.3713 15.9091C33.8864 17.5384 32.0222 19.0055 30.614 19.8277C33.9153 20.5434 38.0101 22.5791 38.3931 28.0242C38.5464 30.2033 38.0606 31.842 37.1887 33.0734C38.636 33.7919 40.914 35.5956 41.5667 38.3564C41.9403 39.9329 41.9846 41.3633 41.7715 42.4995ZM41.7715 42.4995C41.7715 42.5004 41.7725 42.5013 41.7725 42.5023C41.4143 44.819 40.4899 46.057 40.1286 46.0824C39.8321 46.1022 39.9063 45.1311 39.9063 45.1311C39.9063 45.1311 39.1723 46.5907 38.8378 46.4888C38.5042 46.387 38.6123 44.8935 38.6123 44.8935C38.6123 44.8935 38.147 45.7534 37.726 45.6346C37.4368 45.5535 37.9226 41.9281 37.9226 41.9281C38.0163 40.5335 38.251 38.9599 37.9484 37.8143C37.4522 35.9388 35.9627 34.8611 35.6168 34.6329C33.2431 36.3264 29.8399 36.6696 27.3591 36.6696C24.9689 36.6696 21.7233 36.3518 19.366 34.814C18.4766 35.64 14.5505 37.5125 11.345 35.9983C9.41907 35.0884 8.27954 33.5458 7.81941 32.106C7.52398 31.3658 6.82605 28.4353 7.13693 28.4259C7.40663 28.4174 7.95734 28.9162 8.10146 29.052C8.11072 29.0416 8.11999 29.0322 8.12925 29.0228C8.09219 28.7418 7.96558 27.6169 8.3166 27.582C8.71703 27.5415 9.3398 28.623 9.3398 28.623C9.3398 28.623 9.5848 27.7037 9.87302 27.7037C10.1623 27.7037 11.2153 30.274 11.2205 30.2872C11.9153 31.3583 12.5834 32.6642 13.5994 33.2884C15.1908 34.2643 17.0725 33.6608 17.7601 33.3808C16.7441 32.1192 16.1584 30.389 16.3252 28.0242C16.7091 22.5602 20.8318 20.5292 24.1392 19.8202C23.7347 19.4638 23.1829 19.0432 22.5066 18.6746C20.9646 17.8335 20.0742 17.2376 20.4602 16.6408C20.8452 16.0449 23.3373 16.2617 25.532 19.1894C24.8495 16.9661 24.1083 15.8817 23.4856 15.0416C22.8628 14.2015 23.6636 13.0361 25.3539 14.1204C26.9638 15.1529 27.3097 18.4558 27.108 19.4713C27.1234 19.4704 27.1388 19.4704 27.1543 19.4704C27.984 18.023 28.2866 16.9274 28.1723 14.1204C28.0529 11.2248 28.9732 10 29.7741 10C30.6037 10 31.4561 11.8801 30.5368 15.8374C29.9727 17.9787 28.9433 19.1894 28.9433 19.1894C28.9433 19.1894 31.4942 16.8576 32.1766 14.9605C32.8581 13.0634 35.1124 13.4151 34.3713 15.9091C33.8864 17.5384 32.0222 19.0055 30.614 19.8277C33.9153 20.5434 38.0101 22.5791 38.3931 28.0242C38.5464 30.2033 38.0606 31.842 37.1887 33.0734C38.636 33.7919 40.914 35.5956 41.5667 38.3564C41.9403 39.9329 41.9846 41.3633 41.7715 42.4995ZM17.0612 22.5234C15.9577 22.5234 14.9335 22.9185 14.1779 23.6351C13.5438 24.2367 12.8037 25.3389 12.8788 27.1794C12.9426 28.755 13.725 29.6168 14.3694 30.0618C15.0807 30.5531 16.0349 30.8237 17.056 30.8237C17.1991 30.8237 17.3422 30.818 17.4832 30.8077C18.5929 30.7237 19.4411 30.4154 20.0752 29.8657C20.8853 29.1633 21.2961 28.0874 21.2961 26.6665C21.2961 23.9943 19.7921 22.5234 17.0612 22.5234ZM41.928 26.1677C41.8641 24.5912 41.0818 23.7303 40.4374 23.2843C39.7261 22.794 38.7729 22.5234 37.7507 22.5234C37.6077 22.5234 37.4646 22.5291 37.3235 22.5395C36.2139 22.6234 35.3657 22.9317 34.7316 23.4814C33.9214 24.1829 33.5107 25.2597 33.5107 26.6806C33.5107 29.3518 35.0146 30.8237 37.7456 30.8237C38.8491 30.8237 39.8733 30.4286 40.6299 29.7111C41.263 29.1105 42.0031 28.0073 41.928 26.1677Z" fill="#2DBCB7"/>
</g>
<path d="M20.1093 26.6672C20.1093 28.9179 18.9533 29.4506 17.8426 29.5468C16.7463 29.642 15.1683 29.1659 15.0931 27.0679C15.019 24.97 16.208 23.7876 17.5822 23.7876C18.8082 23.7876 20.1093 24.3222 20.1093 26.6672ZM37.3195 29.5581C38.6938 29.5581 39.8827 28.3757 39.8086 26.2787C39.7345 24.1808 38.1554 23.7037 37.0591 23.7989C35.9484 23.8961 34.7934 24.4288 34.7934 26.6785C34.7934 29.0244 36.0935 29.5581 37.3195 29.5581ZM24.266 28.2531C22.9628 28.7246 24.5531 31.6268 27.2604 31.6268C30.7706 31.6268 31.9173 28.486 30.2487 28.1711C28.5791 27.8562 25.8368 27.6855 24.266 28.2531Z" fill="#0E0F1A"/>
<path d="M17.0612 23.1465C15.128 23.1465 13.4563 24.5919 13.5603 27.1556C13.6653 29.7194 15.8856 30.3021 17.4266 30.1861C18.9882 30.0673 20.6136 29.4167 20.6136 26.6663C20.6136 23.799 18.7854 23.1465 17.0612 23.1465ZM17.7962 29.2111C16.8286 29.296 15.4337 28.8745 15.3679 27.0218C15.303 25.169 16.353 24.1252 17.5666 24.1252C18.6495 24.1252 19.7983 24.5966 19.7983 26.6682C19.7983 28.6558 18.7772 29.1263 17.7962 29.2111ZM41.2465 26.1901C41.1415 23.6264 38.9211 23.0437 37.3802 23.1606C35.8186 23.2785 34.1932 23.93 34.1932 26.6804C34.1932 29.5468 36.0214 30.1993 37.7456 30.1993C39.6788 30.1993 41.3505 28.7548 41.2465 26.1901ZM37.2999 29.2215C36.217 29.2215 35.0682 28.7501 35.0682 26.6785C35.0682 24.6909 36.0893 24.2204 37.0693 24.1346C38.0379 24.0507 39.4327 24.4712 39.4976 26.324C39.5635 28.1768 38.5135 29.2215 37.2999 29.2215ZM29.1153 27.9995C29.1153 27.9995 29.3613 29.1744 29.7391 29.2423C30.1179 29.3092 30.5245 28.2503 30.5245 28.2503C30.5245 28.2503 30.0365 28.0325 29.1153 27.9995Z" fill="white"/>
<path d="M41.2673 44.4533C40.8607 45.5084 40.3697 46.0656 40.1288 46.0826C39.8323 46.1024 39.9064 45.1312 39.9064 45.1312C39.9064 45.1312 39.1725 46.5908 38.8379 46.489C38.5044 46.3871 38.6125 44.8936 38.6125 44.8936C38.6125 44.8936 38.1472 45.7535 37.7262 45.6347C37.5584 45.5876 37.6511 44.3533 37.7581 43.3218L41.2673 44.4533ZM9.8732 27.7038C9.58497 27.7038 9.33998 28.6231 9.33998 28.6231C9.33998 28.6231 8.71721 27.5416 8.31678 27.5822C7.96576 27.6171 8.09237 28.7419 8.12943 29.0229C8.12016 29.0323 8.1109 29.0418 8.10164 29.0521C7.95752 28.9164 7.4068 28.4176 7.13711 28.4261C6.94667 28.4317 7.13505 29.5349 7.37798 30.5589L10.7698 29.2454C10.4455 28.5279 10.0369 27.7038 9.8732 27.7038Z" fill="#1D949A"/>
<mask id="mask2_2222_646" style="mask-type:luminance" maskUnits="userSpaceOnUse" x="10" y="19" width="32" height="23">
<path d="M10.9529 19.9736H42.0001V41.4564H10.9529V19.9736Z" fill="white"/>
</mask>
<g mask="url(#mask2_2222_646)">
<path d="M35.8887 22.4159C35.8064 22.5479 35.7096 22.6704 35.6046 22.7845C35.0055 23.4342 33.4996 23.9679 32.0975 22.743C30.9909 21.7756 30.8808 20.747 31.2926 19.9917C32.8696 20.4122 34.5536 21.1505 35.8887 22.4159ZM30.8046 24.0423C31.1937 23.7321 31.6858 23.717 32.1531 24.2026C32.5968 24.6628 32.4383 25.0578 32.1264 25.2973C31.7764 25.5651 31.3121 25.6377 30.7882 25.1719C30.3496 24.7825 30.537 24.2564 30.8046 24.0423ZM18.7094 31.6071C18.6384 31.3337 18.766 31.0923 19.1757 31.0018C19.5638 30.9151 19.748 31.1008 19.7995 31.3177C19.8572 31.5609 19.7707 31.8042 19.3569 31.9277C19.01 32.0314 18.7588 31.7948 18.7094 31.6071ZM27.3593 36.6695C27.4746 36.6695 27.5919 36.6686 27.7103 36.6667C27.838 35.6286 26.9753 34.5273 25.0998 34.0681C23.0256 33.5608 22.1311 34.7224 21.9272 35.6446C21.9046 35.7464 21.8881 35.8501 21.8768 35.9548C23.7359 36.5234 25.7432 36.6695 27.3593 36.6695ZM41.5668 38.3563C41.4917 38.0395 41.3939 37.735 41.2796 37.4436C40.0526 37.9283 39.6182 39.2049 39.8611 40.1346C40.0258 40.7645 40.7999 41.5405 41.8911 41.4188C41.9292 40.5042 41.8303 39.467 41.5668 38.3563ZM13.5995 33.2883C12.9531 32.8904 12.4477 32.2172 11.9855 31.5044C11.8177 31.544 11.6643 31.6335 11.5202 31.7769C11.0961 32.1946 10.8212 33.1082 11.5912 33.7286C12.4044 34.3839 13.4585 34.1737 13.9835 33.6334C14.0154 33.6004 14.0422 33.5636 14.0659 33.5259C13.9084 33.4599 13.7529 33.3817 13.5995 33.2883Z" fill="#175C71" fill-opacity="0.2"/>
</g>
<path d="M34.502 38.4951C33.2914 38.5941 32.0675 38.7648 30.9084 39.1014C30.8961 38.9562 30.8837 38.8157 30.8703 38.6827C32.0119 38.3612 33.208 38.1887 34.398 38.0887C34.433 38.2207 34.468 38.3556 34.502 38.4951ZM34.9168 40.808C33.593 40.857 32.2703 41.0211 30.9805 41.2738C30.9794 41.4115 30.9763 41.5529 30.9733 41.6962C32.2744 41.4294 33.6095 41.2776 34.9364 41.2257C34.9446 41.2257 34.9518 41.2257 34.959 41.2248C34.9467 41.0843 34.9323 40.9457 34.9168 40.808ZM30.7777 44.2099C30.7571 44.3523 30.7355 44.4909 30.7128 44.6258C32.1087 44.6286 33.5035 44.6691 34.8962 44.7493C34.9148 44.6107 34.9312 44.473 34.9456 44.3363C33.558 44.2561 32.1684 44.2147 30.7777 44.2099ZM30.09 46.9679C30.0345 47.1159 29.9778 47.2545 29.9212 47.3875C31.1482 47.3667 32.3763 47.4007 33.6002 47.4921C33.8082 47.5072 34.0151 47.5261 34.223 47.5449C34.2704 47.4111 34.3167 47.2762 34.3599 47.1423C32.9414 47.0094 31.5157 46.9509 30.09 46.9679ZM23.8252 39.0024C22.7032 38.5809 21.5081 38.3367 20.3006 38.1887C20.2656 38.3207 20.2327 38.4555 20.1997 38.5932C21.4329 38.7403 22.6569 38.9892 23.7923 39.438C23.8016 39.2871 23.8129 39.1419 23.8252 39.0024ZM23.7593 41.931C23.7542 41.783 23.7511 41.6396 23.748 41.4982C22.4613 41.1767 21.1324 40.974 19.8014 40.8721C19.7859 41.006 19.7726 41.1427 19.7612 41.2813C20.7494 41.3596 21.7325 41.4973 22.697 41.6896C23.0532 41.7613 23.4083 41.8414 23.7593 41.931ZM24.0136 44.6295C23.9899 44.4947 23.9683 44.3561 23.9477 44.2137C22.556 44.1996 21.1643 44.2231 19.7736 44.2854C19.788 44.4221 19.8045 44.5598 19.822 44.6984C21.2178 44.6371 22.6157 44.6144 24.0136 44.6295ZM24.5108 47.4035C24.6127 47.4073 24.7146 47.4129 24.8165 47.4177C24.7599 47.2838 24.7023 47.1433 24.6456 46.9943C23.2107 46.9406 21.7716 46.9632 20.3397 47.0612C20.3819 47.197 20.4272 47.3328 20.4746 47.4686C21.8179 47.3809 23.1654 47.3573 24.5108 47.4035ZM28.1548 32.2277C27.6834 32.3588 27.2006 32.3484 26.7322 32.1994C26.6159 32.1627 26.4831 32.2438 26.4532 32.3465C26.4193 32.4616 26.4975 32.5643 26.6138 32.6011C27.1481 32.7708 27.7389 32.7784 28.2783 32.6275C28.3967 32.5955 28.4698 32.4804 28.4358 32.371C28.4019 32.2645 28.2722 32.1947 28.1548 32.2277Z" fill="#175C71"/>
</svg>
