<svg width="34" height="34" viewBox="0 0 34 34" fill="none" xmlns="http://www.w3.org/2000/svg">
<path d="M15.2999 8.16662C13.4464 7.26419 11.4114 6.79672 9.3499 6.79982C7.2164 6.79982 5.1968 7.29282 3.3999 8.16662V25.1666C5.25341 24.2642 7.28841 23.7968 9.3499 23.7998C12.1872 23.7998 14.8205 24.6668 16.9999 26.1543C19.2542 24.6162 21.9209 23.7955 24.6499 23.7998C26.7834 23.7998 28.803 24.2928 30.5999 25.1666V8.16662C28.7464 7.26419 26.7114 6.79672 24.6499 6.79982C22.5164 6.79982 20.4968 7.29282 18.6999 8.16662V20.3998C18.6999 20.8507 18.5208 21.2831 18.202 21.6019C17.8832 21.9207 17.4508 22.0998 16.9999 22.0998C16.549 22.0998 16.1166 21.9207 15.7978 21.6019C15.479 21.2831 15.2999 20.8507 15.2999 20.3998V8.16662Z" fill="#A9A9A9"/>
</svg>
