<svg width="34" height="34" viewBox="0 0 34 34" fill="none" xmlns="http://www.w3.org/2000/svg">
<path d="M15.2999 8.16686C13.4464 7.26444 11.4114 6.79696 9.3499 6.80006C7.2164 6.80006 5.1968 7.29306 3.3999 8.16686V25.1669C5.25341 24.2645 7.28841 23.797 9.3499 23.8001C12.1872 23.8001 14.8205 24.6671 16.9999 26.1546C19.2542 24.6165 21.9209 23.7957 24.6499 23.8001C26.7834 23.8001 28.803 24.2931 30.5999 25.1669V8.16686C28.7464 7.26444 26.7114 6.79696 24.6499 6.80006C22.5164 6.80006 20.4968 7.29306 18.6999 8.16686V20.4001C18.6999 20.8509 18.5208 21.2833 18.202 21.6021C17.8832 21.921 17.4508 22.1001 16.9999 22.1001C16.549 22.1001 16.1166 21.921 15.7978 21.6021C15.479 21.2833 15.2999 20.8509 15.2999 20.4001V8.16686Z" fill="#A9A9A9"/>
</svg>
