<svg width="312" height="1110" viewBox="0 0 312 1110" fill="none" xmlns="http://www.w3.org/2000/svg">
<circle cx="6" cy="5" r="5" fill="#2F4156"/>
<circle cx="66" cy="5" r="5" fill="#2F4156"/>
<circle cx="126" cy="5" r="5" fill="#2F4156"/>
<circle cx="186" cy="5" r="5" fill="#2F4156"/>
<circle cx="246" cy="5" r="5" fill="#2F4156"/>
<circle cx="306" cy="5" r="5" fill="#2F4156"/>
<circle cx="6" cy="60" r="5" fill="#2F4156"/>
<circle cx="66" cy="60" r="5" fill="#2F4156"/>
<circle cx="126" cy="60" r="5" fill="#2F4156"/>
<circle cx="186" cy="60" r="5" fill="#2F4156"/>
<circle cx="246" cy="60" r="5" fill="#2F4156"/>
<circle cx="306" cy="60" r="5" fill="#2F4156"/>
<circle cx="6" cy="115" r="5" fill="#2F4156"/>
<circle cx="66" cy="115" r="5" fill="#2F4156"/>
<circle cx="126" cy="115" r="5" fill="#2F4156"/>
<circle cx="186" cy="115" r="5" fill="#2F4156"/>
<circle cx="246" cy="115" r="5" fill="#2F4156"/>
<circle cx="306" cy="115" r="5" fill="#2F4156"/>
<circle cx="6" cy="170" r="5" fill="#2F4156"/>
<circle cx="66" cy="170" r="5" fill="#2F4156"/>
<circle cx="126" cy="170" r="5" fill="#2F4156"/>
<circle cx="186" cy="170" r="5" fill="#2F4156"/>
<circle cx="246" cy="170" r="5" fill="#2F4156"/>
<circle cx="306" cy="170" r="5" fill="#2F4156"/>
<circle cx="6" cy="225" r="5" fill="#2F4156"/>
<circle cx="66" cy="225" r="5" fill="#2F4156"/>
<circle cx="126" cy="225" r="5" fill="#2F4156"/>
<circle cx="186" cy="225" r="5" fill="#2F4156"/>
<circle cx="246" cy="225" r="5" fill="#2F4156"/>
<circle cx="306" cy="225" r="5" fill="#2F4156"/>
<circle cx="6" cy="280" r="5" fill="#2F4156"/>
<circle cx="66" cy="280" r="5" fill="#2F4156"/>
<circle cx="126" cy="280" r="5" fill="#2F4156"/>
<circle cx="186" cy="280" r="5" fill="#2F4156"/>
<circle cx="246" cy="280" r="5" fill="#2F4156"/>
<circle cx="306" cy="280" r="5" fill="#2F4156"/>
<circle cx="6" cy="335" r="5" fill="#2F4156"/>
<circle cx="66" cy="335" r="5" fill="#2F4156"/>
<circle cx="126" cy="335" r="5" fill="#2F4156"/>
<circle cx="186" cy="335" r="5" fill="#2F4156"/>
<circle cx="246" cy="335" r="5" fill="#2F4156"/>
<circle cx="306" cy="335" r="5" fill="#2F4156"/>
<circle cx="7" cy="390" r="5" fill="#2F4156"/>
<circle cx="67" cy="390" r="5" fill="#2F4156"/>
<circle cx="127" cy="390" r="5" fill="#2F4156"/>
<circle cx="187" cy="390" r="5" fill="#2F4156"/>
<circle cx="247" cy="390" r="5" fill="#2F4156"/>
<circle cx="307" cy="390" r="5" fill="#2F4156"/>
<circle cx="6" cy="445" r="5" fill="#2F4156"/>
<circle cx="66" cy="445" r="5" fill="#2F4156"/>
<circle cx="126" cy="445" r="5" fill="#2F4156"/>
<circle cx="186" cy="445" r="5" fill="#2F4156"/>
<circle cx="246" cy="445" r="5" fill="#2F4156"/>
<circle cx="306" cy="445" r="5" fill="#2F4156"/>
<circle cx="5" cy="500" r="5" fill="#2F4156"/>
<circle cx="65" cy="500" r="5" fill="#2F4156"/>
<circle cx="125" cy="500" r="5" fill="#2F4156"/>
<circle cx="185" cy="500" r="5" fill="#2F4156"/>
<circle cx="245" cy="500" r="5" fill="#2F4156"/>
<circle cx="305" cy="500" r="5" fill="#2F4156"/>
<circle cx="5" cy="555" r="5" fill="#2F4156"/>
<circle cx="65" cy="555" r="5" fill="#2F4156"/>
<circle cx="125" cy="555" r="5" fill="#2F4156"/>
<circle cx="185" cy="555" r="5" fill="#2F4156"/>
<circle cx="245" cy="555" r="5" fill="#2F4156"/>
<circle cx="305" cy="555" r="5" fill="#2F4156"/>
<circle cx="5" cy="610" r="5" fill="#2F4156"/>
<circle cx="65" cy="610" r="5" fill="#2F4156"/>
<circle cx="125" cy="610" r="5" fill="#2F4156"/>
<circle cx="185" cy="610" r="5" fill="#2F4156"/>
<circle cx="245" cy="610" r="5" fill="#2F4156"/>
<circle cx="305" cy="610" r="5" fill="#2F4156"/>
<circle cx="5" cy="665" r="5" fill="#2F4156"/>
<circle cx="65" cy="665" r="5" fill="#2F4156"/>
<circle cx="125" cy="665" r="5" fill="#2F4156"/>
<circle cx="185" cy="665" r="5" fill="#2F4156"/>
<circle cx="245" cy="665" r="5" fill="#2F4156"/>
<circle cx="305" cy="665" r="5" fill="#2F4156"/>
<circle cx="5" cy="720" r="5" fill="#2F4156"/>
<circle cx="65" cy="720" r="5" fill="#2F4156"/>
<circle cx="125" cy="720" r="5" fill="#2F4156"/>
<circle cx="185" cy="720" r="5" fill="#2F4156"/>
<circle cx="245" cy="720" r="5" fill="#2F4156"/>
<circle cx="305" cy="720" r="5" fill="#2F4156"/>
<circle cx="5" cy="775" r="5" fill="#2F4156"/>
<circle cx="65" cy="775" r="5" fill="#2F4156"/>
<circle cx="125" cy="775" r="5" fill="#2F4156"/>
<circle cx="185" cy="775" r="5" fill="#2F4156"/>
<circle cx="245" cy="775" r="5" fill="#2F4156"/>
<circle cx="305" cy="775" r="5" fill="#2F4156"/>
<circle cx="5" cy="830" r="5" fill="#2F4156"/>
<circle cx="65" cy="830" r="5" fill="#2F4156"/>
<circle cx="125" cy="830" r="5" fill="#2F4156"/>
<circle cx="185" cy="830" r="5" fill="#2F4156"/>
<circle cx="245" cy="830" r="5" fill="#2F4156"/>
<circle cx="305" cy="830" r="5" fill="#2F4156"/>
<circle cx="5" cy="885" r="5" fill="#2F4156"/>
<circle cx="65" cy="885" r="5" fill="#2F4156"/>
<circle cx="125" cy="885" r="5" fill="#2F4156"/>
<circle cx="185" cy="885" r="5" fill="#2F4156"/>
<circle cx="245" cy="885" r="5" fill="#2F4156"/>
<circle cx="305" cy="885" r="5" fill="#2F4156"/>
<circle cx="5" cy="940" r="5" fill="#2F4156"/>
<circle cx="65" cy="940" r="5" fill="#2F4156"/>
<circle cx="125" cy="940" r="5" fill="#2F4156"/>
<circle cx="185" cy="940" r="5" fill="#2F4156"/>
<circle cx="245" cy="940" r="5" fill="#2F4156"/>
<circle cx="305" cy="940" r="5" fill="#2F4156"/>
<circle cx="6" cy="995" r="5" fill="#2F4156"/>
<circle cx="66" cy="995" r="5" fill="#2F4156"/>
<circle cx="126" cy="995" r="5" fill="#2F4156"/>
<circle cx="186" cy="995" r="5" fill="#2F4156"/>
<circle cx="246" cy="995" r="5" fill="#2F4156"/>
<circle cx="306" cy="995" r="5" fill="#2F4156"/>
<circle cx="6" cy="1050" r="5" fill="#2F4156"/>
<circle cx="66" cy="1050" r="5" fill="#2F4156"/>
<circle cx="126" cy="1050" r="5" fill="#2F4156"/>
<circle cx="186" cy="1050" r="5" fill="#2F4156"/>
<circle cx="246" cy="1050" r="5" fill="#2F4156"/>
<circle cx="306" cy="1050" r="5" fill="#2F4156"/>
<circle cx="6" cy="1105" r="5" fill="#2F4156"/>
<circle cx="66" cy="1105" r="5" fill="#2F4156"/>
<circle cx="126" cy="1105" r="5" fill="#2F4156"/>
<circle cx="186" cy="1105" r="5" fill="#2F4156"/>
<circle cx="246" cy="1105" r="5" fill="#2F4156"/>
<circle cx="306" cy="1105" r="5" fill="#2F4156"/>
</svg>
