<svg width="19" height="15" viewBox="0 0 19 15" fill="none" xmlns="http://www.w3.org/2000/svg">
<path d="M15.9678 0.5C16.2407 0.499896 16.5127 0.557946 16.7676 0.672852C17.0226 0.787851 17.2574 0.95839 17.457 1.17578C17.6566 1.39321 17.8167 1.65391 17.9268 1.94336C18.0367 2.23274 18.0938 2.54403 18.0938 2.85938V11.2305C18.0922 11.8687 17.8586 12.4726 17.4551 12.9121C17.0525 13.3506 16.5162 13.5886 15.9668 13.5898H2.62598L2.42188 13.5791C2.21834 13.5573 2.01741 13.5032 1.82617 13.417C1.57119 13.302 1.33628 13.1314 1.13672 12.9141C0.937215 12.6967 0.776988 12.4358 0.666992 12.1465C0.557051 11.8571 0.499936 11.5458 0.5 11.2305V2.86133C0.501227 2.22261 0.734926 1.61758 1.13867 1.17773C1.49089 0.794147 1.94576 0.564135 2.42188 0.511719L2.62695 0.5H15.9678ZM16.7529 2.85547L9.44434 8.55566L9.44141 8.55762C9.39613 8.59345 9.34695 8.60984 9.30176 8.61035C9.25676 8.61079 9.20838 8.59577 9.16309 8.56152L9.16211 8.56055L1.84375 3.04102L1.04297 2.43652V11.2412C1.04374 11.6731 1.20087 12.0948 1.49219 12.4121C1.78486 12.7308 2.19119 12.9191 2.625 12.9199H15.9678C16.3999 12.9203 16.8053 12.735 17.0996 12.4199C17.3926 12.1062 17.5541 11.6882 17.5605 11.2578V2.22559L16.7529 2.85547ZM15.4678 1.19043H2.62598C2.34494 1.18769 2.07084 1.26734 1.83398 1.41797L0.888672 2.01953L1.9375 2.3125L8.99121 7.62891L9.29785 7.86035L9.59961 7.62402L16.624 2.14453L17.3193 1.60156L16.4971 1.28418C16.3319 1.22023 16.1575 1.18409 15.9805 1.17969L15.4678 1.16699V1.19043Z" fill="#2F4156" stroke="#2F4156"/>
</svg>
