<svg width="28" height="28" viewBox="0 0 28 28" fill="none" xmlns="http://www.w3.org/2000/svg">
<path d="M14.9897 3.21019C14.7272 2.94773 14.3712 2.80029 13.9999 2.80029C13.6287 2.80029 13.2727 2.94773 13.0101 3.21019L3.21014 13.0102C2.95511 13.2742 2.814 13.6279 2.81719 13.995C2.82038 14.362 2.96762 14.7132 3.22719 14.9727C3.48676 15.2323 3.8379 15.3795 4.20497 15.3827C4.57205 15.3859 4.92569 15.2448 5.18974 14.9898L5.59994 14.5796V23.8C5.59994 24.1713 5.74744 24.5274 6.00999 24.7899C6.27254 25.0525 6.62863 25.2 6.99994 25.2H9.79994C10.1712 25.2 10.5273 25.0525 10.7899 24.7899C11.0524 24.5274 11.1999 24.1713 11.1999 23.8V21C11.1999 20.6287 11.3474 20.2726 11.61 20.01C11.8725 19.7475 12.2286 19.6 12.5999 19.6H15.3999C15.7712 19.6 16.1273 19.7475 16.3899 20.01C16.6524 20.2726 16.7999 20.6287 16.7999 21V23.8C16.7999 24.1713 16.9474 24.5274 17.21 24.7899C17.4725 25.0525 17.8286 25.2 18.1999 25.2H20.9999C21.3712 25.2 21.7273 25.0525 21.9899 24.7899C22.2524 24.5274 22.3999 24.1713 22.3999 23.8V14.5796L22.8101 14.9898C23.0742 15.2448 23.4278 15.3859 23.7949 15.3827C24.162 15.3795 24.5131 15.2323 24.7727 14.9727C25.0323 14.7132 25.1795 14.362 25.1827 13.995C25.1859 13.6279 25.0448 13.2742 24.7897 13.0102L14.9897 3.21019Z" fill="#567C8D"/>
</svg>
