<svg width="88" height="110" viewBox="0 0 88 110" fill="none" xmlns="http://www.w3.org/2000/svg">
<path d="M16.5118 24.6201C16.5118 24.6201 8.85444 11.7571 10.4951 9.93283C12.1387 8.11105 28.2416 13.5915 28.2416 13.5915C21.8775 16.8254 16.5118 24.6201 16.5118 24.6201ZM71.4914 24.595C71.4914 24.595 79.0904 11.7571 77.4468 9.93283C75.8032 8.11105 59.744 13.5764 59.744 13.5764C66.1111 16.8103 71.4914 24.595 71.4914 24.595Z" fill="#7DADC5"/>
<mask id="mask0_289_873" style="mask-type:luminance" maskUnits="userSpaceOnUse" x="0" y="0" width="88" height="110">
<path d="M0 0H88V110H0V0Z" fill="white"/>
</mask>
<g mask="url(#mask0_289_873)">
<path d="M83.3876 51.4367C81.2361 53.3515 78.419 54.5149 75.342 54.7788C73.3539 77.0672 66.0381 103.2 66.0381 103.2C66.0381 103.2 71.5469 104.444 71.255 106.309C70.9659 108.176 64.4442 106.309 64.4442 106.309C64.4442 106.309 65.1682 109.168 63.7202 109.791C62.2693 110.412 58.2114 106.932 58.2114 106.932C58.2114 106.932 57.7764 109.543 55.8935 109.666C54.0076 109.791 50.6767 105.688 50.8197 103.698C50.9657 101.708 51.5641 86.2741 51.2547 84.4222C50.6767 80.9394 47.1968 79.9042 44.0089 79.9042C40.821 79.9042 37.3412 80.9394 36.7603 84.4222C36.4537 86.2741 37.0522 101.708 37.1952 103.698C37.3412 105.688 34.0073 109.791 32.1244 109.666C30.2385 109.543 29.8035 106.932 29.8035 106.932C29.8035 106.932 25.7457 110.412 24.2977 109.791C22.8468 109.168 23.5737 106.309 23.5737 106.309C23.5737 106.309 17.049 108.176 16.76 106.309C16.471 104.444 21.9768 103.2 21.9768 103.2C21.9768 103.2 14.6639 77.0773 12.6759 54.7913C9.8558 54.6003 7.2576 53.8088 5.25495 52.5097C3.15595 51.1478 0.607388 48.5118 0.400116 43.6923C0.154893 38.0662 2.56333 34.6915 4.63021 32.8546C7.0912 30.661 10.428 29.4523 14.0217 29.4523C14.1297 29.4523 14.2319 29.4573 14.334 29.4573C18.5846 17.2628 28.5249 12.408 36.6201 10.7194C36.6289 10.6968 38.4359 4.12588 46.3444 1.31155C54.2674 -1.5078 59.6769 3.30168 49.6286 7.28195C54.7987 8.19409 58.6639 11.3853 59.4726 13.4433C65.2616 16.2576 70.7879 21.1601 73.6809 29.4573C73.7918 29.4573 73.8999 29.4523 74.0108 29.4523C77.3388 29.4523 80.445 30.279 82.7629 31.7817C84.8619 33.1436 87.4076 35.777 87.6177 40.5991C87.863 46.2252 85.4516 49.5974 83.3876 51.4367ZM83.3876 51.4367C81.2361 53.3515 78.419 54.5149 75.342 54.7788C73.3539 77.0672 66.0381 103.2 66.0381 103.2C66.0381 103.2 71.5469 104.444 71.255 106.309C70.9659 108.176 64.4442 106.309 64.4442 106.309C64.4442 106.309 65.1682 109.168 63.7202 109.791C62.2693 110.412 58.2114 106.932 58.2114 106.932C58.2114 106.932 57.7764 109.543 55.8935 109.666C54.0076 109.791 50.6767 105.688 50.8197 103.698C50.9657 101.708 51.5641 86.2741 51.2547 84.4222C50.6767 80.9394 47.1968 79.9042 44.0089 79.9042C40.821 79.9042 37.3412 80.9394 36.7603 84.4222C36.4537 86.2741 37.0522 101.708 37.1952 103.698C37.3412 105.688 34.0073 109.791 32.1244 109.666C30.2385 109.543 29.8035 106.932 29.8035 106.932C29.8035 106.932 25.7457 110.412 24.2977 109.791C22.8468 109.168 23.5737 106.309 23.5737 106.309C23.5737 106.309 17.049 108.176 16.76 106.309C16.471 104.444 21.9768 103.2 21.9768 103.2C21.9768 103.2 14.6639 77.0773 12.6759 54.7913C9.8558 54.6003 7.2576 53.8088 5.25495 52.5097C3.15595 51.1478 0.607388 48.5118 0.400116 43.6923C0.154893 38.0662 2.56333 34.6915 4.63021 32.8546C7.0912 30.661 10.428 29.4523 14.0217 29.4523C14.1297 29.4523 14.2319 29.4573 14.334 29.4573C18.5846 17.2628 28.5249 12.408 36.6201 10.7194C36.6289 10.6968 38.4359 4.12588 46.3444 1.31155C54.2674 -1.5078 59.6769 3.30168 49.6286 7.28195C54.7987 8.19409 58.6639 11.3853 59.4726 13.4433C65.2616 16.2576 70.7879 21.1601 73.6809 29.4573C73.7918 29.4573 73.8999 29.4523 74.0108 29.4523C77.3388 29.4523 80.445 30.279 82.7629 31.7817C84.8619 33.1436 87.4076 35.777 87.6177 40.5991C87.863 46.2252 85.4516 49.5974 83.3876 51.4367Z" fill="#ADD7E5"/>
</g>
<path d="M23.95 16.2124C23.9675 16.2325 31.3358 26.1505 22.937 31.3595C17.2881 34.8649 11.1867 32.6285 7.79736 30.7866C9.67449 29.9147 11.7998 29.4523 14.0214 29.4523C14.1294 29.4523 14.2315 29.4573 14.3366 29.4573C16.4444 23.404 19.9593 19.1599 23.95 16.2124ZM34.7602 32.631C37.0139 28.3341 30.5505 27.2536 28.834 30.382C26.5452 34.5558 32.7079 36.5434 34.7602 32.631ZM33.4027 22.9391C34.8332 24.1704 36.1148 22.3989 35.0813 21.4817C33.7063 20.258 32.0978 21.821 33.4027 22.9391ZM67.0216 62.4402C65.4744 68.378 73.1434 71.1647 73.1493 71.1672C73.9725 66.3476 74.6878 61.3723 75.1753 56.5352C75.1665 56.5352 68.5659 56.5025 67.0216 62.4402ZM59.3351 55.1934C58.1761 57.392 61.4866 57.9499 62.3682 56.3467C63.5447 54.2134 60.3889 53.1907 59.3351 55.1934ZM22.2451 84.3593C22.9457 89.2517 29.4091 87.2114 28.9654 83.613C28.3757 78.8161 21.6087 79.9067 22.2451 84.3593ZM36.6928 85.4122C36.6928 85.4122 30.641 87.7793 31.006 92.3802C31.368 96.9836 36.9672 98.6596 36.9672 98.6596C36.795 94.1391 36.614 87.9602 36.6928 85.4122ZM54.235 91.9429C54.6554 94.8678 58.5206 93.6466 58.2578 91.4957C57.9046 88.6261 53.8555 89.2769 54.235 91.9429Z" fill="#44718B" fill-opacity="0.3"/>
<path d="M23.9499 42.1272C23.9499 49.0097 20.1868 50.638 16.5669 50.9345C12.9966 51.226 7.85564 49.7686 7.61334 43.3534C7.37103 36.9383 11.2421 33.3224 15.7203 33.3224C19.7139 33.3224 23.9499 34.9532 23.9499 42.1272ZM72.6032 50.9697C77.0815 50.9697 80.9525 47.3538 80.7131 40.9386C80.4708 34.5235 75.327 33.0635 71.7566 33.355C68.1396 33.6515 64.3737 35.2798 64.3737 42.1624C64.3737 49.3364 68.6096 50.9697 72.6032 50.9697Z" fill="#0E0F1A"/>
<path d="M14.0214 31.3599C7.72441 31.3599 2.27987 35.7799 2.61851 43.6223C2.96007 51.4622 10.1942 53.2438 15.2125 52.8895C20.3008 52.5276 25.5965 50.535 25.5965 42.1247C25.5965 33.355 19.6382 31.3599 14.0214 31.3599ZM16.4181 49.9093C13.2653 50.1656 8.72281 48.879 8.50678 43.2127C8.29367 37.5464 11.7151 34.3526 15.6708 34.3526C19.1973 34.3526 22.937 35.7949 22.937 42.1297C22.937 48.2081 19.6119 49.648 16.4181 49.9093ZM85.3959 40.6698C85.0572 32.8273 77.8231 31.0458 72.8019 31.4026C67.7135 31.7644 62.4208 33.7546 62.4208 42.1674C62.4208 50.9345 68.3762 52.9297 73.993 52.9297C80.29 52.9297 85.7374 48.5122 85.3959 40.6698ZM72.5392 49.9394C69.0126 49.9394 65.2701 48.4971 65.2701 42.1598C65.2701 36.0814 68.5952 34.6441 71.7918 34.3828C74.9447 34.1239 79.4871 35.413 79.7003 41.0793C79.9134 46.7457 76.4948 49.9394 72.5392 49.9394ZM53.6249 48.3815C53.6249 48.3815 52.5622 52.9623 50.6297 52.7965C48.6971 52.6306 47.9264 47.8312 47.9264 47.8312L53.6249 48.3815Z" fill="white"/>
<path d="M54.2176 47.7682C48.8782 46.9138 43.2935 46.9515 37.8986 47.3511C36.5295 47.4516 35.1632 47.5898 33.8028 47.7682C33.4087 47.821 33.1898 48.2456 33.2861 48.5497C33.4029 48.9115 33.7999 49.0472 34.1969 48.9944C39.2561 48.326 44.4963 48.1954 49.5963 48.5346C51.0151 48.6276 52.4252 48.7708 53.8235 48.9944C54.7577 49.1427 55.1547 47.919 54.2176 47.7682ZM57.0669 77.5297C57.0435 77.4719 57.0202 77.4166 56.9968 77.3563C56.7107 76.5598 56.6669 75.7431 56.6669 74.9139C56.6699 74.0394 56.6903 73.165 56.702 72.2931C56.7282 70.2552 56.7574 68.2198 56.7837 66.1819C56.7895 65.8402 57.245 65.5914 57.6099 65.6291C58.0419 65.6744 58.2609 65.991 58.255 66.3352C58.2346 67.8781 58.2142 69.4184 58.1937 70.9588C58.1733 72.4564 58.0828 73.9716 58.147 75.4692C58.1967 76.6578 58.5324 77.972 59.9395 78.4846C61.2444 78.962 62.4384 78.2157 62.9493 77.1855C63.2529 76.5774 63.3872 75.9266 63.5507 75.2833C63.6996 74.7104 63.8485 74.14 63.9944 73.567C64.0791 73.2303 64.3944 72.969 64.8177 73.0117C65.1884 73.0494 65.5504 73.3836 65.4658 73.7203C65.1476 74.9767 64.9345 76.3361 64.3856 77.5322C64.2747 77.7735 64.1375 78.0071 63.9769 78.2283C64.1024 79.158 64.1492 81.0677 63.5682 81.211C62.9902 81.3517 62.202 80.8742 61.7203 80.2913C61.3554 81.0727 60.6664 82.2663 59.8899 82.2739C59.0929 82.2839 58.8243 81.0501 58.7134 79.9445C58.0011 80.334 56.8859 80.7411 56.3925 80.5224C55.9138 80.3114 56.6815 78.4016 57.0669 77.5297ZM60.681 13.9485C60.1555 12.2675 58.6404 10.81 57.1048 9.72955C55.1109 8.32992 52.6529 7.27204 50.1306 6.79461C49.2022 6.62122 48.8052 7.84495 49.7365 8.02085C51.7537 8.40279 53.6863 9.17673 55.3766 10.1894C56.7837 11.0312 58.0974 12.1569 58.8856 13.4786C59.2067 14.0164 59.449 14.6521 59.344 15.2627C59.2505 15.8005 58.8272 16.406 58.2346 16.6322C57.061 17.0845 55.4408 16.3382 54.4337 15.8356C53.7213 15.4813 53.2221 15.1572 52.6675 14.7677C51.5698 13.9988 50.4721 13.2274 49.3716 12.4559C48.7235 12.0011 47.8302 12.5564 48.2097 13.2274C49.1263 14.8506 49.2227 16.8483 49.1409 18.6223C49.0738 20.1451 48.5483 21.904 46.8668 22.693C46.7909 22.7282 46.7121 22.7609 46.6362 22.7936C46.6274 22.7961 46.6245 22.7961 46.6186 22.7986C46.6186 22.8011 46.6186 22.7986 46.6157 22.8011C46.5661 22.8162 46.5165 22.8338 46.4668 22.8463C46.3734 22.874 46.28 22.8991 46.1837 22.9192C46.1311 22.9292 46.0756 22.9393 46.0202 22.9493C45.9997 22.9544 45.9851 22.9569 45.9735 22.9594C45.9647 22.9594 45.9589 22.9594 45.9472 22.9594C45.4567 22.9971 45.1298 22.9493 44.7298 22.7534C43.4103 22.1126 42.8148 20.615 42.5345 19.4138C42.2192 18.072 42.1141 16.6473 42.2105 15.2803C42.2688 14.4636 40.7858 14.4662 40.7304 15.2803C40.6282 16.7252 40.7625 18.2228 41.0807 19.6425C41.4252 21.1829 42.2367 22.8865 43.8278 23.771C44.9138 24.3766 46.2391 24.349 47.3835 23.8891C49.2723 23.1303 50.2415 21.3588 50.5159 19.6651C50.7057 18.4866 50.6531 17.278 50.5276 16.0945C50.478 15.6396 50.4079 15.1898 50.3087 14.7476C50.7933 15.0868 51.2779 15.4286 51.7625 15.7678C52.3463 16.1774 52.9448 16.5593 53.5929 16.8885C54.9854 17.5946 56.8976 18.3585 58.5411 17.8886C60.4241 17.3483 61.1598 15.4864 60.681 13.9485ZM31.5462 80.5224C31.0499 80.7411 29.9376 80.334 29.2253 79.9445C29.1115 81.0501 28.8429 82.2839 28.0459 82.2739C27.2723 82.2663 26.5833 81.0727 26.2155 80.2913C25.7338 80.8742 24.9456 81.3517 24.3705 81.2084C23.7895 81.0677 23.8363 79.158 23.9589 78.2283C23.8012 78.0071 23.6611 77.7735 23.5502 77.5322C23.0013 76.3361 22.7882 74.9767 22.4729 73.7203C22.3883 73.3836 22.7503 73.0494 23.1181 73.0117C23.5414 72.969 23.8596 73.2303 23.9443 73.567C24.0873 74.14 24.2391 74.7104 24.3851 75.2833C24.5486 75.9266 24.6829 76.5774 24.9865 77.1855C25.5003 78.2157 26.6914 78.962 27.9992 78.4846C29.4063 77.972 29.7391 76.6578 29.7917 75.4692C29.8559 73.9716 29.7654 72.4564 29.745 70.9588C29.7245 69.4184 29.7012 67.8781 29.6807 66.3352C29.6778 65.991 29.8938 65.6744 30.3288 65.6291C30.6937 65.5914 31.1492 65.8402 31.1521 66.1819C31.1813 68.2198 31.2075 70.2552 31.2367 72.2931C31.2484 73.165 31.2688 74.0394 31.2688 74.9139C31.2688 75.7431 31.228 76.5598 30.939 77.3563C30.9185 77.4166 30.8952 77.4719 30.8689 77.5297C31.2543 78.4016 32.022 80.3114 31.5462 80.5224ZM71.2665 10.2522C73.0618 11.8101 74.7901 13.446 76.3694 15.1748C76.1709 15.6371 75.9607 16.112 75.7359 16.5895C73.8763 14.5064 71.8416 12.5012 69.6608 10.6342C70.2038 10.4985 70.741 10.3703 71.2665 10.2522ZM65.2964 11.8302C64.7564 11.9885 64.2397 12.1443 63.7492 12.2951C66.6714 14.627 69.366 17.2101 71.7569 19.9239C72.2473 20.4793 72.7174 21.0447 73.1699 21.6226C73.4005 21.2004 73.6457 20.7481 73.8938 20.2732C71.4153 17.2026 68.4201 14.4008 65.2964 11.8302ZM16.8124 10.2849C14.9498 11.7951 13.1983 13.4183 11.5518 15.0893C11.7386 15.524 11.9371 15.9713 12.1473 16.4211C14.1178 14.3908 16.2606 12.471 18.5173 10.6945C17.9422 10.5487 17.37 10.4105 16.8124 10.2849ZM22.9459 11.9182C19.7813 14.2375 16.9321 16.9136 14.3368 19.6676C14.2113 19.8008 14.0945 19.9365 13.969 20.0697C14.2054 20.5145 14.436 20.9416 14.655 21.3462C17.2707 18.4213 20.2484 15.6924 23.4363 13.255C23.8129 12.9685 24.1924 12.6896 24.5778 12.4132C24.064 12.2549 23.5181 12.0891 22.9459 11.9182ZM63.72 109.791C65.168 109.168 64.444 106.309 64.444 106.309C64.444 106.309 70.9658 108.176 71.2548 106.309C71.5467 104.444 66.038 103.2 66.038 103.2L51.0648 104.977C51.8588 107.06 54.3578 109.769 55.8933 109.666C57.7763 109.543 58.2113 106.932 58.2113 106.932C58.2113 106.932 62.2691 110.412 63.72 109.791ZM32.1242 109.666C33.6714 109.769 36.1937 107.02 36.9674 104.932L21.9767 103.2C21.9767 103.2 16.4708 104.444 16.7598 106.309C17.0488 108.176 23.5735 106.309 23.5735 106.309C23.5735 106.309 22.8466 109.168 24.2975 109.791C25.7455 110.412 29.8033 106.932 29.8033 106.932C29.8033 106.932 30.2383 109.543 32.1242 109.666Z" fill="#44718B"/>
</svg>
