<svg width="54" height="54" viewBox="0 0 54 54" fill="none" xmlns="http://www.w3.org/2000/svg">
<path d="M18.2085 15.1471C18.1041 15.1475 18 15.1499 17.8938 15.1524C15.0246 15.2195 11.5079 16.0443 7.12793 17.962V38.2421C12.2693 35.8406 16.1567 35.1534 19.3295 35.4846C22.164 35.7804 24.3791 36.8729 26.3992 38.0834V17.837C24.435 16.3584 22.1525 15.3338 19.1258 15.1704C18.8203 15.1538 18.5145 15.1461 18.2085 15.1471ZM36.1419 15.1471C35.8289 15.1458 35.5224 15.1544 35.2245 15.1704C32.1979 15.3338 29.9156 16.3584 27.9512 17.837V38.0834C29.9712 36.8729 32.1865 35.7804 35.0209 35.4845C38.1937 35.1534 42.0811 35.8405 47.2225 38.2422V17.9621C42.8426 16.0444 39.3258 15.2196 36.4566 15.1523C36.3505 15.1499 36.2463 15.1474 36.1419 15.1471ZM36.6259 36.961C36.538 36.9608 36.4504 36.9624 36.364 36.9637C35.9572 36.97 35.5662 36.9945 35.1876 37.034C32.3168 37.3337 30.1449 38.5319 27.9514 39.9038V39.9271C27.3969 39.7613 26.8498 39.7296 26.3094 39.8463C24.1464 38.4983 21.9943 37.3296 19.163 37.034C18.6897 36.9846 18.1952 36.9604 17.6771 36.9638C14.9663 36.9815 11.5997 37.7786 7.12801 39.9584V43.5024C12.2694 41.1006 16.1565 40.4136 19.3295 40.7448C20.8984 40.9086 22.2768 41.3152 23.5385 41.8514C23.1424 42.3568 22.751 42.9571 22.3646 43.6587H32.2765C31.7748 42.9737 31.2784 42.3743 30.7853 41.8621C32.054 41.3202 33.441 40.9097 35.0207 40.7448C38.1937 40.4137 42.0808 41.1007 47.2224 43.5025V39.9585C42.7248 37.7662 39.3446 36.9699 36.6259 36.961Z" fill="white"/>
</svg>
