<svg width="145" height="132" viewBox="0 0 145 132" fill="none" xmlns="http://www.w3.org/2000/svg">
<path d="M115.721 56.773C115.721 56.773 120.612 52.6493 123.872 46.1504C127.133 39.6516 132.023 41.078 131.21 45.039C134.427 41.6692 137.361 43.0603 136.711 47.0212C139.888 43.8532 142.495 46.3876 140.948 49.2406C143.718 46.784 145.719 50.9042 142.949 57.5659C140.175 64.2241 128.763 75.6361 114.581 76.429C113.114 62.0047 115.721 56.773 115.721 56.773ZM29.3223 56.773C29.3223 56.773 24.4316 52.6493 21.1711 46.1504C17.9107 39.6516 13.02 41.078 13.8369 45.039C11.7782 42.1081 8.27451 43.1381 8.92443 47.1026C7.19253 43.6125 2.58866 46.4655 3.56535 49.637C0.795044 47.7362 -0.671802 50.9042 2.0985 57.5659C4.86881 64.2241 16.2804 75.6361 30.4624 76.429C31.9329 62.0047 29.3223 56.773 29.3223 56.773Z" fill="#D86876"/>
<mask id="mask0_291_1450" style="mask-type:luminance" maskUnits="userSpaceOnUse" x="0" y="0" width="145" height="132">
<path d="M0 0H145V131.521H0V0Z" fill="white"/>
</mask>
<g mask="url(#mask0_291_1450)">
<path d="M56.7786 92.1242C42.5967 109.561 59.5489 120.502 60.5256 123.829C61.506 127.16 46.5071 132.392 45.5304 130.172C44.5501 127.953 47.8105 126.526 52.2147 124.307C34.1188 108.294 47.6472 90.857 47.6472 90.857C47.6472 90.857 53.1914 90.857 56.7786 92.1242ZM88.7515 92.1242C102.933 109.561 85.9812 120.502 85.0009 123.829C84.0242 127.16 99.0231 132.392 99.9998 130.172C100.98 127.953 97.7196 126.526 93.3155 124.307C111.411 108.294 97.8794 90.857 97.8794 90.857C97.8794 90.857 92.3388 90.857 88.7515 92.1242ZM85.8832 8.58035C84.253 8.58035 82.1035 12.2864 80.4806 15.6597C78.7704 11.4794 73.8071 0.124023 70.4377 0.124023C66.3095 0.124023 59.7595 17.3376 59.7595 17.3376C63.1144 22.417 75.2123 19.0968 79.5402 17.7057C78.6978 19.6065 78.1496 21.0471 78.1496 21.0471C81.1232 25.5532 93.5987 20.9339 93.5987 20.9339C93.5987 20.9339 88.875 8.58035 85.8832 8.58035ZM13.8371 45.0392C11.7784 42.1083 8.27466 43.1384 8.92457 47.1028C7.19268 43.6127 2.58881 46.4657 3.5655 49.6372C1.24178 48.0408 -0.166973 50.0195 1.08203 54.6318L20.4197 44.8303C17.2137 39.8819 13.0819 41.3721 13.8371 45.0392ZM140.948 49.2408C142.495 46.3878 139.888 43.8534 136.711 47.0214C137.361 43.0605 134.427 41.6694 131.21 45.0392C131.962 41.3827 127.855 39.8925 124.657 44.7879L143.914 54.6318C145.073 49.7753 143.283 47.1701 140.948 49.2408Z" fill="#B74750"/>
</g>
<path d="M109.341 94.5771C99.9993 98.892 45.8349 98.892 36.4928 94.5771C27.1507 90.2586 27.2451 27.2379 35.1712 20.6187C43.0972 13.9995 102.138 13.9995 110.068 20.6187C117.994 27.2379 118.683 90.2586 109.341 94.5771ZM109.341 94.5771C99.9993 98.892 45.8349 98.892 36.4928 94.5771C27.1507 90.2586 27.2451 27.2379 35.1712 20.6187C43.0972 13.9995 102.138 13.9995 110.068 20.6187C117.994 27.2379 118.683 90.2586 109.341 94.5771Z" fill="#F4959A"/>
<path d="M73.092 27.3545C73.1065 26.9121 73.4623 26.5439 73.927 26.5439C74.3664 26.5439 74.773 26.9156 74.7585 27.3545C74.6895 29.4146 74.6242 31.4747 74.5552 33.5348C74.5407 33.9738 74.1848 34.3454 73.7201 34.3454C73.2808 34.3454 72.8741 33.9702 72.8886 33.5348C72.9576 31.4747 73.023 29.4146 73.092 27.3545ZM64.8065 30.3527C65.2422 31.9384 65.6815 33.5207 66.1208 35.1065C66.2334 35.5135 66.7199 35.8038 67.1447 35.6693C67.5768 35.5348 67.8491 35.1135 67.7293 34.6746C67.2899 33.0888 66.8506 31.5066 66.4113 29.9208C66.2987 29.5137 65.8122 29.2235 65.3874 29.3545C64.9553 29.4925 64.683 29.9137 64.8065 30.3527ZM80.2773 29.9208C79.9905 31.542 79.5584 33.1349 78.9884 34.6817C78.8432 35.0817 79.1554 35.5879 79.5693 35.6799C80.0377 35.7825 80.4371 35.5418 80.5968 35.1135C81.1669 33.5632 81.5953 31.9738 81.8858 30.3527C81.9584 29.9385 81.7696 29.4607 81.3049 29.3545C80.8982 29.266 80.3572 29.4748 80.2773 29.9208ZM75.9748 86.2621C77.0096 85.9719 77.4453 87.5364 76.4178 87.8231C74.0941 88.4709 71.6433 88.5311 69.2832 88.0284C68.8403 87.9364 68.5861 87.4373 68.7023 87.0338C68.8258 86.5948 69.2869 86.3754 69.7262 86.4674C71.7958 86.9063 73.9416 86.8285 75.9748 86.2621ZM75.9748 86.2621C77.0096 85.9719 77.4453 87.5364 76.4178 87.8231C74.0941 88.4709 71.6433 88.5311 69.2832 88.0284C68.8403 87.9364 68.5861 87.4373 68.7023 87.0338C68.8258 86.5948 69.2869 86.3754 69.7262 86.4674C71.7958 86.9063 73.9416 86.8285 75.9748 86.2621Z" fill="#D86876"/>
<path d="M72.1878 63.35C65.2167 63.4279 57.1054 58.4157 58.6449 46.632C60.1045 35.4643 68.528 32.3352 75.4846 33.0573C83.2872 33.8644 89.623 39.8004 87.9964 50.7664C86.4932 60.8828 78.2912 63.2828 72.1878 63.35ZM72.1878 63.35C65.2167 63.4279 57.1054 58.4157 58.6449 46.632C60.1045 35.4643 68.528 32.3352 75.4846 33.0573C83.2872 33.8644 89.623 39.8004 87.9964 50.7664C86.4932 60.8828 78.2912 63.2828 72.1878 63.35Z" fill="white"/>
<path d="M72.4604 59.1767C72.1228 59.1413 71.796 59.0917 71.4801 59.0316C67.3555 58.2316 62.6899 55.7184 63.6267 47.1453C64.607 38.2111 70.2602 36.7173 74.8568 37.1952C80.0089 37.7262 83.9701 42.6923 82.8155 50.6531C81.7517 57.998 76.4689 59.5908 72.4604 59.1767ZM61.4518 69.7852C56.6555 71.7391 57.8392 83.7953 72.4677 83.7953C87.0926 83.7953 89.3546 71.9585 83.48 69.7852C78.9523 68.1073 75.474 71.7143 72.7073 71.6576C69.8209 71.5939 67.2285 67.4277 61.4518 69.7852Z" fill="#0E0F1A"/>
<path d="M64.2912 82.1493C64.2912 82.1493 61.3321 81.1618 60.2174 78.507C61.7968 75.2682 63.7756 73.4913 64.5816 73.6541C65.493 73.8417 65.5075 78.953 64.2912 82.1493ZM80.6008 82.2024C80.6008 82.2024 83.4582 81.1582 85.0195 78.7477C83.578 76.0434 81.4068 73.2576 80.3067 73.6541C79.2138 74.0505 79.3845 79.0026 80.6008 82.2024Z" fill="white"/>
<path d="M115.928 48.2818C115.844 48.3065 115.761 48.3313 115.677 48.3561C109.091 50.1366 102.058 47.1101 99.8722 37.2981C97.8534 28.2506 103.739 23.6243 108.662 21.6385C109.254 21.3978 109.875 21.2067 110.514 21.0615C113.426 24.3924 115.285 35.5849 115.928 48.2818ZM101.619 59.0212C104.229 61.0601 107.838 60.8689 109.149 58.9893C110.322 57.3115 109.526 54.1364 106.84 52.1117C104 49.9773 101.317 50.0658 99.8758 52.225C98.8846 53.7081 99.2077 57.1416 101.619 59.0212ZM37.0882 76.6524C35.9118 72.0331 32.9346 70.1146 29.8193 70.2031C30.2514 76.1958 30.9848 81.6858 32.0305 85.9583C32.1104 85.9264 32.1939 85.8981 32.2701 85.8627C35.084 84.6273 38.4098 81.8487 37.0882 76.6524ZM39.274 65.6227C38.0032 64.2741 36.0026 64.0688 35.1203 64.9891C34.3361 65.8139 34.5067 67.6297 35.8211 68.9783C37.2044 70.4013 38.6894 70.5818 39.6661 69.5164C40.3342 68.7837 40.4431 66.8652 39.274 65.6227ZM47.2763 85.4839C49.0989 83.569 48.7685 81.9265 47.6611 80.7053C46.6772 79.6151 45.0796 79.0877 43.2751 80.7089C41.3689 82.4186 41.4706 84.1707 42.7486 85.5264C43.6273 86.4609 45.755 87.0803 47.2763 85.4839ZM90.3231 28.0807C91.2308 29.8754 92.4762 30.0311 93.6054 29.5178C94.6148 29.0612 95.3736 28.0241 94.6656 26.3144C93.9176 24.5092 92.6541 24.1588 91.3833 24.764C90.5156 25.1817 89.5607 26.5834 90.3231 28.0807Z" fill="#B74750" fill-opacity="0.4"/>
</svg>
