<svg width="46" height="49" viewBox="0 0 46 49" fill="none" xmlns="http://www.w3.org/2000/svg">
<mask id="mask0_2222_647" style="mask-type:luminance" maskUnits="userSpaceOnUse" x="32" y="36" width="9" height="10">
<path d="M32.9983 36H40.9999V45.9811H32.9983V36Z" fill="white"/>
</mask>
<g mask="url(#mask0_2222_647)">
<path d="M40.9976 40.9623C40.9976 41.1247 40.9914 41.2872 40.979 41.4489C40.966 41.6105 40.9474 41.7714 40.9226 41.9307C40.8972 42.09 40.8662 42.2478 40.8284 42.4032C40.7912 42.5586 40.7478 42.7116 40.6988 42.8615C40.6498 43.0114 40.5946 43.1581 40.5339 43.3018C40.4731 43.4454 40.4074 43.5843 40.3354 43.7193C40.2641 43.8543 40.1879 43.9853 40.106 44.1109C40.0242 44.2365 39.938 44.3565 39.8468 44.4711C39.7563 44.5865 39.6608 44.6956 39.5616 44.7984C39.4618 44.902 39.3589 44.9985 39.2516 45.0887C39.145 45.179 39.0346 45.2622 38.9211 45.3391C38.8077 45.416 38.6911 45.4851 38.5727 45.5471C38.4536 45.6091 38.3327 45.664 38.2093 45.7111C38.0866 45.7582 37.9613 45.7982 37.8354 45.8296C37.709 45.861 37.5818 45.8853 37.4541 45.901C37.3258 45.9167 37.1974 45.9253 37.0691 45.9253C36.9401 45.9253 36.8118 45.9167 36.684 45.901C36.5557 45.8853 36.4286 45.861 36.3021 45.8296C36.1762 45.7982 36.0516 45.7582 35.9282 45.7111C35.8054 45.664 35.6845 45.6091 35.5655 45.5471C35.4464 45.4851 35.3305 45.416 35.217 45.3391C35.1036 45.2622 34.9932 45.179 34.8859 45.0887C34.7793 44.9985 34.6757 44.902 34.5765 44.7984C34.4767 44.6956 34.3818 44.5865 34.2907 44.4711C34.1995 44.3565 34.1134 44.2365 34.0315 44.1109C33.9503 43.9853 33.8734 43.8543 33.8021 43.7193C33.7308 43.5843 33.6644 43.4454 33.6037 43.3018C33.5435 43.1581 33.4884 43.0114 33.4388 42.8615C33.3898 42.7116 33.3464 42.5586 33.3092 42.4032C33.272 42.2478 33.2403 42.09 33.2155 41.9307C33.1901 41.7714 33.1715 41.6105 33.1591 41.4489C33.1461 41.2872 33.1399 41.1247 33.1399 40.9623C33.1399 40.7998 33.1461 40.6374 33.1591 40.4757C33.1715 40.314 33.1901 40.1539 33.2155 39.9938C33.2403 39.8345 33.272 39.6776 33.3092 39.5214C33.3464 39.366 33.3898 39.2137 33.4388 39.0631C33.4884 38.9132 33.5435 38.7664 33.6037 38.6228C33.6644 38.48 33.7308 38.3403 33.8021 38.2053C33.8734 38.0703 33.9503 37.94 34.0315 37.8137C34.1134 37.6881 34.1995 37.568 34.2907 37.4534C34.3818 37.3381 34.4767 37.229 34.5765 37.1262C34.6757 37.0234 34.7793 36.9261 34.8859 36.8358C34.9932 36.7456 35.1036 36.6624 35.217 36.5855C35.3305 36.5093 35.4464 36.4395 35.5655 36.3775C35.6845 36.3155 35.8054 36.2606 35.9282 36.2135C36.0516 36.1664 36.1762 36.1264 36.3021 36.095C36.4286 36.0636 36.5557 36.0392 36.684 36.0235C36.8118 36.0078 36.9401 36 37.0691 36C37.1974 36 37.3258 36.0078 37.4541 36.0235C37.5818 36.0392 37.709 36.0636 37.8354 36.095C37.9613 36.1264 38.0866 36.1664 38.2093 36.2135C38.3327 36.2606 38.4536 36.3155 38.5727 36.3775C38.6911 36.4395 38.8077 36.5093 38.9211 36.5855C39.0346 36.6624 39.145 36.7456 39.2516 36.8358C39.3589 36.9261 39.4618 37.0234 39.5616 37.1262C39.6608 37.229 39.7563 37.3381 39.8468 37.4534C39.938 37.568 40.0242 37.6881 40.106 37.8137C40.1879 37.94 40.2641 38.0703 40.3354 38.2053C40.4074 38.3403 40.4731 38.48 40.5339 38.6228C40.5946 38.7664 40.6498 38.9132 40.6988 39.0631C40.7478 39.2137 40.7912 39.366 40.8284 39.5214C40.8662 39.6776 40.8972 39.8345 40.9226 39.9938C40.9474 40.1539 40.966 40.314 40.979 40.4757C40.9914 40.6374 40.9976 40.7998 40.9976 40.9623Z" fill="#FBCD2F"/>
</g>
<path d="M40.1071 40.9624C40.1071 43.0837 38.7455 44.8032 37.0664 44.8032C36.1432 44.8032 35.3148 44.2829 34.7574 43.4588C34.6644 43.3231 34.5807 43.181 34.5063 43.0303C34.376 42.7745 34.27 42.499 34.1907 42.2063C34.0853 41.817 34.0276 41.3964 34.0276 40.9624C34.0276 38.8419 35.3898 37.1216 37.0689 37.1216C37.4124 37.1216 37.7453 37.1938 38.0535 37.3272C38.2848 37.4277 38.503 37.5611 38.7058 37.7251C38.8248 37.8232 38.9371 37.9284 39.0456 38.0429C39.6954 38.7469 40.1071 39.7938 40.1071 40.9624Z" fill="#FFB102"/>
<path d="M38.7059 37.7251L34.5063 43.0303C34.5832 43.181 34.6669 43.3231 34.7575 43.4588L39.0456 38.0453C38.9371 37.9284 38.8249 37.8232 38.7059 37.7251Z" fill="#FFBC19"/>
<path d="M37.0689 37.1216C35.3898 37.1216 34.0276 38.8419 34.0276 40.9624C34.0276 41.3964 34.0853 41.817 34.1907 42.2063L38.0535 37.3272C37.7453 37.1938 37.4124 37.1216 37.0689 37.1216Z" fill="#FFBC19"/>
<path d="M39.1244 37.9259C39.0147 37.8059 38.8956 37.6944 38.7722 37.5947C38.5583 37.4221 38.3314 37.2832 38.0933 37.1796C37.7653 37.0375 37.4193 36.9653 37.069 36.9653C35.3236 36.9653 33.9043 38.7578 33.9043 40.9623C33.9043 41.4049 33.962 41.8421 34.0742 42.2564C34.1554 42.557 34.2658 42.8466 34.4022 43.1142C34.4816 43.2696 34.5702 43.4203 34.6645 43.5592C35.2665 44.4468 36.1433 44.9561 37.069 44.9561C38.8138 44.9561 40.233 43.1637 40.233 40.96C40.2312 39.7937 39.8275 38.6856 39.1244 37.9259ZM37.069 44.7058C36.2028 44.7058 35.3806 44.2271 34.817 43.3952C34.7265 43.2641 34.6446 43.1221 34.5702 42.9777C34.4419 42.7242 34.3383 42.4542 34.2639 42.1733C34.1579 41.7832 34.1052 41.3743 34.1052 40.96C34.1052 38.8944 35.4339 37.2157 37.069 37.2157C37.397 37.2157 37.7213 37.2832 38.0294 37.4166C38.252 37.5139 38.4659 37.6418 38.6662 37.8035C38.7834 37.8977 38.8931 38.0013 38.9967 38.1151C39.6558 38.8277 40.0346 39.8659 40.0346 40.96C40.0328 43.0248 38.704 44.7058 37.069 44.7058Z" fill="#E99302"/>
<mask id="mask1_2222_647" style="mask-type:luminance" maskUnits="userSpaceOnUse" x="31" y="36" width="8" height="11">
<path d="M31 36.9399H38.8714V46.9995H31V36.9399Z" fill="white"/>
</mask>
<g mask="url(#mask1_2222_647)">
<path d="M38.8602 42.0365C38.8602 42.1989 38.854 42.3614 38.841 42.5231C38.8286 42.6847 38.81 42.8456 38.7845 43.0049C38.7597 43.1643 38.7281 43.3212 38.6909 43.4774C38.6537 43.6328 38.6103 43.7858 38.5613 43.9357C38.5117 44.0856 38.4572 44.2324 38.3964 44.376C38.3356 44.5196 38.2693 44.6585 38.198 44.7935C38.1267 44.9285 38.0498 45.0595 37.9686 45.1851C37.8867 45.3107 37.8005 45.4307 37.7094 45.5453C37.6183 45.6607 37.5234 45.7698 37.4236 45.8726C37.3244 45.9762 37.2208 46.0727 37.1142 46.163C37.0069 46.2532 36.8965 46.3364 36.7831 46.4133C36.6696 46.4902 36.5536 46.5593 36.4346 46.6213C36.3162 46.6833 36.1946 46.7382 36.0719 46.7853C35.9485 46.8324 35.8239 46.8724 35.698 46.9038C35.5715 46.9352 35.4444 46.9595 35.3167 46.9752C35.1883 46.9909 35.06 46.9996 34.931 46.9996C34.8027 46.9996 34.6743 46.9909 34.546 46.9752C34.4182 46.9595 34.2911 46.9352 34.1646 46.9038C34.0388 46.8724 33.9141 46.8324 33.7908 46.7853C33.6674 46.7382 33.5465 46.6833 33.428 46.6213C33.309 46.5593 33.1924 46.4902 33.079 46.4133C32.9655 46.3364 32.8557 46.2532 32.7485 46.163C32.6412 46.0727 32.5383 45.9762 32.4391 45.8726C32.3392 45.7698 32.2444 45.6607 32.1532 45.5453C32.0621 45.4307 31.9759 45.3107 31.8941 45.1851C31.8128 45.0595 31.7359 44.9285 31.6646 44.7935C31.5927 44.6585 31.527 44.5196 31.4662 44.376C31.4055 44.2324 31.3509 44.0856 31.3013 43.9357C31.2523 43.7858 31.2089 43.6328 31.1717 43.4774C31.1339 43.3212 31.1029 43.1643 31.0781 43.0049C31.0527 42.8456 31.0341 42.6847 31.021 42.5231C31.0086 42.3614 31.0024 42.1989 31.0024 42.0365C31.0024 41.874 31.0086 41.7116 31.021 41.5499C31.0341 41.3883 31.0527 41.2282 31.0781 41.0681C31.1029 40.9087 31.1339 40.7518 31.1717 40.5956C31.2089 40.4402 31.2523 40.2872 31.3013 40.1373C31.3509 39.9874 31.4055 39.8406 31.4662 39.697C31.527 39.5542 31.5927 39.4145 31.6646 39.2795C31.7359 39.1445 31.8128 39.0142 31.8941 38.8879C31.9759 38.7623 32.0621 38.6422 32.1532 38.5277C32.2444 38.4123 32.3392 38.3032 32.4391 38.2004C32.5383 38.0976 32.6412 38.0003 32.7485 37.91C32.8557 37.8198 32.9655 37.7366 33.079 37.6597C33.1924 37.5836 33.309 37.5137 33.428 37.4517C33.5465 37.3897 33.6674 37.3348 33.7908 37.2877C33.9141 37.2406 34.0388 37.2006 34.1646 37.1692C34.2911 37.1378 34.4182 37.1135 34.546 37.0978C34.6743 37.0821 34.8027 37.0742 34.931 37.0742C35.06 37.0742 35.1883 37.0821 35.3167 37.0978C35.4444 37.1135 35.5715 37.1378 35.698 37.1692C35.8239 37.2006 35.9485 37.2406 36.0719 37.2877C36.1946 37.3348 36.3162 37.3897 36.4346 37.4517C36.5536 37.5137 36.6696 37.5836 36.7831 37.6597C36.8965 37.7366 37.0069 37.8198 37.1142 37.91C37.2208 38.0003 37.3244 38.0976 37.4236 38.2004C37.5234 38.3032 37.6183 38.4123 37.7094 38.5277C37.8005 38.6422 37.8867 38.7623 37.9686 38.8879C38.0498 39.0142 38.1267 39.1445 38.198 39.2795C38.2693 39.4145 38.3356 39.5542 38.3964 39.697C38.4572 39.8406 38.5117 39.9874 38.5613 40.1373C38.6103 40.2872 38.6537 40.4402 38.6909 40.5956C38.7281 40.7518 38.7597 40.9087 38.7845 41.0681C38.81 41.2282 38.8286 41.3883 38.841 41.5499C38.854 41.7116 38.8602 41.874 38.8602 42.0365Z" fill="#FBCD2F"/>
</g>
<path d="M37.9699 42.0366C37.9699 44.1579 36.6083 45.8774 34.9292 45.8774C34.006 45.8774 33.1776 45.3571 32.6195 44.533C32.5272 44.3973 32.4435 44.2552 32.3684 44.1045C32.2388 43.8487 32.1328 43.5732 32.0535 43.2805C31.9474 42.8912 31.8904 42.4706 31.8904 42.0366C31.8904 39.9161 33.252 38.1958 34.931 38.1958C35.2752 38.1958 35.6075 38.268 35.9163 38.4014C36.1476 38.5019 36.3658 38.6353 36.5686 38.7993C36.6876 38.8974 36.7998 39.0026 36.9077 39.1172C37.5582 39.8211 37.9699 40.8673 37.9699 42.0366Z" fill="#FFB102"/>
<path d="M36.5685 38.7993L32.3684 44.1046C32.4459 44.2552 32.5296 44.3973 32.6195 44.5331L36.9077 39.1195C36.7998 39.0026 36.6876 38.8974 36.5685 38.7993Z" fill="#FFBC19"/>
<path d="M34.931 38.1958C33.252 38.1958 31.8904 39.9161 31.8904 42.0366C31.8904 42.4706 31.9474 42.8912 32.0535 43.2805L35.9163 38.4014C35.6075 38.268 35.2752 38.1958 34.931 38.1958Z" fill="#FFBC19"/>
<path d="M36.9872 39.0001C36.8774 38.8801 36.7584 38.7686 36.635 38.669C36.4211 38.4963 36.1942 38.3566 35.9561 38.2538C35.6274 38.1118 35.2815 38.0396 34.9311 38.0396C33.1864 38.0396 31.7671 39.832 31.7671 42.0365C31.7671 42.4792 31.8241 42.9163 31.937 43.3307C32.0182 43.6312 32.1286 43.9208 32.265 44.1884C32.3443 44.3438 32.4324 44.4945 32.5273 44.6334C33.1287 45.521 34.006 46.0304 34.9311 46.0304C36.6766 46.0304 38.0958 44.2379 38.0958 42.0342C38.0933 40.8672 37.6903 39.7598 36.9872 39.0001ZM34.9311 45.78C34.0656 45.78 33.2434 45.3013 32.6792 44.4694C32.5893 44.3383 32.5074 44.1963 32.4324 44.0519C32.3047 43.7984 32.2011 43.5284 32.1261 43.2475C32.0207 42.8574 31.9674 42.4485 31.9674 42.0342C31.9674 39.9686 33.2961 38.2899 34.9311 38.2899C35.2598 38.2899 35.5834 38.3566 35.8922 38.4908C36.1148 38.5881 36.3287 38.716 36.529 38.8777C36.6456 38.9719 36.7559 39.0755 36.8595 39.1893C37.5186 39.9019 37.8974 40.9402 37.8974 42.0342C37.8949 44.099 36.5662 45.78 34.9311 45.78Z" fill="#E99302"/>
<path d="M35.2956 41.8138C35.254 41.7942 35.2119 41.7722 35.1722 41.7526V40.2827C35.1833 40.2827 35.1945 40.2827 35.2057 40.2827C35.5734 40.2827 35.8598 40.4499 36.0142 40.5723L36.1946 39.9099C35.9745 39.7459 35.6217 39.6007 35.2205 39.6007C35.2057 39.6007 35.1877 39.6007 35.1722 39.6007V39.0137H34.9012V39.6344C34.2421 39.7788 33.8546 40.369 33.8546 41.0675C33.8546 41.6663 34.1894 42.1646 34.9012 42.4817V44.1463C34.8901 44.1463 34.8795 44.1463 34.8684 44.1463C34.5087 44.1463 34.1324 43.9595 33.9185 43.7845L33.738 44.4774C34.0152 44.6831 34.4164 44.8173 34.8504 44.8173C34.8659 44.8173 34.8839 44.8173 34.8994 44.8173V45.4043H35.1703V44.7921C35.9125 44.6666 36.3317 44.0937 36.3317 43.3199C36.3335 42.5767 35.9832 42.145 35.2956 41.8138ZM34.9012 41.5964C34.6569 41.4324 34.5422 41.2543 34.5422 40.9647C34.5422 40.6947 34.6675 40.4553 34.9012 40.347V41.5964ZM35.1722 44.1047V42.6261C35.5051 42.8294 35.6372 43.0522 35.6372 43.403C35.6397 43.7287 35.4896 44.0011 35.1722 44.1047Z" fill="#E99302"/>
<mask id="mask2_2222_647" style="mask-type:luminance" maskUnits="userSpaceOnUse" x="1" y="36" width="9" height="10">
<path d="M1.99829 36H9.99989V45.9811H1.99829V36Z" fill="white"/>
</mask>
<g mask="url(#mask2_2222_647)">
<path d="M9.99764 40.9623C9.99764 41.1247 9.99144 41.2872 9.97904 41.4489C9.96602 41.6105 9.94742 41.7714 9.92262 41.9307C9.89719 42.09 9.86619 42.2478 9.82837 42.4032C9.79117 42.5586 9.74776 42.7116 9.69878 42.8615C9.6498 43.0114 9.59462 43.1581 9.53385 43.3018C9.47309 43.4454 9.40736 43.5843 9.33544 43.7193C9.26413 43.8543 9.18787 43.9853 9.10602 44.1109C9.02418 44.2365 8.93799 44.3565 8.84685 44.4711C8.75632 44.5865 8.66084 44.6956 8.56163 44.7984C8.4618 44.902 8.35888 44.9985 8.25161 45.0887C8.14497 45.179 8.0346 45.2622 7.92113 45.3391C7.80766 45.416 7.6911 45.4851 7.57267 45.5471C7.45362 45.6091 7.33272 45.664 7.20933 45.7111C7.08656 45.7582 6.96131 45.7982 6.83544 45.8296C6.70896 45.861 6.58185 45.8853 6.45412 45.901C6.32577 45.9167 6.19742 45.9253 6.06908 45.9253C5.94011 45.9253 5.81176 45.9167 5.68403 45.901C5.55568 45.8853 5.42858 45.861 5.30209 45.8296C5.17622 45.7982 5.05159 45.7582 4.92821 45.7111C4.80544 45.664 4.68453 45.6091 4.56548 45.5471C4.44644 45.4851 4.33049 45.416 4.21702 45.3391C4.10355 45.2622 3.99319 45.179 3.88592 45.0887C3.77927 44.9985 3.67573 44.902 3.57652 44.7984C3.4767 44.6956 3.38183 44.5865 3.29068 44.4711C3.19954 44.3565 3.11335 44.2365 3.03151 44.1109C2.95028 43.9853 2.8734 43.8543 2.80209 43.7193C2.73079 43.5843 2.66445 43.4454 2.60368 43.3018C2.54354 43.1581 2.48835 43.0114 2.43875 42.8615C2.38977 42.7116 2.34637 42.5586 2.30916 42.4032C2.27196 42.2478 2.24034 42.09 2.21554 41.9307C2.19012 41.7714 2.17151 41.6105 2.15911 41.4489C2.14609 41.2872 2.13989 41.1247 2.13989 40.9623C2.13989 40.7998 2.14609 40.6374 2.15911 40.4757C2.17151 40.314 2.19012 40.1539 2.21554 39.9938C2.24034 39.8345 2.27196 39.6776 2.30916 39.5214C2.34637 39.366 2.38977 39.2137 2.43875 39.0631C2.48835 38.9132 2.54354 38.7664 2.60368 38.6228C2.66445 38.48 2.73079 38.3403 2.80209 38.2053C2.8734 38.0703 2.95028 37.94 3.03151 37.8137C3.11335 37.6881 3.19954 37.568 3.29068 37.4534C3.38183 37.3381 3.4767 37.229 3.57652 37.1262C3.67573 37.0234 3.77927 36.9261 3.88592 36.8358C3.99319 36.7456 4.10355 36.6624 4.21702 36.5855C4.33049 36.5093 4.44644 36.4395 4.56548 36.3775C4.68453 36.3155 4.80544 36.2606 4.92821 36.2135C5.05159 36.1664 5.17622 36.1264 5.30209 36.095C5.42858 36.0636 5.55568 36.0392 5.68403 36.0235C5.81176 36.0078 5.94011 36 6.06908 36C6.19742 36 6.32577 36.0078 6.45412 36.0235C6.58185 36.0392 6.70896 36.0636 6.83544 36.095C6.96131 36.1264 7.08656 36.1664 7.20933 36.2135C7.33272 36.2606 7.45362 36.3155 7.57267 36.3775C7.6911 36.4395 7.80766 36.5093 7.92113 36.5855C8.0346 36.6624 8.14497 36.7456 8.25161 36.8358C8.35888 36.9261 8.4618 37.0234 8.56163 37.1262C8.66084 37.229 8.75632 37.3381 8.84685 37.4534C8.93799 37.568 9.02418 37.6881 9.10602 37.8137C9.18787 37.94 9.26413 38.0703 9.33544 38.2053C9.40736 38.3403 9.47309 38.48 9.53385 38.6228C9.59462 38.7664 9.6498 38.9132 9.69878 39.0631C9.74776 39.2137 9.79117 39.366 9.82837 39.5214C9.86619 39.6776 9.89719 39.8345 9.92262 39.9938C9.94742 40.1539 9.96602 40.314 9.97904 40.4757C9.99144 40.6374 9.99764 40.7998 9.99764 40.9623Z" fill="#FBCD2F"/>
</g>
<path d="M9.10707 40.9624C9.10707 43.0837 7.74546 44.8032 6.0664 44.8032C5.14316 44.8032 4.31479 44.2829 3.75737 43.4588C3.66437 43.3231 3.58066 43.181 3.50626 43.0303C3.37605 42.7745 3.27002 42.499 3.19066 42.2063C3.08525 41.817 3.02759 41.3964 3.02759 40.9624C3.02759 38.8419 4.38981 37.1216 6.06888 37.1216C6.41238 37.1216 6.74534 37.1938 7.0535 37.3272C7.28477 37.4277 7.50303 37.5611 7.70578 37.7251C7.82483 37.8232 7.93705 37.9284 8.04556 38.0429C8.69536 38.7469 9.10707 39.7938 9.10707 40.9624Z" fill="#FFB102"/>
<path d="M7.70587 37.7251L3.50635 43.0303C3.58323 43.181 3.66694 43.3231 3.75746 43.4588L8.04565 38.0453C7.93714 37.9284 7.82492 37.8232 7.70587 37.7251Z" fill="#FFBC19"/>
<path d="M6.06888 37.1216C4.38981 37.1216 3.02759 38.8419 3.02759 40.9624C3.02759 41.3964 3.08525 41.817 3.19066 42.2063L7.0535 37.3272C6.74534 37.1938 6.41238 37.1216 6.06888 37.1216Z" fill="#FFBC19"/>
<path d="M8.1244 37.9259C8.01465 37.8059 7.89561 37.6944 7.77222 37.5947C7.55831 37.4221 7.33137 37.2832 7.09328 37.1796C6.76528 37.0375 6.4193 36.9653 6.06897 36.9653C4.32357 36.9653 2.9043 38.7578 2.9043 40.9623C2.9043 41.4049 2.96196 41.8421 3.07419 42.2564C3.15541 42.557 3.26578 42.8466 3.40219 43.1142C3.48155 43.2696 3.57022 43.4203 3.66446 43.5592C4.26652 44.4468 5.14326 44.9561 6.06897 44.9561C7.81376 44.9561 9.23303 43.1637 9.23303 40.96C9.23117 39.7937 8.82752 38.6856 8.1244 37.9259ZM6.06897 44.7058C5.20278 44.7058 4.38061 44.2271 3.81699 43.3952C3.72647 43.2641 3.64462 43.1221 3.57022 42.9777C3.44187 42.7242 3.33832 42.4542 3.26392 42.1733C3.15789 41.7832 3.10519 41.3743 3.10519 40.96C3.10519 38.8944 4.43393 37.2157 6.06897 37.2157C6.39697 37.2157 6.72125 37.2832 7.02941 37.4166C7.25201 37.5139 7.46592 37.6418 7.66619 37.8035C7.78338 37.8977 7.89313 38.0013 7.99667 38.1151C8.65577 38.8277 9.03462 39.8659 9.03462 40.96C9.03276 43.0248 7.70401 44.7058 6.06897 44.7058Z" fill="#E99302"/>
<mask id="mask3_2222_647" style="mask-type:luminance" maskUnits="userSpaceOnUse" x="0" y="36" width="8" height="11">
<path d="M0 36.9399H7.87139V46.9995H0V36.9399Z" fill="white"/>
</mask>
<g mask="url(#mask3_2222_647)">
<path d="M7.86019 42.0365C7.86019 42.1989 7.85399 42.3614 7.84097 42.5231C7.82857 42.6847 7.80997 42.8456 7.78454 43.0049C7.75974 43.1643 7.72812 43.3212 7.69092 43.4774C7.65372 43.6328 7.61031 43.7858 7.56133 43.9357C7.51173 44.0856 7.45716 44.2324 7.3964 44.376C7.33564 44.5196 7.26929 44.6585 7.19799 44.7935C7.12668 44.9285 7.0498 45.0595 6.96857 45.1851C6.88673 45.3107 6.80054 45.4307 6.7094 45.5453C6.61825 45.6607 6.52339 45.7698 6.42356 45.8726C6.32435 45.9762 6.22081 46.0727 6.11416 46.163C6.00689 46.2532 5.89653 46.3364 5.78306 46.4133C5.66959 46.4902 5.55365 46.5593 5.4346 46.6213C5.31617 46.6833 5.19464 46.7382 5.07188 46.7853C4.94849 46.8324 4.82386 46.8724 4.69799 46.9038C4.57151 46.9352 4.4444 46.9595 4.31667 46.9752C4.18832 46.9909 4.05997 46.9996 3.93101 46.9996C3.80266 46.9996 3.67431 46.9909 3.54596 46.9752C3.41823 46.9595 3.29113 46.9352 3.16464 46.9038C3.03877 46.8724 2.91414 46.8324 2.79075 46.7853C2.66737 46.7382 2.54646 46.6833 2.42803 46.6213C2.30898 46.5593 2.19242 46.4902 2.07895 46.4133C1.96548 46.3364 1.85574 46.2532 1.74847 46.163C1.6412 46.0727 1.53828 45.9762 1.43907 45.8726C1.33924 45.7698 1.24438 45.6607 1.15323 45.5453C1.06209 45.4307 0.975902 45.3107 0.894057 45.1851C0.812832 45.0595 0.735947 44.9285 0.664643 44.7935C0.592718 44.6585 0.526994 44.5196 0.46623 44.376C0.405466 44.2324 0.350903 44.0856 0.3013 43.9357C0.252317 43.7858 0.208914 43.6328 0.171712 43.4774C0.133889 43.3212 0.102888 43.1643 0.0780861 43.0049C0.0526646 42.8456 0.0340633 42.6847 0.0210426 42.5231C0.00864179 42.3614 0.00244141 42.1989 0.00244141 42.0365C0.00244141 41.874 0.00864179 41.7116 0.0210426 41.5499C0.0340633 41.3883 0.0526646 41.2282 0.0780861 41.0681C0.102888 40.9087 0.133889 40.7518 0.171712 40.5956C0.208914 40.4402 0.252317 40.2872 0.3013 40.1373C0.350903 39.9874 0.405466 39.8406 0.46623 39.697C0.526994 39.5542 0.592718 39.4145 0.664643 39.2795C0.735947 39.1445 0.812832 39.0142 0.894057 38.8879C0.975902 38.7623 1.06209 38.6422 1.15323 38.5277C1.24438 38.4123 1.33924 38.3032 1.43907 38.2004C1.53828 38.0976 1.6412 38.0003 1.74847 37.91C1.85574 37.8198 1.96548 37.7366 2.07895 37.6597C2.19242 37.5836 2.30898 37.5137 2.42803 37.4517C2.54646 37.3897 2.66737 37.3348 2.79075 37.2877C2.91414 37.2406 3.03877 37.2006 3.16464 37.1692C3.29113 37.1378 3.41823 37.1135 3.54596 37.0978C3.67431 37.0821 3.80266 37.0742 3.93101 37.0742C4.05997 37.0742 4.18832 37.0821 4.31667 37.0978C4.4444 37.1135 4.57151 37.1378 4.69799 37.1692C4.82386 37.2006 4.94849 37.2406 5.07188 37.2877C5.19464 37.3348 5.31617 37.3897 5.4346 37.4517C5.55365 37.5137 5.66959 37.5836 5.78306 37.6597C5.89653 37.7366 6.00689 37.8198 6.11416 37.91C6.22081 38.0003 6.32435 38.0976 6.42356 38.2004C6.52339 38.3032 6.61825 38.4123 6.7094 38.5277C6.80054 38.6422 6.88673 38.7623 6.96857 38.8879C7.0498 39.0142 7.12668 39.1445 7.19799 39.2795C7.26929 39.4145 7.33564 39.5542 7.3964 39.697C7.45716 39.8406 7.51173 39.9874 7.56133 40.1373C7.61031 40.2872 7.65372 40.4402 7.69092 40.5956C7.72812 40.7518 7.75974 40.9087 7.78454 41.0681C7.80997 41.2282 7.82857 41.3883 7.84097 41.5499C7.85399 41.7116 7.86019 41.874 7.86019 42.0365Z" fill="#FBCD2F"/>
</g>
<path d="M6.96986 42.0366C6.96986 44.1579 5.60825 45.8774 3.92919 45.8774C3.00595 45.8774 2.17758 45.3571 1.61955 44.533C1.52716 44.3973 1.44346 44.2552 1.36843 44.1045C1.23884 43.8487 1.13282 43.5732 1.05345 43.2805C0.947424 42.8912 0.890381 42.4706 0.890381 42.0366C0.890381 39.9161 2.25199 38.1958 3.93105 38.1958C4.27517 38.1958 4.60751 38.268 4.91629 38.4014C5.14757 38.5019 5.36582 38.6353 5.56857 38.7993C5.68762 38.8974 5.79985 39.0026 5.90773 39.1172C6.55815 39.8211 6.96986 40.8673 6.96986 42.0366Z" fill="#FFB102"/>
<path d="M5.56855 38.7993L1.36841 44.1046C1.44591 44.2552 1.52962 44.3973 1.61952 44.5331L5.90771 39.1195C5.79982 39.0026 5.6876 38.8974 5.56855 38.7993Z" fill="#FFBC19"/>
<path d="M3.93105 38.1958C2.25199 38.1958 0.890381 39.9161 0.890381 42.0366C0.890381 42.4706 0.947424 42.8912 1.05345 43.2805L4.91629 38.4014C4.60751 38.268 4.27517 38.1958 3.93105 38.1958Z" fill="#FFBC19"/>
<path d="M5.98719 39.0001C5.87745 38.8801 5.7584 38.7686 5.63501 38.669C5.4211 38.4963 5.19416 38.3566 4.95607 38.2538C4.62745 38.1118 4.28147 38.0396 3.93115 38.0396C2.18636 38.0396 0.76709 39.832 0.76709 42.0365C0.76709 42.4792 0.824133 42.9163 0.93698 43.3307C1.01821 43.6312 1.12857 43.9208 1.26498 44.1884C1.34435 44.3438 1.43239 44.4945 1.52726 44.6334C2.12869 45.521 3.00605 46.0304 3.93115 46.0304C5.67655 46.0304 7.09582 44.2379 7.09582 42.0342C7.09334 40.8672 6.69032 39.7598 5.98719 39.0001ZM3.93115 45.78C3.06557 45.78 2.2434 45.3013 1.67917 44.4694C1.58926 44.3383 1.50742 44.1963 1.43239 44.0519C1.30466 43.7984 1.20112 43.5284 1.12609 43.2475C1.02069 42.8574 0.967362 42.4485 0.967362 42.0342C0.967362 39.9686 2.2961 38.2899 3.93115 38.2899C4.25977 38.2899 4.58343 38.3566 4.89221 38.4908C5.1148 38.5881 5.32871 38.716 5.52899 38.8777C5.64555 38.9719 5.75592 39.0755 5.85947 39.1893C6.51857 39.9019 6.89741 40.9402 6.89741 42.0342C6.89493 44.099 5.56619 45.78 3.93115 45.78Z" fill="#E99302"/>
<path d="M4.29557 41.8138C4.25403 41.7942 4.21187 41.7722 4.17219 41.7526V40.2827C4.18335 40.2827 4.19451 40.2827 4.20567 40.2827C4.57335 40.2827 4.85981 40.4499 5.0142 40.5723L5.19463 39.9099C4.97452 39.7459 4.62171 39.6007 4.22055 39.6007C4.20567 39.6007 4.18769 39.6007 4.17219 39.6007V39.0137H3.90123V39.6344C3.24213 39.7788 2.8546 40.369 2.8546 41.0675C2.8546 41.6663 3.18943 42.1646 3.90123 42.4817V44.1463C3.89007 44.1463 3.87953 44.1463 3.86837 44.1463C3.50874 44.1463 3.13238 43.9595 2.91847 43.7845L2.73804 44.4774C3.01519 44.6831 3.41636 44.8173 3.85039 44.8173C3.86589 44.8173 3.88387 44.8173 3.89937 44.8173V45.4043H4.17033V44.7921C4.91251 44.6666 5.33166 44.0937 5.33166 43.3199C5.33352 42.5767 4.9832 42.145 4.29557 41.8138ZM3.90123 41.5964C3.65693 41.4324 3.54223 41.2543 3.54223 40.9647C3.54223 40.6947 3.66747 40.4553 3.90123 40.347V41.5964ZM4.17219 44.1047V42.6261C4.50515 42.8294 4.63722 43.0522 4.63722 43.403C4.6397 43.7287 4.48965 44.0011 4.17219 44.1047Z" fill="#E99302"/>
<mask id="mask4_2222_647" style="mask-type:luminance" maskUnits="userSpaceOnUse" x="37" y="38" width="9" height="10">
<path d="M37.9983 38H45.9999V47.9811H37.9983V38Z" fill="white"/>
</mask>
<g mask="url(#mask4_2222_647)">
<path d="M45.9976 42.9623C45.9976 43.1247 45.9914 43.2872 45.979 43.4489C45.966 43.6105 45.9474 43.7714 45.9226 43.9307C45.8972 44.09 45.8662 44.2478 45.8284 44.4032C45.7912 44.5586 45.7478 44.7116 45.6988 44.8615C45.6498 45.0114 45.5946 45.1581 45.5339 45.3018C45.4731 45.4454 45.4074 45.5843 45.3354 45.7193C45.2641 45.8543 45.1879 45.9853 45.106 46.1109C45.0242 46.2365 44.938 46.3565 44.8468 46.4711C44.7563 46.5865 44.6608 46.6956 44.5616 46.7984C44.4618 46.902 44.3589 46.9985 44.2516 47.0887C44.145 47.179 44.0346 47.2622 43.9211 47.3391C43.8077 47.416 43.6911 47.4851 43.5727 47.5471C43.4536 47.6091 43.3327 47.664 43.2093 47.7111C43.0866 47.7582 42.9613 47.7982 42.8354 47.8296C42.709 47.861 42.5818 47.8853 42.4541 47.901C42.3258 47.9167 42.1974 47.9253 42.0691 47.9253C41.9401 47.9253 41.8118 47.9167 41.684 47.901C41.5557 47.8853 41.4286 47.861 41.3021 47.8296C41.1762 47.7982 41.0516 47.7582 40.9282 47.7111C40.8054 47.664 40.6845 47.6091 40.5655 47.5471C40.4464 47.4851 40.3305 47.416 40.217 47.3391C40.1036 47.2622 39.9932 47.179 39.8859 47.0887C39.7793 46.9985 39.6757 46.902 39.5765 46.7984C39.4767 46.6956 39.3818 46.5865 39.2907 46.4711C39.1995 46.3565 39.1134 46.2365 39.0315 46.1109C38.9503 45.9853 38.8734 45.8543 38.8021 45.7193C38.7308 45.5843 38.6644 45.4454 38.6037 45.3018C38.5435 45.1581 38.4884 45.0114 38.4388 44.8615C38.3898 44.7116 38.3464 44.5586 38.3092 44.4032C38.272 44.2478 38.2403 44.09 38.2155 43.9307C38.1901 43.7714 38.1715 43.6105 38.1591 43.4489C38.1461 43.2872 38.1399 43.1247 38.1399 42.9623C38.1399 42.7998 38.1461 42.6374 38.1591 42.4757C38.1715 42.314 38.1901 42.1539 38.2155 41.9938C38.2403 41.8345 38.272 41.6776 38.3092 41.5214C38.3464 41.366 38.3898 41.2137 38.4388 41.0631C38.4884 40.9132 38.5435 40.7664 38.6037 40.6228C38.6644 40.48 38.7308 40.3403 38.8021 40.2053C38.8734 40.0703 38.9503 39.94 39.0315 39.8137C39.1134 39.6881 39.1995 39.568 39.2907 39.4534C39.3818 39.3381 39.4767 39.229 39.5765 39.1262C39.6757 39.0234 39.7793 38.9261 39.8859 38.8358C39.9932 38.7456 40.1036 38.6624 40.217 38.5855C40.3305 38.5093 40.4464 38.4395 40.5655 38.3775C40.6845 38.3155 40.8054 38.2606 40.9282 38.2135C41.0516 38.1664 41.1762 38.1264 41.3021 38.095C41.4286 38.0636 41.5557 38.0392 41.684 38.0235C41.8118 38.0078 41.9401 38 42.0691 38C42.1974 38 42.3258 38.0078 42.4541 38.0235C42.5818 38.0392 42.709 38.0636 42.8354 38.095C42.9613 38.1264 43.0866 38.1664 43.2093 38.2135C43.3327 38.2606 43.4536 38.3155 43.5727 38.3775C43.6911 38.4395 43.8077 38.5093 43.9211 38.5855C44.0346 38.6624 44.145 38.7456 44.2516 38.8358C44.3589 38.9261 44.4618 39.0234 44.5616 39.1262C44.6608 39.229 44.7563 39.3381 44.8468 39.4534C44.938 39.568 45.0242 39.6881 45.106 39.8137C45.1879 39.94 45.2641 40.0703 45.3354 40.2053C45.4074 40.3403 45.4731 40.48 45.5339 40.6228C45.5946 40.7664 45.6498 40.9132 45.6988 41.0631C45.7478 41.2137 45.7912 41.366 45.8284 41.5214C45.8662 41.6776 45.8972 41.8345 45.9226 41.9938C45.9474 42.1539 45.966 42.314 45.979 42.4757C45.9914 42.6374 45.9976 42.7998 45.9976 42.9623Z" fill="#FBCD2F"/>
</g>
<path d="M45.1071 42.9624C45.1071 45.0837 43.7455 46.8032 42.0664 46.8032C41.1432 46.8032 40.3148 46.2829 39.7574 45.4588C39.6644 45.3231 39.5807 45.181 39.5063 45.0303C39.376 44.7745 39.27 44.499 39.1907 44.2063C39.0853 43.817 39.0276 43.3964 39.0276 42.9624C39.0276 40.8419 40.3898 39.1216 42.0689 39.1216C42.4124 39.1216 42.7453 39.1938 43.0535 39.3272C43.2848 39.4277 43.503 39.5611 43.7058 39.7251C43.8248 39.8232 43.9371 39.9284 44.0456 40.0429C44.6954 40.7469 45.1071 41.7938 45.1071 42.9624Z" fill="#FFB102"/>
<path d="M43.7059 39.7251L39.5063 45.0303C39.5832 45.181 39.6669 45.3231 39.7575 45.4588L44.0456 40.0453C43.9371 39.9284 43.8249 39.8232 43.7059 39.7251Z" fill="#FFBC19"/>
<path d="M42.0689 39.1216C40.3898 39.1216 39.0276 40.8419 39.0276 42.9624C39.0276 43.3964 39.0853 43.817 39.1907 44.2063L43.0535 39.3272C42.7453 39.1938 42.4124 39.1216 42.0689 39.1216Z" fill="#FFBC19"/>
<path d="M44.1244 39.9259C44.0147 39.8059 43.8956 39.6944 43.7722 39.5947C43.5583 39.4221 43.3314 39.2832 43.0933 39.1796C42.7653 39.0375 42.4193 38.9653 42.069 38.9653C40.3236 38.9653 38.9043 40.7578 38.9043 42.9623C38.9043 43.4049 38.962 43.8421 39.0742 44.2564C39.1554 44.557 39.2658 44.8466 39.4022 45.1142C39.4816 45.2696 39.5702 45.4203 39.6645 45.5592C40.2665 46.4468 41.1433 46.9561 42.069 46.9561C43.8138 46.9561 45.233 45.1637 45.233 42.96C45.2312 41.7937 44.8275 40.6856 44.1244 39.9259ZM42.069 46.7058C41.2028 46.7058 40.3806 46.2271 39.817 45.3952C39.7265 45.2641 39.6446 45.1221 39.5702 44.9777C39.4419 44.7242 39.3383 44.4542 39.2639 44.1733C39.1579 43.7832 39.1052 43.3743 39.1052 42.96C39.1052 40.8944 40.4339 39.2157 42.069 39.2157C42.397 39.2157 42.7213 39.2832 43.0294 39.4166C43.252 39.5139 43.4659 39.6418 43.6662 39.8035C43.7834 39.8977 43.8931 40.0013 43.9967 40.1151C44.6558 40.8277 45.0346 41.8659 45.0346 42.96C45.0328 45.0248 43.704 46.7058 42.069 46.7058Z" fill="#E99302"/>
<mask id="mask5_2222_647" style="mask-type:luminance" maskUnits="userSpaceOnUse" x="36" y="38" width="8" height="11">
<path d="M36 38.9399H43.8714V48.9995H36V38.9399Z" fill="white"/>
</mask>
<g mask="url(#mask5_2222_647)">
<path d="M43.8602 44.0365C43.8602 44.1989 43.854 44.3614 43.841 44.5231C43.8286 44.6847 43.81 44.8456 43.7845 45.0049C43.7597 45.1643 43.7281 45.3212 43.6909 45.4774C43.6537 45.6328 43.6103 45.7858 43.5613 45.9357C43.5117 46.0856 43.4572 46.2324 43.3964 46.376C43.3356 46.5196 43.2693 46.6585 43.198 46.7935C43.1267 46.9285 43.0498 47.0595 42.9686 47.1851C42.8867 47.3107 42.8005 47.4307 42.7094 47.5453C42.6183 47.6607 42.5234 47.7698 42.4236 47.8726C42.3244 47.9762 42.2208 48.0727 42.1142 48.163C42.0069 48.2532 41.8965 48.3364 41.7831 48.4133C41.6696 48.4902 41.5536 48.5593 41.4346 48.6213C41.3162 48.6833 41.1946 48.7382 41.0719 48.7853C40.9485 48.8324 40.8239 48.8724 40.698 48.9038C40.5715 48.9352 40.4444 48.9595 40.3167 48.9752C40.1883 48.9909 40.06 48.9996 39.931 48.9996C39.8027 48.9996 39.6743 48.9909 39.546 48.9752C39.4182 48.9595 39.2911 48.9352 39.1646 48.9038C39.0388 48.8724 38.9141 48.8324 38.7908 48.7853C38.6674 48.7382 38.5465 48.6833 38.428 48.6213C38.309 48.5593 38.1924 48.4902 38.079 48.4133C37.9655 48.3364 37.8557 48.2532 37.7485 48.163C37.6412 48.0727 37.5383 47.9762 37.4391 47.8726C37.3392 47.7698 37.2444 47.6607 37.1532 47.5453C37.0621 47.4307 36.9759 47.3107 36.8941 47.1851C36.8128 47.0595 36.7359 46.9285 36.6646 46.7935C36.5927 46.6585 36.527 46.5196 36.4662 46.376C36.4055 46.2324 36.3509 46.0856 36.3013 45.9357C36.2523 45.7858 36.2089 45.6328 36.1717 45.4774C36.1339 45.3212 36.1029 45.1643 36.0781 45.0049C36.0527 44.8456 36.0341 44.6847 36.021 44.5231C36.0086 44.3614 36.0024 44.1989 36.0024 44.0365C36.0024 43.874 36.0086 43.7116 36.021 43.5499C36.0341 43.3883 36.0527 43.2282 36.0781 43.0681C36.1029 42.9087 36.1339 42.7518 36.1717 42.5956C36.2089 42.4402 36.2523 42.2872 36.3013 42.1373C36.3509 41.9874 36.4055 41.8406 36.4662 41.697C36.527 41.5542 36.5927 41.4145 36.6646 41.2795C36.7359 41.1445 36.8128 41.0142 36.8941 40.8879C36.9759 40.7623 37.0621 40.6422 37.1532 40.5277C37.2444 40.4123 37.3392 40.3032 37.4391 40.2004C37.5383 40.0976 37.6412 40.0003 37.7485 39.91C37.8557 39.8198 37.9655 39.7366 38.079 39.6597C38.1924 39.5836 38.309 39.5137 38.428 39.4517C38.5465 39.3897 38.6674 39.3348 38.7908 39.2877C38.9141 39.2406 39.0388 39.2006 39.1646 39.1692C39.2911 39.1378 39.4182 39.1135 39.546 39.0978C39.6743 39.0821 39.8027 39.0742 39.931 39.0742C40.06 39.0742 40.1883 39.0821 40.3167 39.0978C40.4444 39.1135 40.5715 39.1378 40.698 39.1692C40.8239 39.2006 40.9485 39.2406 41.0719 39.2877C41.1946 39.3348 41.3162 39.3897 41.4346 39.4517C41.5536 39.5137 41.6696 39.5836 41.7831 39.6597C41.8965 39.7366 42.0069 39.8198 42.1142 39.91C42.2208 40.0003 42.3244 40.0976 42.4236 40.2004C42.5234 40.3032 42.6183 40.4123 42.7094 40.5277C42.8005 40.6422 42.8867 40.7623 42.9686 40.8879C43.0498 41.0142 43.1267 41.1445 43.198 41.2795C43.2693 41.4145 43.3356 41.5542 43.3964 41.697C43.4572 41.8406 43.5117 41.9874 43.5613 42.1373C43.6103 42.2872 43.6537 42.4402 43.6909 42.5956C43.7281 42.7518 43.7597 42.9087 43.7845 43.0681C43.81 43.2282 43.8286 43.3883 43.841 43.5499C43.854 43.7116 43.8602 43.874 43.8602 44.0365Z" fill="#FBCD2F"/>
</g>
<path d="M42.9699 44.0366C42.9699 46.1579 41.6083 47.8774 39.9292 47.8774C39.006 47.8774 38.1776 47.3571 37.6195 46.533C37.5272 46.3973 37.4435 46.2552 37.3684 46.1045C37.2388 45.8487 37.1328 45.5732 37.0535 45.2805C36.9474 44.8912 36.8904 44.4706 36.8904 44.0366C36.8904 41.9161 38.252 40.1958 39.931 40.1958C40.2752 40.1958 40.6075 40.268 40.9163 40.4014C41.1476 40.5019 41.3658 40.6353 41.5686 40.7993C41.6876 40.8974 41.7998 41.0026 41.9077 41.1172C42.5582 41.8211 42.9699 42.8673 42.9699 44.0366Z" fill="#FFB102"/>
<path d="M41.5685 40.7993L37.3684 46.1046C37.4459 46.2552 37.5296 46.3973 37.6195 46.5331L41.9077 41.1195C41.7998 41.0026 41.6876 40.8974 41.5685 40.7993Z" fill="#FFBC19"/>
<path d="M39.931 40.1958C38.252 40.1958 36.8904 41.9161 36.8904 44.0366C36.8904 44.4706 36.9474 44.8912 37.0535 45.2805L40.9163 40.4014C40.6075 40.268 40.2752 40.1958 39.931 40.1958Z" fill="#FFBC19"/>
<path d="M41.9872 41.0001C41.8774 40.8801 41.7584 40.7686 41.635 40.669C41.4211 40.4963 41.1942 40.3566 40.9561 40.2538C40.6274 40.1118 40.2815 40.0396 39.9311 40.0396C38.1864 40.0396 36.7671 41.832 36.7671 44.0365C36.7671 44.4792 36.8241 44.9163 36.937 45.3307C37.0182 45.6312 37.1286 45.9208 37.265 46.1884C37.3443 46.3438 37.4324 46.4945 37.5273 46.6334C38.1287 47.521 39.006 48.0304 39.9311 48.0304C41.6766 48.0304 43.0958 46.2379 43.0958 44.0342C43.0933 42.8672 42.6903 41.7598 41.9872 41.0001ZM39.9311 47.78C39.0656 47.78 38.2434 47.3013 37.6792 46.4694C37.5893 46.3383 37.5074 46.1963 37.4324 46.0519C37.3047 45.7984 37.2011 45.5284 37.1261 45.2475C37.0207 44.8574 36.9674 44.4485 36.9674 44.0342C36.9674 41.9686 38.2961 40.2899 39.9311 40.2899C40.2598 40.2899 40.5834 40.3566 40.8922 40.4908C41.1148 40.5881 41.3287 40.716 41.529 40.8777C41.6456 40.9719 41.7559 41.0755 41.8595 41.1893C42.5186 41.9019 42.8974 42.9402 42.8974 44.0342C42.8949 46.099 41.5662 47.78 39.9311 47.78Z" fill="#E99302"/>
<path d="M40.2956 43.8138C40.254 43.7942 40.2119 43.7722 40.1722 43.7526V42.2827C40.1833 42.2827 40.1945 42.2827 40.2057 42.2827C40.5734 42.2827 40.8598 42.4499 41.0142 42.5723L41.1946 41.9099C40.9745 41.7459 40.6217 41.6007 40.2205 41.6007C40.2057 41.6007 40.1877 41.6007 40.1722 41.6007V41.0137H39.9012V41.6344C39.2421 41.7788 38.8546 42.369 38.8546 43.0675C38.8546 43.6663 39.1894 44.1646 39.9012 44.4817V46.1463C39.8901 46.1463 39.8795 46.1463 39.8684 46.1463C39.5087 46.1463 39.1324 45.9595 38.9185 45.7845L38.738 46.4774C39.0152 46.6831 39.4164 46.8173 39.8504 46.8173C39.8659 46.8173 39.8839 46.8173 39.8994 46.8173V47.4043H40.1703V46.7921C40.9125 46.6666 41.3317 46.0937 41.3317 45.3199C41.3335 44.5767 40.9832 44.145 40.2956 43.8138ZM39.9012 43.5964C39.6569 43.4324 39.5422 43.2543 39.5422 42.9647C39.5422 42.6947 39.6675 42.4553 39.9012 42.347V43.5964ZM40.1722 46.1047V44.6261C40.5051 44.8294 40.6372 45.0522 40.6372 45.403C40.6397 45.7287 40.4896 46.0011 40.1722 46.1047Z" fill="#E99302"/>
<path d="M32.4677 35.8977C28.3765 36.9919 18.6681 36.9919 14.5779 35.8977C10.1348 34.7083 9.54722 28.1793 11.4926 19.2029C12.8318 13.0223 17.2542 10.8368 20.4131 10.0762C17.4857 7.97317 19.2297 6.57375 23.162 8.74746C20.6135 4.91624 23.978 5.68268 25.3379 7.48838C25.9888 8.35296 26.1767 9.26366 26.1964 9.97809C29.3689 10.6415 34.1505 12.7318 35.5529 19.2029C37.4973 28.1793 36.9108 34.7083 32.4677 35.8977ZM32.4677 35.8977C28.3765 36.9919 18.6681 36.9919 14.5779 35.8977C10.1348 34.7083 9.54722 28.1793 11.4926 19.2029C12.8318 13.0223 17.2542 10.8368 20.4131 10.0762C17.4857 7.97317 19.2297 6.57375 23.162 8.74746C20.6135 4.91624 23.978 5.68268 25.3379 7.48838C25.9888 8.35296 26.1767 9.26366 26.1964 9.97809C29.3689 10.6415 34.1505 12.7318 35.5529 19.2029C37.4973 28.1793 36.9108 34.7083 32.4677 35.8977Z" fill="#DB3C63"/>
<path d="M28.6193 30.2567C27.9903 30.8848 27.1141 31.402 26.1684 31.3627C25.4147 31.3303 24.5541 31.2047 23.9707 30.717C24.2582 30.4481 24.5313 30.1635 24.823 29.8985C25.286 29.4775 25.8081 29.0722 26.4383 28.9015C26.9812 28.7552 27.6466 28.7572 28.1076 29.1066C28.1107 29.1095 28.1148 29.1115 28.119 29.1144C28.1678 29.1527 28.229 29.1782 28.2892 29.1782C28.3224 29.1782 28.3526 29.1713 28.3795 29.1615C28.3816 29.1605 28.3837 29.1605 28.3858 29.1596C28.393 29.1566 28.3993 29.1537 28.4055 29.1497C28.4283 29.1389 28.4512 29.1262 28.4709 29.1066C28.5114 29.0683 28.5363 29.0114 28.5425 28.9535C28.5436 28.9476 28.5456 28.9417 28.5467 28.9348C28.6038 28.3519 28.255 27.8494 27.7453 27.5462C27.0902 27.1556 26.2888 27.0967 25.5341 27.1026C24.8219 27.1085 24.169 27.2273 23.5347 27.5246C23.2637 27.3254 22.9066 27.2253 22.5775 27.1743C21.9796 27.082 21.3702 27.1173 20.7775 27.2302C20.2158 27.3382 19.6823 27.5364 19.1902 27.8141C18.7832 28.0438 18.1604 28.4226 18.1355 28.925C18.1085 29.4569 18.7137 29.5335 19.2587 29.4765C19.2307 29.5482 19.2224 29.6257 19.2421 29.7072C19.3345 30.0732 19.8567 30.2312 20.2044 30.2047C20.6633 30.1684 21.0214 29.9083 21.3536 29.6286C21.7169 29.3225 22.0855 29.0222 22.4748 28.7454C22.8101 28.507 23.161 28.2685 23.5336 28.0702C23.5855 28.0614 23.6343 28.0359 23.6727 27.9996C24.0309 27.822 24.4077 27.6865 24.8105 27.6286C25.1427 27.5815 25.4853 27.5855 25.8206 27.5874C26.2172 27.5894 26.6116 27.6326 26.9895 27.7484C27.2989 27.8436 27.603 27.9937 27.8159 28.2322C27.8864 28.3126 27.9394 28.398 27.9747 28.4873C27.1359 28.1586 26.1279 28.3764 25.3732 28.8465C24.8635 29.1645 24.4326 29.5737 24.007 29.9829C23.6738 30.3019 23.3551 30.6532 22.9554 30.9005C22.3554 31.2714 21.6578 31.4491 20.9321 31.4864C20.2262 31.5237 19.486 31.4442 18.8476 31.1517C18.1043 30.8112 17.6071 30.1949 17.5116 29.4059C17.496 29.2754 17.4046 29.1635 17.2551 29.1635C17.1275 29.1635 16.9821 29.2744 16.9977 29.4059C17.0922 30.1959 17.4815 30.8818 18.176 31.3431C18.8019 31.7582 19.5847 31.9339 20.3394 31.9721C21.0463 32.0084 21.7917 31.928 22.454 31.6846C22.8672 31.5325 23.2513 31.3205 23.5897 31.0497C24.2645 31.6453 25.2756 31.8102 26.1684 31.8475C27.2439 31.8926 28.2654 31.3166 28.9837 30.6002C29.2111 30.3735 28.8477 30.029 28.6193 30.2567ZM19.7435 29.5855C19.7393 29.5806 19.7404 29.5815 19.7435 29.5855V29.5855ZM21.0297 29.2528C20.739 29.4981 20.3145 29.8593 19.8888 29.6826C19.8546 29.6689 19.8255 29.6483 19.7954 29.6267C19.7829 29.6169 19.7726 29.609 19.7653 29.6031C19.7809 29.5864 19.7964 29.5658 19.812 29.5501C19.9355 29.4265 20.0529 29.3195 20.1234 29.1596C20.1961 28.9937 19.9791 28.7994 19.8068 28.8612C19.5525 28.9535 19.2919 29.0045 19.0199 29.0016C18.9182 29.0006 18.7677 29.0114 18.6732 28.9643C18.6275 28.9417 18.6514 28.9652 18.6473 28.9446C18.64 28.9132 18.6805 28.8583 18.696 28.8328C18.8943 28.5168 19.3137 28.2969 19.6459 28.1281C20.465 27.7121 21.4595 27.5138 22.3865 27.6345C22.5952 27.662 22.8257 27.7091 23.0219 27.7965C22.3066 28.2106 21.6515 28.7278 21.0297 29.2528ZM20.2906 10.7031C20.6404 10.9122 21.0256 11.0751 21.4055 11.2272C21.9817 11.4578 22.5744 11.6551 23.1869 11.7787C23.5098 11.8445 23.6478 11.3764 23.3239 11.3106C22.7416 11.1928 22.1727 11.0113 21.6246 10.7915C21.2581 10.6443 20.8875 10.4853 20.5501 10.2841C20.2698 10.1173 20.0113 10.5363 20.2906 10.7031ZM23.515 9.35574C23.5378 9.38322 23.5617 9.40972 23.5845 9.43719C23.5939 9.44897 23.6042 9.46075 23.6136 9.47252C23.6157 9.47449 23.6167 9.47645 23.6188 9.47939C23.6613 9.5314 23.7018 9.58342 23.7433 9.63641C23.9011 9.8425 24.0485 10.0574 24.1845 10.2772C24.252 10.3871 24.4192 10.4352 24.5365 10.3646C24.6538 10.2929 24.7005 10.1506 24.6278 10.0329C24.3403 9.56379 23.9977 9.12512 23.6146 8.7208C23.5253 8.62659 23.3416 8.62855 23.2513 8.7208C23.1527 8.82188 23.1558 8.9632 23.2513 9.06428C23.3416 9.15947 23.4298 9.25662 23.515 9.35574ZM23.6136 9.47252C23.6011 9.4578 23.6063 9.46369 23.6136 9.47252V9.47252ZM29.3377 45.7386C29.0367 45.3284 29.3149 37.0713 29.3367 36.4334C28.5571 36.4962 27.5864 36.5197 26.5836 36.6444C26.5753 36.9771 26.3365 46.4599 26.5836 46.9732C26.8359 47.4953 32.4188 48.6346 32.5694 47.5424C32.7209 46.4511 29.6523 46.1665 29.3377 45.7386ZM17.7078 36.4334C17.7306 37.0713 18.0088 45.3284 17.7067 45.7386C17.3932 46.1665 14.3246 46.4511 14.4751 47.5424C14.6266 48.6346 20.2096 47.4953 20.4608 46.9732C20.7079 46.4599 20.4691 36.9771 20.4608 36.6444C19.4383 36.5315 18.5684 36.504 17.7078 36.4334Z" fill="#BA254F"/>
<path d="M20.5429 40.6992C19.6356 40.6992 18.7283 40.6992 17.821 40.6992C17.8179 40.5372 17.8148 40.3753 17.8117 40.2144C18.719 40.2144 19.6273 40.2144 20.5346 40.2144C20.5378 40.3743 20.5398 40.5362 20.5429 40.6992ZM20.4838 37.5951C19.5702 37.5725 18.6567 37.5166 17.7432 37.5088C17.7473 37.6589 17.7525 37.8218 17.7567 37.9945C18.6702 38.0024 19.5816 38.0583 20.4941 38.0809C20.491 37.9062 20.4869 37.7433 20.4838 37.5951ZM20.5679 42.9033C19.6772 42.8905 18.7865 42.8385 17.8958 42.8375C17.8781 42.8375 17.8615 42.8395 17.8459 42.8415C17.847 43.0044 17.847 43.1633 17.8459 43.3184C17.8615 43.3204 17.8781 43.3223 17.8958 43.3223C18.7875 43.3233 19.6792 43.3763 20.571 43.3891C20.571 43.2291 20.5699 43.0672 20.5679 42.9033ZM26.5027 40.6992C27.41 40.6992 28.3174 40.6992 29.2247 40.6992C29.2278 40.5372 29.2309 40.3753 29.234 40.2144C28.3267 40.2144 27.4184 40.2144 26.511 40.2144C26.5079 40.3743 26.5058 40.5362 26.5027 40.6992ZM26.5505 38.0809C27.464 38.0583 28.3755 38.0024 29.288 37.9945C29.2932 37.8218 29.2984 37.6589 29.3025 37.5088C28.3879 37.5166 27.4754 37.5725 26.5619 37.5951C26.5578 37.7433 26.5546 37.9062 26.5505 38.0809ZM26.4737 43.3891C27.3664 43.3763 28.2571 43.3233 29.1499 43.3223C29.1676 43.3223 29.1831 43.3204 29.1987 43.3184C29.1987 43.1633 29.1987 43.0044 29.1987 42.8415C29.1831 42.8395 29.1676 42.8375 29.1499 42.8375C28.2582 42.8385 27.3685 42.8905 26.4768 42.9033C26.4757 43.0672 26.4747 43.2291 26.4737 43.3891ZM10.9415 22.0946C11.093 21.1632 12.0636 17.1456 12.4685 16.2888C12.1405 16.2653 10.8781 16.1024 10.4203 14.962C9.5535 12.805 8.48839 10.2702 7.38384 10.8482C6.50249 11.3094 4.76884 17.3683 7.38384 20.4694C8.51538 21.8109 9.82237 22.1456 10.9415 22.0946ZM39.6162 10.8482C38.5116 10.2702 37.4465 12.805 36.5797 14.962C36.1395 16.0572 34.9582 16.2515 34.5751 16.2849C34.981 17.1426 35.9527 21.1642 36.1042 22.0955C37.2129 22.1368 38.5002 21.7933 39.6162 20.4694C42.2312 17.3683 40.4975 11.3094 39.6162 10.8482Z" fill="#891942"/>
<path d="M34.1391 15.4794C33.1249 15.9171 31.2635 16.4186 29.7832 15.0967C27.6374 13.1821 28.8011 10.7983 28.8011 10.7974C30.7237 11.6197 32.7418 13.0388 34.1391 15.4794ZM10.7972 23.0369C10.7546 23.239 10.7432 23.4265 10.7162 23.6384C10.384 26.2361 10.3414 28.5266 10.6311 30.4118C11.1865 30.1939 14.47 29.7641 14.0714 26.3283C13.8326 24.2773 12.0554 23.3637 10.7972 23.0369ZM27.4256 14.5569C27.3021 15.975 23.9303 16.1497 23.8545 14.5569C23.8016 13.451 24.3871 12.6796 25.5228 12.6796C27.0384 12.6796 27.518 13.502 27.4256 14.5569ZM30.2109 17.1556C30.1621 17.7022 28.8634 17.7699 28.8343 17.1556C28.8136 16.7297 29.0389 16.4323 29.4769 16.4323C30.0614 16.4323 30.2462 16.7493 30.2109 17.1556ZM15.0098 24.766C14.2997 24.6394 14.4129 23.4932 15.2226 23.5629C15.7853 23.6119 16.1403 23.8543 16.0728 24.2371C15.9815 24.7474 15.5372 24.8602 15.0098 24.766ZM34.7049 32.6071C34.6177 33.609 32.2352 33.7327 32.1812 32.6071C32.1438 31.8259 32.558 31.2803 33.3605 31.2803C34.4308 31.2803 34.7703 31.8612 34.7049 32.6071ZM35.7585 29.3666C35.7056 29.981 34.246 30.0565 34.2138 29.3666C34.191 28.8877 34.4433 28.5541 34.9353 28.5541C35.5914 28.5541 35.799 28.9103 35.7585 29.3666Z" fill="#BA254F" fill-opacity="0.5"/>
<path d="M23.8422 25.136C23.6916 25.136 23.5463 25.1292 23.4041 25.1174C21.5614 24.9584 19.397 24.0958 19.397 20.4108C19.397 16.5707 21.8012 15.6865 23.8359 15.6865C26.1177 15.6865 28.0912 17.6227 27.9676 21.0575C27.8534 24.2253 25.6163 25.136 23.8422 25.136ZM23.8422 25.136C23.6916 25.136 23.5463 25.1292 23.4041 25.1174C21.5614 24.9584 19.397 24.0958 19.397 20.4108C19.397 16.5707 21.8012 15.6865 23.8359 15.6865C26.1177 15.6865 28.0912 17.6227 27.9676 21.0575C27.8534 24.2253 25.6163 25.136 23.8422 25.136Z" fill="white"/>
<path d="M23.7871 23.5019C23.6896 23.5019 23.5941 23.497 23.5017 23.4891C22.2954 23.3861 20.8794 22.8218 20.8794 20.4106C20.8794 17.8983 22.4521 17.3203 23.784 17.3203C25.2758 17.3203 26.5672 18.5872 26.4862 20.8336C26.4115 22.9062 24.9478 23.5019 23.7871 23.5019ZM26.6523 25.4685C26.453 26.1045 28.0413 27.444 29.3826 26.2144C30.7238 24.9847 29.3961 23.2566 28.6715 23.6167C27.9479 23.9769 28.1752 24.5205 27.9136 24.7463C27.6417 24.9808 26.8921 24.7011 26.6523 25.4685Z" fill="#0E0F1A"/>
<mask id="mask6_2222_647" style="mask-type:luminance" maskUnits="userSpaceOnUse" x="7" y="0" width="20" height="19">
<path d="M9.60254 0L26.376 2.76603L23.7735 18.5477L7.00007 15.7817L9.60254 0Z" fill="white"/>
</mask>
<g mask="url(#mask6_2222_647)">
<path d="M25.4832 4.47472C25.8361 4.44763 26.1519 4.121 26.2249 3.67826C26.308 3.17448 26.0447 2.7114 25.6372 2.6442C25.6307 2.64312 25.6251 2.64388 25.6184 2.64361C25.5321 2.62268 25.4496 2.62329 25.4019 2.65472C25.0864 2.72558 24.8149 3.02941 24.748 3.43472C24.6929 3.76921 24.793 4.08334 24.9843 4.27792C24.6989 5.00582 24.3977 5.73111 24.045 6.41616C23.5304 7.41641 22.5017 7.40646 22.0698 6.41898C21.868 5.956 21.7123 5.45883 21.5573 4.96594C21.4832 4.73135 21.3736 4.50344 21.3292 4.2612C21.566 4.13555 21.7544 3.87319 21.8085 3.5452C21.8915 3.04142 21.6283 2.57834 21.2208 2.51114C20.8126 2.44383 20.4147 2.79787 20.3316 3.30165C20.2587 3.74358 20.4524 4.1534 20.7756 4.29364C20.7752 4.30444 20.7759 4.31626 20.7735 4.32674C20.5951 5.18347 20.392 6.03864 20.1372 6.87108C19.7921 7.99794 18.7452 8.29513 18.1153 7.45977C17.7298 6.9481 17.3445 6.42308 17.0356 5.83962C16.928 5.63629 16.8592 5.40256 16.7961 5.16309C16.8647 5.04985 16.9166 4.91962 16.9405 4.77475C17.0236 4.27097 16.7603 3.80789 16.3522 3.74058C15.9447 3.67338 15.5467 4.02743 15.4636 4.53121C15.3805 5.03499 15.6438 5.49807 16.0513 5.56527C16.0565 5.56614 16.0614 5.56527 16.0668 5.56532C16.0794 5.60753 16.0891 5.65093 16.0913 5.69477C16.1353 6.55808 16.1783 7.43963 16.0755 8.30047C16.0157 8.80224 15.7641 9.47637 15.439 9.70783C15.111 9.94049 14.536 9.85319 14.1581 9.66798C13.6091 9.39854 13.1284 8.93556 12.6444 8.51381C12.6184 8.49113 12.596 8.4632 12.5755 8.43222C12.6189 8.34074 12.6534 8.24193 12.6711 8.1345C12.7542 7.63072 12.491 7.16764 12.0828 7.10033C11.6753 7.03313 11.2773 7.38717 11.1943 7.89095C11.1112 8.39474 11.3744 8.85782 11.7819 8.92502C11.8759 8.94051 11.9687 8.93073 12.0579 8.90532C12.0709 8.92919 12.0817 8.95355 12.0895 8.97992C12.296 9.70116 12.4894 10.4361 12.6074 11.1904C12.7823 12.3036 11.9923 13.1681 11.1017 12.8699C10.6595 12.7226 10.2279 12.5311 9.79977 12.3351C9.58006 12.2345 9.33177 12.1843 9.12001 12.0683C9.13053 12.0291 9.14223 11.9909 9.14894 11.9502C9.23215 11.4456 8.96878 10.9833 8.56128 10.9161C8.15311 10.8488 7.75527 11.202 7.67206 11.7066C7.58898 12.2104 7.85221 12.6735 8.26038 12.7408C8.44507 12.7713 8.62572 12.7116 8.77802 12.5946C8.93115 12.6608 9.07519 12.7372 9.18671 12.8593C10.3179 14.0975 11.4077 15.3908 12.5389 16.695C14.2502 14.5587 22.6521 10.4166 24.9464 10.5057C25.1057 8.5448 25.2445 6.62232 25.4329 4.70217C25.4401 4.62561 25.4593 4.55019 25.4832 4.47472Z" fill="#FF9810"/>
</g>
<mask id="mask7_2222_647" style="mask-type:luminance" maskUnits="userSpaceOnUse" x="6" y="38" width="9" height="10">
<path d="M6.99829 38H14.9999V47.9811H6.99829V38Z" fill="white"/>
</mask>
<g mask="url(#mask7_2222_647)">
<path d="M14.9976 42.9623C14.9976 43.1247 14.9914 43.2872 14.979 43.4489C14.966 43.6105 14.9474 43.7714 14.9226 43.9307C14.8972 44.09 14.8662 44.2478 14.8284 44.4032C14.7912 44.5586 14.7478 44.7116 14.6988 44.8615C14.6498 45.0114 14.5946 45.1581 14.5339 45.3018C14.4731 45.4454 14.4074 45.5843 14.3354 45.7193C14.2641 45.8543 14.1879 45.9853 14.106 46.1109C14.0242 46.2365 13.938 46.3565 13.8468 46.4711C13.7563 46.5865 13.6608 46.6956 13.5616 46.7984C13.4618 46.902 13.3589 46.9985 13.2516 47.0887C13.145 47.179 13.0346 47.2622 12.9211 47.3391C12.8077 47.416 12.6911 47.4851 12.5727 47.5471C12.4536 47.6091 12.3327 47.664 12.2093 47.7111C12.0866 47.7582 11.9613 47.7982 11.8354 47.8296C11.709 47.861 11.5818 47.8853 11.4541 47.901C11.3258 47.9167 11.1974 47.9253 11.0691 47.9253C10.9401 47.9253 10.8118 47.9167 10.684 47.901C10.5557 47.8853 10.4286 47.861 10.3021 47.8296C10.1762 47.7982 10.0516 47.7582 9.92821 47.7111C9.80544 47.664 9.68453 47.6091 9.56548 47.5471C9.44644 47.4851 9.33049 47.416 9.21702 47.3391C9.10355 47.2622 8.99319 47.179 8.88592 47.0887C8.77927 46.9985 8.67573 46.902 8.57652 46.7984C8.4767 46.6956 8.38183 46.5865 8.29068 46.4711C8.19954 46.3565 8.11335 46.2365 8.03151 46.1109C7.95028 45.9853 7.8734 45.8543 7.80209 45.7193C7.73079 45.5843 7.66445 45.4454 7.60368 45.3018C7.54354 45.1581 7.48835 45.0114 7.43875 44.8615C7.38977 44.7116 7.34637 44.5586 7.30916 44.4032C7.27196 44.2478 7.24034 44.09 7.21554 43.9307C7.19012 43.7714 7.17151 43.6105 7.15911 43.4489C7.14609 43.2872 7.13989 43.1247 7.13989 42.9623C7.13989 42.7998 7.14609 42.6374 7.15911 42.4757C7.17151 42.314 7.19012 42.1539 7.21554 41.9938C7.24034 41.8345 7.27196 41.6776 7.30916 41.5214C7.34637 41.366 7.38977 41.2137 7.43875 41.0631C7.48835 40.9132 7.54354 40.7664 7.60368 40.6228C7.66445 40.48 7.73079 40.3403 7.80209 40.2053C7.8734 40.0703 7.95028 39.94 8.03151 39.8137C8.11335 39.6881 8.19954 39.568 8.29068 39.4534C8.38183 39.3381 8.4767 39.229 8.57652 39.1262C8.67573 39.0234 8.77927 38.9261 8.88592 38.8358C8.99319 38.7456 9.10355 38.6624 9.21702 38.5855C9.33049 38.5093 9.44644 38.4395 9.56548 38.3775C9.68453 38.3155 9.80544 38.2606 9.92821 38.2135C10.0516 38.1664 10.1762 38.1264 10.3021 38.095C10.4286 38.0636 10.5557 38.0392 10.684 38.0235C10.8118 38.0078 10.9401 38 11.0691 38C11.1974 38 11.3258 38.0078 11.4541 38.0235C11.5818 38.0392 11.709 38.0636 11.8354 38.095C11.9613 38.1264 12.0866 38.1664 12.2093 38.2135C12.3327 38.2606 12.4536 38.3155 12.5727 38.3775C12.6911 38.4395 12.8077 38.5093 12.9211 38.5855C13.0346 38.6624 13.145 38.7456 13.2516 38.8358C13.3589 38.9261 13.4618 39.0234 13.5616 39.1262C13.6608 39.229 13.7563 39.3381 13.8468 39.4534C13.938 39.568 14.0242 39.6881 14.106 39.8137C14.1879 39.94 14.2641 40.0703 14.3354 40.2053C14.4074 40.3403 14.4731 40.48 14.5339 40.6228C14.5946 40.7664 14.6498 40.9132 14.6988 41.0631C14.7478 41.2137 14.7912 41.366 14.8284 41.5214C14.8662 41.6776 14.8972 41.8345 14.9226 41.9938C14.9474 42.1539 14.966 42.314 14.979 42.4757C14.9914 42.6374 14.9976 42.7998 14.9976 42.9623Z" fill="#FBCD2F"/>
</g>
<path d="M14.1071 42.9624C14.1071 45.0837 12.7455 46.8032 11.0664 46.8032C10.1432 46.8032 9.31479 46.2829 8.75737 45.4588C8.66437 45.3231 8.58066 45.181 8.50626 45.0303C8.37605 44.7745 8.27002 44.499 8.19066 44.2063C8.08525 43.817 8.02759 43.3964 8.02759 42.9624C8.02759 40.8419 9.38981 39.1216 11.0689 39.1216C11.4124 39.1216 11.7453 39.1938 12.0535 39.3272C12.2848 39.4277 12.503 39.5611 12.7058 39.7251C12.8248 39.8232 12.9371 39.9284 13.0456 40.0429C13.6954 40.7469 14.1071 41.7938 14.1071 42.9624Z" fill="#FFB102"/>
<path d="M12.7059 39.7251L8.50635 45.0303C8.58323 45.181 8.66694 45.3231 8.75746 45.4588L13.0456 40.0453C12.9371 39.9284 12.8249 39.8232 12.7059 39.7251Z" fill="#FFBC19"/>
<path d="M11.0689 39.1216C9.38981 39.1216 8.02759 40.8419 8.02759 42.9624C8.02759 43.3964 8.08525 43.817 8.19066 44.2063L12.0535 39.3272C11.7453 39.1938 11.4124 39.1216 11.0689 39.1216Z" fill="#FFBC19"/>
<path d="M13.1244 39.9259C13.0147 39.8059 12.8956 39.6944 12.7722 39.5947C12.5583 39.4221 12.3314 39.2832 12.0933 39.1796C11.7653 39.0375 11.4193 38.9653 11.069 38.9653C9.32357 38.9653 7.9043 40.7578 7.9043 42.9623C7.9043 43.4049 7.96196 43.8421 8.07419 44.2564C8.15541 44.557 8.26578 44.8466 8.40219 45.1142C8.48155 45.2696 8.57022 45.4203 8.66446 45.5592C9.26652 46.4468 10.1433 46.9561 11.069 46.9561C12.8138 46.9561 14.233 45.1637 14.233 42.96C14.2312 41.7937 13.8275 40.6856 13.1244 39.9259ZM11.069 46.7058C10.2028 46.7058 9.38061 46.2271 8.81699 45.3952C8.72647 45.2641 8.64462 45.1221 8.57022 44.9777C8.44187 44.7242 8.33832 44.4542 8.26392 44.1733C8.15789 43.7832 8.10519 43.3743 8.10519 42.96C8.10519 40.8944 9.43393 39.2157 11.069 39.2157C11.397 39.2157 11.7213 39.2832 12.0294 39.4166C12.252 39.5139 12.4659 39.6418 12.6662 39.8035C12.7834 39.8977 12.8931 40.0013 12.9967 40.1151C13.6558 40.8277 14.0346 41.8659 14.0346 42.96C14.0328 45.0248 12.704 46.7058 11.069 46.7058Z" fill="#E99302"/>
<mask id="mask8_2222_647" style="mask-type:luminance" maskUnits="userSpaceOnUse" x="5" y="38" width="8" height="11">
<path d="M5 38.9399H12.8714V48.9995H5V38.9399Z" fill="white"/>
</mask>
<g mask="url(#mask8_2222_647)">
<path d="M12.8602 44.0365C12.8602 44.1989 12.854 44.3614 12.841 44.5231C12.8286 44.6847 12.81 44.8456 12.7845 45.0049C12.7597 45.1643 12.7281 45.3212 12.6909 45.4774C12.6537 45.6328 12.6103 45.7858 12.5613 45.9357C12.5117 46.0856 12.4572 46.2324 12.3964 46.376C12.3356 46.5196 12.2693 46.6585 12.198 46.7935C12.1267 46.9285 12.0498 47.0595 11.9686 47.1851C11.8867 47.3107 11.8005 47.4307 11.7094 47.5453C11.6183 47.6607 11.5234 47.7698 11.4236 47.8726C11.3244 47.9762 11.2208 48.0727 11.1142 48.163C11.0069 48.2532 10.8965 48.3364 10.7831 48.4133C10.6696 48.4902 10.5536 48.5593 10.4346 48.6213C10.3162 48.6833 10.1946 48.7382 10.0719 48.7853C9.94849 48.8324 9.82386 48.8724 9.69799 48.9038C9.57151 48.9352 9.4444 48.9595 9.31667 48.9752C9.18832 48.9909 9.05997 48.9996 8.93101 48.9996C8.80266 48.9996 8.67431 48.9909 8.54596 48.9752C8.41823 48.9595 8.29113 48.9352 8.16464 48.9038C8.03877 48.8724 7.91414 48.8324 7.79075 48.7853C7.66737 48.7382 7.54646 48.6833 7.42803 48.6213C7.30898 48.5593 7.19242 48.4902 7.07895 48.4133C6.96548 48.3364 6.85574 48.2532 6.74847 48.163C6.6412 48.0727 6.53828 47.9762 6.43907 47.8726C6.33924 47.7698 6.24438 47.6607 6.15323 47.5453C6.06209 47.4307 5.9759 47.3107 5.89406 47.1851C5.81283 47.0595 5.73595 46.9285 5.66464 46.7935C5.59272 46.6585 5.52699 46.5196 5.46623 46.376C5.40547 46.2324 5.3509 46.0856 5.3013 45.9357C5.25232 45.7858 5.20891 45.6328 5.17171 45.4774C5.13389 45.3212 5.10289 45.1643 5.07809 45.0049C5.05266 44.8456 5.03406 44.6847 5.02104 44.5231C5.00864 44.3614 5.00244 44.1989 5.00244 44.0365C5.00244 43.874 5.00864 43.7116 5.02104 43.5499C5.03406 43.3883 5.05266 43.2282 5.07809 43.0681C5.10289 42.9087 5.13389 42.7518 5.17171 42.5956C5.20891 42.4402 5.25232 42.2872 5.3013 42.1373C5.3509 41.9874 5.40547 41.8406 5.46623 41.697C5.52699 41.5542 5.59272 41.4145 5.66464 41.2795C5.73595 41.1445 5.81283 41.0142 5.89406 40.8879C5.9759 40.7623 6.06209 40.6422 6.15323 40.5277C6.24438 40.4123 6.33924 40.3032 6.43907 40.2004C6.53828 40.0976 6.6412 40.0003 6.74847 39.91C6.85574 39.8198 6.96548 39.7366 7.07895 39.6597C7.19242 39.5836 7.30898 39.5137 7.42803 39.4517C7.54646 39.3897 7.66737 39.3348 7.79075 39.2877C7.91414 39.2406 8.03877 39.2006 8.16464 39.1692C8.29113 39.1378 8.41823 39.1135 8.54596 39.0978C8.67431 39.0821 8.80266 39.0742 8.93101 39.0742C9.05997 39.0742 9.18832 39.0821 9.31667 39.0978C9.4444 39.1135 9.57151 39.1378 9.69799 39.1692C9.82386 39.2006 9.94849 39.2406 10.0719 39.2877C10.1946 39.3348 10.3162 39.3897 10.4346 39.4517C10.5536 39.5137 10.6696 39.5836 10.7831 39.6597C10.8965 39.7366 11.0069 39.8198 11.1142 39.91C11.2208 40.0003 11.3244 40.0976 11.4236 40.2004C11.5234 40.3032 11.6183 40.4123 11.7094 40.5277C11.8005 40.6422 11.8867 40.7623 11.9686 40.8879C12.0498 41.0142 12.1267 41.1445 12.198 41.2795C12.2693 41.4145 12.3356 41.5542 12.3964 41.697C12.4572 41.8406 12.5117 41.9874 12.5613 42.1373C12.6103 42.2872 12.6537 42.4402 12.6909 42.5956C12.7281 42.7518 12.7597 42.9087 12.7845 43.0681C12.81 43.2282 12.8286 43.3883 12.841 43.5499C12.854 43.7116 12.8602 43.874 12.8602 44.0365Z" fill="#FBCD2F"/>
</g>
<path d="M11.9699 44.0366C11.9699 46.1579 10.6083 47.8774 8.92919 47.8774C8.00595 47.8774 7.17758 47.3571 6.61955 46.533C6.52716 46.3973 6.44346 46.2552 6.36843 46.1045C6.23884 45.8487 6.13282 45.5732 6.05345 45.2805C5.94742 44.8912 5.89038 44.4706 5.89038 44.0366C5.89038 41.9161 7.25199 40.1958 8.93105 40.1958C9.27517 40.1958 9.60751 40.268 9.91629 40.4014C10.1476 40.5019 10.3658 40.6353 10.5686 40.7993C10.6876 40.8974 10.7998 41.0026 10.9077 41.1172C11.5582 41.8211 11.9699 42.8673 11.9699 44.0366Z" fill="#FFB102"/>
<path d="M10.5685 40.7993L6.36841 46.1046C6.44591 46.2552 6.52962 46.3973 6.61952 46.5331L10.9077 41.1195C10.7998 41.0026 10.6876 40.8974 10.5685 40.7993Z" fill="#FFBC19"/>
<path d="M8.93105 40.1958C7.25199 40.1958 5.89038 41.9161 5.89038 44.0366C5.89038 44.4706 5.94742 44.8912 6.05345 45.2805L9.91629 40.4014C9.60751 40.268 9.27517 40.1958 8.93105 40.1958Z" fill="#FFBC19"/>
<path d="M10.9872 41.0001C10.8774 40.8801 10.7584 40.7686 10.635 40.669C10.4211 40.4963 10.1942 40.3566 9.95607 40.2538C9.62745 40.1118 9.28147 40.0396 8.93115 40.0396C7.18636 40.0396 5.76709 41.832 5.76709 44.0365C5.76709 44.4792 5.82413 44.9163 5.93698 45.3307C6.01821 45.6312 6.12857 45.9208 6.26498 46.1884C6.34435 46.3438 6.43239 46.4945 6.52726 46.6334C7.12869 47.521 8.00605 48.0304 8.93115 48.0304C10.6766 48.0304 12.0958 46.2379 12.0958 44.0342C12.0933 42.8672 11.6903 41.7598 10.9872 41.0001ZM8.93115 47.78C8.06557 47.78 7.2434 47.3013 6.67917 46.4694C6.58926 46.3383 6.50742 46.1963 6.43239 46.0519C6.30466 45.7984 6.20112 45.5284 6.12609 45.2475C6.02069 44.8574 5.96736 44.4485 5.96736 44.0342C5.96736 41.9686 7.2961 40.2899 8.93115 40.2899C9.25977 40.2899 9.58343 40.3566 9.89221 40.4908C10.1148 40.5881 10.3287 40.716 10.529 40.8777C10.6456 40.9719 10.7559 41.0755 10.8595 41.1893C11.5186 41.9019 11.8974 42.9402 11.8974 44.0342C11.8949 46.099 10.5662 47.78 8.93115 47.78Z" fill="#E99302"/>
<path d="M9.29557 43.8138C9.25403 43.7942 9.21187 43.7722 9.17219 43.7526V42.2827C9.18335 42.2827 9.19451 42.2827 9.20567 42.2827C9.57335 42.2827 9.85981 42.4499 10.0142 42.5723L10.1946 41.9099C9.97452 41.7459 9.62171 41.6007 9.22055 41.6007C9.20567 41.6007 9.18769 41.6007 9.17219 41.6007V41.0137H8.90123V41.6344C8.24213 41.7788 7.8546 42.369 7.8546 43.0675C7.8546 43.6663 8.18943 44.1646 8.90123 44.4817V46.1463C8.89007 46.1463 8.87953 46.1463 8.86837 46.1463C8.50874 46.1463 8.13238 45.9595 7.91847 45.7845L7.73804 46.4774C8.01519 46.6831 8.41636 46.8173 8.85039 46.8173C8.86589 46.8173 8.88387 46.8173 8.89937 46.8173V47.4043H9.17033V46.7921C9.91251 46.6666 10.3317 46.0937 10.3317 45.3199C10.3335 44.5767 9.9832 44.145 9.29557 43.8138ZM8.90123 43.5964C8.65693 43.4324 8.54223 43.2543 8.54223 42.9647C8.54223 42.6947 8.66747 42.4553 8.90123 42.347V43.5964ZM9.17219 46.1047V44.6261C9.50515 44.8294 9.63722 45.0522 9.63722 45.403C9.6397 45.7287 9.48965 46.0011 9.17219 46.1047Z" fill="#E99302"/>
</svg>
