<svg width="41" height="46" viewBox="0 0 41 46" fill="none" xmlns="http://www.w3.org/2000/svg">
<path d="M24.0312 19.616C24.2242 19.4827 17.33 20.0357 13.8125 23.308C10.2963 26.5803 9.4479 29.9619 9.4479 29.9619C9.4479 29.9619 13.542 27.7745 16.87 28.8139C16.876 28.8139 20.4911 22.0818 24.0312 19.616Z" fill="#E25152"/>
<path d="M33.4673 25.9238C33.4673 25.9238 35.8182 33.0348 21.5865 37.8978C21.5865 37.8978 24.0482 33.6466 22.0059 32.295C22.0059 32.295 27.6883 29.6683 29.7986 28.3273C31.91 26.9864 33.4673 25.9238 33.4673 25.9238Z" fill="#E25152"/>
<path d="M20.2686 33.0465C20.2686 33.0465 43.7241 25.2188 40.657 12.1502C40.657 12.1502 24.831 11.855 15.7705 30.0721L20.2686 33.0465Z" fill="#DCDCDC"/>
<path d="M22.1118 32.3689L16.4842 28.6938C16.4842 28.6938 15.3879 29.8738 15.8252 30.1468C16.1267 30.3371 20.3257 33.1212 20.3257 33.1212L22.1118 32.3689Z" fill="#6C364A"/>
<path d="M40.5735 17.1512C40.5735 17.1512 41.466 14.3413 40.6688 12C40.6688 12 37.6245 12.2552 34.7064 13.1524L40.5735 17.1512Z" fill="#E25152"/>
<mask id="mask0_2222_648" style="mask-type:luminance" maskUnits="userSpaceOnUse" x="1" y="30" width="20" height="16">
<path d="M20.1113 30.1777H1.00019V46.0002H20.1113V30.1777Z" fill="white"/>
</mask>
<g mask="url(#mask0_2222_648)">
<path d="M20.0254 32.8967C20.0254 32.8967 11.3808 43.4355 1.04651 46.0018C1.04651 46.0018 5.2181 35.4185 16.0278 30.2549L20.0254 32.8967Z" fill="#F26522"/>
</g>
<path d="M19.4619 32.5249C19.4619 32.5249 17.0097 35.7011 7.52624 40.5482C7.52624 40.5482 11.0532 33.9538 16.6189 30.646L19.4619 32.5249Z" fill="#FCB22C"/>
<path d="M19.1553 32.3334C19.1553 32.3334 16.7138 34.1883 15.1624 34.1225C15.1624 34.1225 15.0051 32.216 16.9199 30.8413L19.1553 32.3334Z" fill="#FEEB81"/>
<path d="M28.4532 19.8765C28.4532 20.0597 28.477 20.2411 28.5247 20.4207C28.5723 20.5994 28.6438 20.7737 28.738 20.9436C28.8321 21.1125 28.9465 21.2726 29.0835 21.4255C29.2194 21.5776 29.3743 21.7181 29.5482 21.8479C29.721 21.9768 29.9104 22.0924 30.1142 22.1938C30.318 22.296 30.5336 22.3814 30.76 22.4516C30.9864 22.5219 31.2211 22.5744 31.4618 22.6108C31.7025 22.6464 31.9444 22.6642 32.1899 22.6642C32.4353 22.6642 32.6784 22.6464 32.9191 22.6108C33.1598 22.5744 33.3933 22.5219 33.6209 22.4516C33.8473 22.3814 34.063 22.296 34.2667 22.1938C34.4705 22.0924 34.6599 21.9768 34.8327 21.8479C35.0067 21.7181 35.1616 21.5776 35.2974 21.4255C35.4344 21.2726 35.5488 21.1125 35.643 20.9436C35.7371 20.7737 35.8074 20.5994 35.8551 20.4207C35.9039 20.2411 35.9277 20.0597 35.9277 19.8765C35.9277 19.6933 35.9039 19.5119 35.8551 19.3323C35.8074 19.1536 35.7371 18.9793 35.643 18.8095C35.5488 18.6405 35.4344 18.4805 35.2974 18.3275C35.1616 18.1755 35.0067 18.035 34.8327 17.9052C34.6599 17.7762 34.4705 17.6606 34.2667 17.5593C34.063 17.457 33.8473 17.3716 33.6209 17.3014C33.3933 17.2311 33.1598 17.1787 32.9191 17.1422C32.6784 17.1067 32.4353 17.0889 32.1899 17.0889C31.9444 17.0889 31.7025 17.1067 31.4618 17.1422C31.2211 17.1787 30.9864 17.2311 30.76 17.3014C30.5336 17.3716 30.318 17.457 30.1142 17.5593C29.9104 17.6606 29.721 17.7762 29.5482 17.9052C29.3743 18.035 29.2194 18.1755 29.0835 18.3275C28.9465 18.4805 28.8321 18.6405 28.738 18.8095C28.6438 18.9793 28.5723 19.1536 28.5247 19.3323C28.477 19.5119 28.4532 19.6933 28.4532 19.8765Z" fill="#6C364A"/>
<path d="M29.9924 18.4214C29.8732 18.5219 29.7696 18.6304 29.679 18.7469C29.5897 18.8634 29.517 18.9861 29.4598 19.1141C29.4038 19.2422 29.3645 19.3747 29.3442 19.5089C29.3228 19.6441 29.3192 19.7801 29.3347 19.9171C29.349 20.054 29.3823 20.1883 29.4324 20.3217C29.4836 20.4541 29.5503 20.5831 29.6349 20.7076C29.7183 20.8312 29.8184 20.9485 29.9328 21.0597C30.0472 21.17 30.1747 21.2722 30.3153 21.3647C30.4547 21.4572 30.606 21.5399 30.7669 21.611C30.9278 21.683 31.0958 21.7417 31.2721 21.7897C31.4473 21.8369 31.626 21.8715 31.8095 21.8929C31.993 21.9142 32.1753 21.9222 32.36 21.9169C32.5435 21.9116 32.7234 21.8929 32.901 21.8609C33.0785 21.8289 33.2489 21.7844 33.4121 21.7266C33.5766 21.6697 33.7303 21.6012 33.8756 21.5203C34.0198 21.4403 34.1521 21.3496 34.2712 21.2491C34.3904 21.1486 34.494 21.0401 34.5846 20.9236C34.674 20.8072 34.7466 20.6853 34.8038 20.5564C34.8598 20.4284 34.8992 20.2968 34.9194 20.1616C34.9409 20.0264 34.9444 19.8904 34.929 19.7543C34.9147 19.6174 34.8813 19.4823 34.8312 19.3498C34.78 19.2164 34.7133 19.0883 34.6287 18.9638C34.5453 18.8394 34.4464 18.722 34.3308 18.6117C34.2164 18.5006 34.0889 18.3992 33.9495 18.3058C33.8089 18.2134 33.6576 18.1316 33.4967 18.0595C33.3359 17.9884 33.1679 17.9288 32.9915 17.8817C32.8164 17.8346 32.6376 17.7999 32.4541 17.7785C32.2718 17.7572 32.0883 17.7492 31.9048 17.7545C31.7201 17.7599 31.5402 17.7785 31.3627 17.8105C31.1851 17.8417 31.0147 17.887 30.8515 17.9439C30.6871 18.0008 30.5334 18.0702 30.388 18.1502C30.2438 18.2303 30.1127 18.321 29.9924 18.4214Z" fill="#7FD0DB"/>
<path d="M21.2593 10.9032C21.2593 10.9032 21.235 9.75572 20.6883 8.51935C20.1416 7.28298 20.9024 6.83315 21.3698 7.43567C21.2608 6.59825 21.793 6.39572 22.279 6.97723C22.194 6.1703 22.8505 6.15352 23.0773 6.71113C23.0465 6.04595 23.858 6.30652 24.4838 7.5003C25.1086 8.6941 25.4186 11.5967 23.9096 13.5207C21.7014 11.8962 21.2593 10.9032 21.2593 10.9032ZM11.3832 22.0178C11.3832 22.0178 10.2408 22.1286 8.94873 21.7311C7.65665 21.3336 7.29941 22.1421 7.95313 22.5349C7.30319 22.4313 7.0484 23.0115 7.68354 23.4262C6.99182 23.2103 6.86917 24.1612 7.42949 24.4342C6.84392 24.5517 7.12442 25.1386 8.3835 25.6196C9.64208 26.1002 12.561 26.0667 14.2942 24.342C12.4217 22.3396 11.3832 22.0178 11.3832 22.0178Z" fill="#D86876"/>
<mask id="mask1_2222_648" style="mask-type:luminance" maskUnits="userSpaceOnUse" x="0" y="0" width="36" height="36">
<path d="M0 18.6533L16.5746 0.000122957L35.1806 16.5328L18.6059 35.186L0 18.6533Z" fill="white"/>
</mask>
<g mask="url(#mask1_2222_648)">
<path d="M19.5228 22.9297C20.3684 26.9459 23.854 26.1405 24.4363 26.4331C25.0196 26.7257 24.0452 29.3128 23.6196 29.1595C23.1936 29.0066 23.3644 28.4079 23.5539 27.5623C19.22 27.8773 18.2997 23.9451 18.2997 23.9451C18.2997 23.9451 18.9334 23.2319 19.5228 22.9297ZM23.1775 18.8166C27.2653 19.184 26.8754 22.7402 27.234 23.2845C27.5936 23.8289 30.0482 22.557 29.8459 22.1524C29.644 21.7473 29.0694 21.9874 28.252 22.275C28.0552 17.9341 24.0416 17.4831 24.0416 17.4831C24.0416 17.4831 23.4083 18.1959 23.1775 18.8166ZM11.0309 8.68384C10.8445 8.89356 11.1231 9.63593 11.4148 10.2688C10.628 9.96326 8.4542 9.17435 8.06906 9.60779C7.59717 10.1389 9.28361 13.1453 9.28361 13.1453C10.3857 13.3522 11.2989 11.3785 11.5968 10.6469C11.7694 10.9942 11.9105 11.2458 11.9105 11.2458C12.8879 11.4297 13.6605 9.24418 13.6605 9.24418C13.6605 9.24418 11.3729 8.29897 11.0309 8.68384ZM7.95319 22.5351C7.30325 22.4315 7.04846 23.0117 7.6836 23.4264C6.99189 23.2105 6.86923 24.1614 7.42955 24.4344C6.93809 24.5327 7.05698 24.9626 7.85223 25.3817L8.6761 21.662C7.60958 21.4524 7.34809 22.1712 7.95319 22.5351ZM23.0774 6.71131C22.8506 6.15371 22.194 6.17048 22.2791 6.97741C21.793 6.3959 21.2609 6.59843 21.3699 7.43586C20.9385 6.87954 20.2583 7.22048 20.5852 8.24734L24.1791 7.00738C23.6245 6.2479 23.0513 6.15069 23.0774 6.71131Z" fill="#B74750"/>
</g>
<path d="M25.878 16.4756C25.4205 18.2198 19.2291 25.1876 17.5508 25.847C15.872 26.506 6.9674 18.5719 6.937 16.7202C6.90661 14.8685 13.6554 7.27335 15.4982 7.08531C17.3407 6.89775 26.3349 14.7309 25.878 16.4756ZM25.878 16.4756C25.4205 18.2198 19.2291 25.1876 17.5508 25.847C15.872 26.506 6.9674 18.5719 6.937 16.7202C6.90661 14.8685 13.6554 7.27335 15.4982 7.08531C17.3407 6.89775 26.3349 14.7309 25.878 16.4756Z" fill="#F4959A"/>
<path d="M12.2246 12.6889C12.1637 12.6314 12.1523 12.5394 12.2054 12.4796C12.2556 12.4231 12.3547 12.4175 12.4151 12.4745C12.6987 12.7424 12.9826 13.0097 13.2662 13.2776C13.3266 13.3346 13.3385 13.4271 13.2854 13.4869C13.2352 13.5434 13.1356 13.5486 13.0757 13.492C12.7921 13.2241 12.5082 12.9568 12.2246 12.6889ZM11.7016 14.1317C11.9758 14.275 12.2498 14.4173 12.5244 14.5602C12.5948 14.5968 12.6915 14.5707 12.7211 14.4992C12.7514 14.4267 12.723 14.3387 12.6472 14.299C12.3726 14.1561 12.0986 14.0138 11.824 13.8709C11.7535 13.8342 11.6569 13.8603 11.6268 13.9315C11.597 14.0044 11.6254 14.0924 11.7016 14.1317ZM13.409 12.0872C13.6056 12.3279 13.7815 12.5837 13.9352 12.8514C13.9752 12.9204 14.0825 12.9439 14.1428 12.9022C14.2108 12.8548 14.2225 12.7732 14.1801 12.6988C14.026 12.4306 13.8501 12.1757 13.6539 11.9345C13.6037 11.8731 13.5145 11.8374 13.4463 11.8838C13.3873 11.925 13.355 12.0208 13.409 12.0872ZM20.8877 19.723C20.9649 19.5534 21.236 19.694 21.1591 19.8622C20.9851 20.2426 20.7135 20.5654 20.3726 20.8058C20.309 20.8512 20.2093 20.8212 20.1655 20.7555C20.1175 20.6845 20.1392 20.5976 20.2024 20.5526C20.5011 20.3416 20.7354 20.0557 20.8877 19.723ZM20.8877 19.723C20.9649 19.5534 21.236 19.694 21.1591 19.8622C20.9851 20.2426 20.7135 20.5654 20.3726 20.8058C20.309 20.8512 20.2093 20.8212 20.1655 20.7555C20.1175 20.6845 20.1392 20.5976 20.2024 20.5526C20.5011 20.3416 20.7354 20.0557 20.8877 19.723Z" fill="#D86876"/>
<path d="M17.2139 17.33C16.428 18.2366 14.7918 18.65 13.3007 16.9707C11.8877 15.3791 12.4079 13.9021 13.3053 13.098C14.3113 12.1957 15.8753 12.1268 17.2407 13.7145C18.5001 15.1796 17.902 16.5364 17.2139 17.33ZM17.2139 17.33C16.428 18.2366 14.7918 18.65 13.3007 16.9707C11.8877 15.3791 12.4079 13.9021 13.3053 13.098C14.3113 12.1957 15.8753 12.1268 17.2407 13.7145C18.5001 15.1796 17.902 16.5364 17.2139 17.33Z" fill="white"/>
<path d="M16.6543 16.7707C16.6107 16.8096 16.5664 16.8455 16.5218 16.8785C15.9371 17.3086 15.0483 17.5928 13.9425 16.3947C12.7907 15.1455 13.2256 14.2305 13.8186 13.6992C14.4826 13.1032 15.638 13.2179 16.6322 14.3671C17.5497 15.4272 17.1711 16.3071 16.6543 16.7707ZM16.8967 19.5204C16.6249 20.383 18.4658 21.7462 20.1379 19.8644C21.8097 17.983 20.3937 16.2041 19.4147 16.6866C18.6598 17.0581 18.7725 17.959 18.4482 18.3078C18.1093 18.6711 17.2235 18.4809 16.8967 19.5204Z" fill="#0E0F1A"/>
<path d="M18.9704 20.7092C18.9704 20.7092 18.4925 20.9658 17.9895 20.7754C17.7118 20.1651 17.6867 19.6872 17.8018 19.604C17.9325 19.5103 18.6573 20.151 18.9704 20.7092ZM20.8423 18.6178C20.8423 18.6178 21.0212 18.1189 20.8586 17.6151C20.3113 17.4606 19.669 17.3897 19.5993 17.5811C19.5305 17.7715 20.2505 18.372 20.8423 18.6178Z" fill="white"/>
<path d="M20.0818 9.80932C20.0758 9.82318 20.0697 9.83704 20.0637 9.8509C19.5627 10.922 18.3307 11.4463 16.6927 10.4941C15.182 9.61645 15.2003 8.27776 15.4822 7.39479C15.5158 7.2884 15.5597 7.1845 15.6122 7.08405C16.4163 7.12816 18.2122 8.29595 20.0818 9.80932ZM19.9655 13.0001C20.5523 12.9205 20.9378 12.4322 20.8217 12.0273C20.7184 11.6656 20.1784 11.3687 19.5848 11.4599C18.9583 11.5568 18.6641 11.9131 18.8048 12.3699C18.9013 12.6839 19.424 13.0739 19.9655 13.0001ZM15.0834 23.5177C14.2954 23.0884 13.6837 23.2302 13.3401 23.6421C14.2373 24.3398 15.0978 24.9356 15.8217 25.3382C15.8264 25.3239 15.8319 25.3096 15.8356 25.2953C15.9825 24.778 15.9696 24.0009 15.0834 23.5177ZM13.7729 21.8501C13.4368 21.844 13.1791 22.0756 13.2085 22.3048C13.2355 22.5093 13.5119 22.7156 13.8529 22.7161C14.2123 22.717 14.4076 22.5487 14.3685 22.2891C14.3413 22.111 14.0823 21.8559 13.7729 21.8501ZM17.4973 23.3173C17.4348 22.8421 17.1647 22.6781 16.8653 22.6671C16.5986 22.6566 16.3414 22.7958 16.3645 23.2318C16.3884 23.6919 16.6479 23.8991 16.9858 23.9051C17.2184 23.9095 17.5493 23.7137 17.4973 23.3173ZM14.2972 10.5638C14.6549 10.6726 14.8193 10.532 14.8757 10.3222C14.9265 10.135 14.8665 9.90698 14.5437 9.78315C14.2029 9.65244 14.0089 9.77094 13.9492 10.0105C13.9091 10.1746 13.9983 10.4737 14.2972 10.5638Z" fill="#B74750" fill-opacity="0.4"/>
</svg>
