<svg width="25" height="25" viewBox="0 0 25 25" fill="none" xmlns="http://www.w3.org/2000/svg">
<path fill-rule="evenodd" clip-rule="evenodd" d="M12.5 11.25C13.4946 11.25 14.4484 10.8549 15.1517 10.1517C15.8549 9.44839 16.25 8.49456 16.25 7.5C16.25 6.50544 15.8549 5.55161 15.1517 4.84835C14.4484 4.14509 13.4946 3.75 12.5 3.75C11.5054 3.75 10.5516 4.14509 9.84835 4.84835C9.14509 5.55161 8.75 6.50544 8.75 7.5C8.75 8.49456 9.14509 9.44839 9.84835 10.1517C10.5516 10.8549 11.5054 11.25 12.5 11.25ZM3.75 22.5C3.75 21.3509 3.97633 20.2131 4.41605 19.1515C4.85578 18.0899 5.5003 17.1253 6.31282 16.3128C7.12533 15.5003 8.08992 14.8558 9.15152 14.4161C10.2131 13.9763 11.3509 13.75 12.5 13.75C13.6491 13.75 14.7869 13.9763 15.8485 14.4161C16.9101 14.8558 17.8747 15.5003 18.6872 16.3128C19.4997 17.1253 20.1442 18.0899 20.5839 19.1515C21.0237 20.2131 21.25 21.3509 21.25 22.5H3.75Z" fill="#567C8D"/>
</svg>
