<svg width="106" height="86" viewBox="0 0 106 86" fill="none" xmlns="http://www.w3.org/2000/svg">
<path d="M34.5384 79.8839C34.0505 81.3545 23.2085 84.5583 22.9153 81.487C22.622 78.4158 28.5802 77.6155 29.1913 76.415C29.8001 75.212 29.1801 49.5003 29.1801 49.5003L34.5384 48.8784C34.5384 48.8784 35.0263 78.4158 34.5384 79.8839ZM75.0617 76.415C74.4506 75.212 75.0617 50.1349 75.0617 50.1349L69.7123 50.8155C69.7123 50.8155 69.2243 78.4158 69.7123 79.8839C70.2024 81.3545 81.0422 84.5583 81.3354 81.487C81.6286 78.4158 75.6705 77.6155 75.0617 76.415ZM48.6572 48.8784L43.3101 50.1349C43.3101 50.1349 43.9189 75.5535 43.3101 76.7566C42.699 77.957 36.0045 81.8133 37.3272 84.5583C38.6344 87.2676 48.1693 81.6935 48.6572 80.2254C49.1451 78.7573 48.6572 48.8784 48.6572 48.8784ZM61.3771 76.7566C60.766 75.5535 61.3771 50.1349 61.3771 50.1349L56.0277 50.8155C56.0277 50.8155 55.5398 78.7573 56.0277 80.2254C56.5156 81.6935 66.0528 87.2676 67.3576 84.5583C68.6804 81.8133 61.9859 77.957 61.3771 76.7566Z" fill="#D78F28"/>
<path d="M95.217 46.8368C87.974 49.7348 70.8515 51.1926 53.6641 51.213C53.597 51.213 53.5298 51.213 53.4627 51.213C53.3955 51.213 53.3284 51.213 53.2613 51.213C53.174 51.213 53.0867 51.2105 52.9994 51.2105C52.9143 51.2105 52.827 51.213 52.7397 51.213C52.6726 51.213 52.6054 51.213 52.5383 51.213C52.4712 51.213 52.404 51.213 52.3346 51.213C35.1495 51.1926 18.027 49.7348 10.784 46.8368C-0.870464 42.1752 -1.53746 31.264 1.62517 19.6035C3.02183 14.4525 7.24762 9.65326 12.1113 6.33735C23.1637 -0.345453 42.285 0.00117534 52.5383 0.00372457C52.6883 0.00372457 52.8472 0.00372457 52.9994 0.00372457C53.1538 0.00372457 53.3127 0.00372457 53.4627 0.00372457C63.7161 0.00117534 82.8373 -0.345453 93.8897 6.33735C98.7534 9.65326 102.977 14.4525 104.376 19.6035C107.536 31.264 106.871 42.1752 95.217 46.8368ZM95.217 46.8368C87.974 49.7348 70.8515 51.1926 53.6641 51.213C53.597 51.213 53.5298 51.213 53.4627 51.213C53.3955 51.213 53.3284 51.213 53.2613 51.213C53.174 51.213 53.0867 51.2105 52.9994 51.2105C52.9143 51.2105 52.827 51.213 52.7397 51.213C52.6726 51.213 52.6054 51.213 52.5383 51.213C52.4712 51.213 52.404 51.213 52.3346 51.213C35.1495 51.1926 18.027 49.7348 10.784 46.8368C-0.870464 42.1752 -1.53746 31.264 1.62517 19.6035C3.02183 14.4525 7.24762 9.65326 12.1113 6.33735C23.1637 -0.345453 42.285 0.00117534 52.5383 0.00372457C52.6883 0.00372457 52.8472 0.00372457 52.9994 0.00372457C53.1538 0.00372457 53.3127 0.00372457 53.4627 0.00372457C63.7161 0.00117534 82.8373 -0.345453 93.8897 6.33735C98.7534 9.65326 102.977 14.4525 104.376 19.6035C107.536 31.264 106.871 42.1752 95.217 46.8368Z" fill="#FBB116"/>
<path d="M31.078 22.1933C31.078 29.5796 28.0206 31.328 25.084 31.6466C22.1855 31.9601 18.0112 30.3952 17.8142 23.5085C17.6172 16.6192 20.762 12.74 24.3969 12.74C27.6378 12.74 31.078 14.491 31.078 22.1933ZM82.112 31.6848C85.7469 31.6848 88.8916 27.8031 88.6946 20.9164C88.4977 14.0272 84.3234 12.4622 81.4248 12.7757C78.4883 13.0943 75.4309 14.8427 75.4309 22.229C75.4309 29.9313 78.871 31.6848 82.112 31.6848ZM52.6725 31.6644C52.424 31.6339 52.1823 31.5905 51.9495 31.5396C48.919 30.8539 45.4877 28.6977 46.1771 21.3446C46.8978 13.678 51.0542 12.3985 54.4317 12.8063C58.2211 13.2651 61.133 17.524 60.2847 24.3521C59.5036 30.6526 55.618 32.0187 52.6725 31.6644Z" fill="#0E0F1A"/>
<path d="M23.0181 10.6318C17.906 10.6318 13.4854 15.3776 13.7607 23.7961C14.0383 32.212 19.9092 34.1261 23.985 33.7438C28.1145 33.3564 32.412 31.218 32.412 22.1878C32.412 12.7753 27.5774 10.6318 23.0181 10.6318ZM24.9631 30.5452C22.4026 30.8204 18.7162 29.439 18.5416 23.3552C18.367 17.2739 21.1447 13.8433 24.3543 13.8433C27.2193 13.8433 30.2543 15.3929 30.2543 22.1955C30.2565 28.7203 27.5572 30.2648 24.9631 30.5452ZM92.4974 20.6255C92.2198 12.2095 86.349 10.2954 82.2731 10.6777C78.1436 11.0651 73.8462 13.2035 73.8462 22.2337C73.8462 31.6462 78.6808 33.7897 83.24 33.7897C88.3522 33.7897 92.7727 29.0439 92.4974 20.6255ZM82.0605 30.5783C79.1955 30.5783 76.1605 29.0287 76.1605 22.2286C76.1605 15.7013 78.8598 14.1567 81.4517 13.8764C84.0122 13.6011 87.7008 14.9825 87.8732 21.0664C88.0478 27.1477 85.2701 30.5783 82.0605 30.5783Z" fill="white"/>
<path d="M74.3543 8.22869C65.0657 7.33918 64.1905 0.116045 64.1905 0.108398C70.5605 0.314846 77.8661 0.832241 84.2138 2.49147C83.1596 5.08864 80.4289 8.81235 74.3543 8.22869ZM67.0935 8.89646C64.8553 6.31204 59.8439 10.3645 63.1363 13.7034C66.431 17.0397 69.6384 11.8352 67.0935 8.89646ZM6.84469 40.4142C9.45 42.5093 13.7541 37.5188 9.99165 34.8911C6.23141 32.2659 3.88351 38.0311 6.84469 40.4142ZM28.1728 10.1377C30.3014 10.5506 31.6376 6.0801 28.6675 5.72837C25.6973 5.3741 25.7533 9.66873 28.1728 10.1377ZM83.6587 46.9925C88.2717 46.0724 89.3572 40.2383 82.7835 40.9036C76.2098 41.5662 77.893 48.1445 83.6587 46.9925ZM1.00737 22.1117C-0.185607 27.4487 -0.445241 32.5386 0.937988 36.8383C2.09516 35.4212 3.67983 32.9591 3.95737 29.7222C4.41844 24.3622 1.14391 22.1983 1.00737 22.1117Z" fill="#AE6428" fill-opacity="0.3"/>
<path d="M34.6972 62.2467C32.9357 62.2467 31.1742 62.2467 29.4127 62.2467C29.406 61.7879 29.3993 61.3317 29.3948 60.8805C31.1563 60.8805 32.92 60.8805 34.6815 60.8805C34.6882 61.3291 34.6927 61.7853 34.6972 62.2467ZM34.583 53.5172C32.8081 53.4535 31.0354 53.298 29.2605 53.2725C29.2695 53.6956 29.2784 54.1544 29.2874 54.6387C31.06 54.6641 32.8305 54.8196 34.6032 54.8833C34.5965 54.3914 34.5897 53.9352 34.583 53.5172ZM34.7464 68.4426C33.0163 68.407 31.2883 68.2591 29.5559 68.2566C29.5224 68.2566 29.491 68.2617 29.4597 68.2693C29.4619 68.7256 29.4619 69.1716 29.4619 69.6074C29.491 69.6151 29.5224 69.6202 29.5559 69.6202C31.2883 69.6253 33.0207 69.7705 34.7531 69.8062C34.7509 69.3576 34.7487 68.9014 34.7464 68.4426ZM69.5689 60.8805C71.3326 60.8805 73.0941 60.8805 74.8578 60.8805C74.8511 61.3342 74.8444 61.7879 74.8399 62.2467C73.0784 62.2467 71.3169 62.2467 69.5554 62.2467C69.5599 61.7853 69.5644 61.3291 69.5689 60.8805ZM69.6472 54.8833C71.4199 54.8196 73.1903 54.6641 74.963 54.6387C74.9742 54.1544 74.9832 53.6956 74.9921 53.2725C73.2172 53.298 71.4445 53.4535 69.6696 53.5172C69.6629 53.9352 69.6562 54.3914 69.6472 54.8833ZM69.4995 69.8062C71.2319 69.7705 72.962 69.6253 74.6944 69.6202C74.728 69.6202 74.7593 69.6151 74.7907 69.6074C74.7907 69.1716 74.7907 68.7256 74.7907 68.2693C74.7593 68.2617 74.7302 68.2566 74.6944 68.2566C72.9643 68.2591 71.2341 68.407 69.504 68.4426C69.5017 68.9014 69.4995 69.3576 69.4995 69.8062ZM48.816 62.2467C47.0545 62.2467 45.293 62.2467 43.5315 62.2467C43.5248 61.7879 43.5181 61.3317 43.5113 60.8805C45.2751 60.8805 47.0388 60.8805 48.8003 60.8805C48.8048 61.3291 48.8115 61.7853 48.816 62.2467ZM48.7018 53.5172C46.9269 53.4535 45.1542 53.298 43.3793 53.2725C43.386 53.6956 43.3972 54.1544 43.4061 54.6387C45.1788 54.6641 46.9493 54.8196 48.722 54.8833C48.7152 54.3914 48.7085 53.9352 48.7018 53.5172ZM48.8652 68.4426C47.135 68.407 45.4049 68.2591 43.6747 68.2566C43.6412 68.2566 43.6098 68.2617 43.5785 68.2693C43.5807 68.7256 43.5807 69.1716 43.5785 69.6074C43.6098 69.6151 43.6412 69.6202 43.6747 69.6202C45.4071 69.6253 47.1373 69.7705 48.8697 69.8062C48.8697 69.3576 48.8674 68.9014 48.8652 68.4426ZM55.8843 60.8805C57.648 60.8805 59.4095 60.8805 61.1733 60.8805C61.1665 61.3342 61.1598 61.7879 61.1553 62.2467C59.3939 62.2467 57.6301 62.2467 55.8686 62.2467C55.8753 61.7853 55.8798 61.3291 55.8843 60.8805ZM55.9626 54.8833C57.7353 54.8196 59.5058 54.6641 61.2785 54.6387C61.2896 54.1544 61.2986 53.6956 61.3075 53.2725C59.5304 53.298 57.7577 53.4535 55.985 53.5172C55.9783 53.9352 55.9716 54.3914 55.9626 54.8833ZM55.8149 69.8062C57.5473 69.7705 59.2775 69.6253 61.0099 69.6202C61.0434 69.6202 61.0748 69.6151 61.1061 69.6074C61.1039 69.1716 61.1061 68.7256 61.1061 68.2693C61.0748 68.2617 61.0434 68.2566 61.0099 68.2566C59.2797 68.2591 57.5495 68.407 55.8194 68.4426C55.8172 68.9014 55.8149 69.3576 55.8149 69.8062ZM37.6136 34.1391C38.003 34.3991 38.2179 35.3396 38.3365 36.1858C39.0886 35.3574 40.3666 34.0984 40.7135 34.654C41.0784 35.2351 40.6554 36.8663 40.3935 37.7201C41.0515 37.5392 41.8864 37.4066 42.2736 37.7431C42.8332 38.2273 41.1522 40.0751 40.4987 40.7557C40.4606 41.0309 40.4002 41.3036 40.3174 41.5662C39.9123 42.8686 38.2112 46.1004 37.627 47.3085C37.4681 47.6347 37.0406 47.6857 36.7899 47.4945C36.5034 47.2728 36.4721 46.8701 36.6288 46.5464C36.8951 45.9933 38.1485 43.4395 38.4126 42.8864C38.7103 42.2671 39.0326 41.6554 39.2229 40.98C39.5474 39.8356 39.2788 38.5102 38.1821 38.1101C37.0003 37.6768 35.9797 38.5408 35.2142 39.4736C34.245 40.6486 33.3609 41.9306 32.4455 43.1591C31.5032 44.4208 32.0449 43.6714 31.1026 44.9331C30.8922 45.216 30.5609 45.3434 30.2677 45.1166C30.0193 44.928 29.8962 44.4513 30.1066 44.171C31.351 42.5016 31.1115 42.8456 32.3582 41.1762C32.8932 40.4626 33.4214 39.7413 33.963 39.0302C34.4756 38.3573 35.0083 37.7227 35.6798 37.2486C35.729 37.2155 35.7782 37.1823 35.8297 37.1517C36.1341 36.2113 37.007 33.7364 37.6136 34.1391ZM70.012 37.1517C70.0613 37.1823 70.1128 37.2155 70.1598 37.2486C70.8312 37.7227 71.3639 38.3573 71.8787 39.0302C72.4181 39.7413 72.9486 40.4626 73.4835 41.1762C74.728 42.8456 74.4885 42.5016 75.7352 44.171C75.9456 44.4513 75.8203 44.928 75.5718 45.1166C75.2786 45.3434 74.9473 45.216 74.737 44.9331C73.7947 43.6714 74.3386 44.4208 73.3963 43.1591C72.4786 41.9306 71.5945 40.6486 70.6276 39.4736C69.8598 38.5408 68.8392 37.6768 67.6597 38.1101C66.5607 38.5102 66.2943 39.8356 66.6166 40.98C66.8091 41.6554 67.1314 42.2671 67.4269 42.8864C67.6932 43.4395 68.9444 45.9933 69.2108 46.5464C69.3674 46.8701 69.3361 47.2728 69.0496 47.4945C68.7989 47.6857 68.3714 47.6347 68.2147 47.3085C67.6306 46.1004 65.9273 42.8686 65.5221 41.5662C65.4393 41.3036 65.3811 41.0309 65.3408 40.7557C64.6873 40.0751 63.0086 38.2273 63.5682 37.7431C63.9554 37.4066 64.7902 37.5392 65.446 37.7201C65.1864 36.8663 64.7611 35.2351 65.126 34.654C65.4729 34.0984 66.7509 35.3574 67.5052 36.1858C67.6216 35.3396 67.8365 34.3991 68.2259 34.1391C68.8325 33.7364 69.7054 36.2113 70.012 37.1517ZM55.1972 44.3341C53.9527 44.7648 52.6747 44.7317 51.4347 44.2423C51.1281 44.12 50.7789 44.3876 50.6983 44.7241C50.611 45.1038 50.8169 45.4377 51.1258 45.56C52.5359 46.1157 54.0982 46.1412 55.5262 45.6467C55.8373 45.5397 56.0298 45.165 55.9403 44.8056C55.853 44.4539 55.5083 44.227 55.1972 44.3341Z" fill="#AE6428"/>
<path d="M53.0756 43.2585C52.9727 43.2458 52.872 43.2279 52.7735 43.2075C51.5111 42.9221 50.0809 42.0224 50.3696 38.9588C50.6695 35.7652 52.4019 35.23 53.8098 35.4007C55.3877 35.5919 56.6009 37.3658 56.2472 40.2128C55.9227 42.838 54.3022 43.4063 53.0756 43.2585Z" fill="#0E0F1A"/>
<path d="M14.6272 28.3231C16.749 23.7379 27.75 20.9776 30.8298 29.7198C28.4259 35.2276 17.1004 35.9285 14.6272 28.3231ZM91.2241 28.0886C89.1045 23.5008 78.5109 20.9776 75.4311 29.7198C77.835 35.2276 88.7508 35.6915 91.2241 28.0886Z" fill="#D78F28"/>
<path d="M54.714 10.7083C50.1681 10.1578 44.671 12.5409 43.7175 21.0486C42.7103 30.0278 48.0082 33.8484 52.5608 33.7872C56.5426 33.7362 61.901 31.9062 62.8813 24.2014C63.9445 15.844 59.8082 11.3226 54.714 10.7083ZM59.4993 24.1147C58.8055 29.7092 55.3541 30.9249 52.7376 30.6064C52.5183 30.5809 52.3034 30.5426 52.0953 30.4968C49.4049 29.8876 46.3564 27.9735 46.9697 21.4411C47.6098 14.6359 51.3007 13.4967 54.3022 13.8611C57.6662 14.2664 60.2536 18.0487 59.4993 24.1147Z" fill="white"/>
</svg>
